<svg width="40" height="40" viewBox="0 0 40 40" fill="none" xmlns="http://www.w3.org/2000/svg">
<path d="M25.6287 14.4431C25.4872 6.80448 19.2544 0.573056 11.6173 0.431627C10.0458 0.403056 8.53154 0.627342 7.11011 1.06734C3.84582 2.07877 2.86725 6.23734 5.28439 8.65448C6.89725 7.04163 9.14868 6.06877 11.6258 6.14877C16.1144 6.29163 19.7687 9.94734 19.9115 14.4359C19.9787 16.5473 19.2801 18.4916 18.0758 20.0188L22.1344 24.0773C24.3658 21.5073 25.6958 18.1316 25.6272 14.4445L25.6287 14.4431Z" fill="white"/>
<path d="M11.3457 14.7144V39.5715L14.9657 35.5715L20.1086 38.1429L22.2514 30.7144L36.06 39.5715L11.3457 14.7144Z" fill="#F6AE2D"/>
</svg>
