<svg width="72" height="60" viewBox="0 0 72 60" fill="none" xmlns="http://www.w3.org/2000/svg">
<path d="M47.6619 14.5436C47.4839 14.5434 47.3133 14.4726 47.1874 14.3467C47.0616 14.2209 46.9907 14.0502 46.9905 13.8722V6.93585C46.993 6.75944 47.0648 6.59109 47.1904 6.46723C47.3161 6.34336 47.4854 6.27393 47.6619 6.27393C47.8383 6.27393 48.0076 6.34336 48.1333 6.46723C48.2589 6.59109 48.3307 6.75944 48.3332 6.93585V13.8722C48.3333 13.9604 48.3159 14.0477 48.2822 14.1292C48.2485 14.2106 48.199 14.2847 48.1367 14.347C48.0743 14.4094 48.0003 14.4588 47.9189 14.4925C47.8374 14.5263 47.7501 14.5436 47.6619 14.5436Z" fill="url(#paint0_linear_928_613)"/>
<path d="M51.1298 54.2576C50.9984 54.2575 50.87 54.219 50.7603 54.1467C50.6506 54.0744 50.5645 53.9716 50.5126 53.8509L45.1431 41.3213C45.1076 41.2402 45.0886 41.1528 45.087 41.0643C45.0855 40.9758 45.1014 40.8879 45.134 40.8055C45.1666 40.7232 45.2152 40.6481 45.2769 40.5847C45.3386 40.5212 45.4122 40.4706 45.4936 40.4357C45.5749 40.4008 45.6624 40.3823 45.751 40.3814C45.8395 40.3804 45.9273 40.3971 46.0094 40.4302C46.0915 40.4634 46.1662 40.5125 46.2293 40.5746C46.2923 40.6368 46.3424 40.7108 46.3767 40.7924L51.7467 53.3217C51.7906 53.4238 51.8083 53.5352 51.7985 53.6459C51.7887 53.7566 51.7515 53.8631 51.6904 53.9559C51.6292 54.0486 51.546 54.1248 51.4482 54.1774C51.3504 54.2301 51.2409 54.2576 51.1298 54.2576Z" fill="url(#paint1_linear_928_613)"/>
<path d="M37.2583 47.0977C37.1183 47.0979 36.9817 47.0543 36.8676 46.9729C36.7536 46.8915 36.6679 46.7765 36.6226 46.644C36.5772 46.5115 36.5745 46.3681 36.6147 46.234C36.6549 46.0998 36.7361 45.9816 36.8469 45.8959L43.7827 40.5261C43.9235 40.4182 44.1013 40.3705 44.2772 40.3933C44.4532 40.4161 44.6129 40.5076 44.7216 40.6478C44.8303 40.788 44.879 40.9655 44.8572 41.1416C44.8353 41.3176 44.7447 41.4779 44.6051 41.5873L37.6685 46.9575C37.5511 47.0485 37.4068 47.0978 37.2583 47.0977Z" fill="url(#paint2_linear_928_613)"/>
<path d="M22.7804 3.3608L23.8408 1.87047C24.3375 1.65271 24.8725 1.53549 25.4147 1.52559C25.957 1.51569 26.4959 1.61331 27.0003 1.81279L70.0652 18.8501C70.6359 19.0759 71.1256 19.4681 71.4706 19.9757C71.8157 20.4834 72.0001 21.0831 72 21.6969V51.7519C72.0001 52.5488 71.7684 53.3286 71.333 53.9961C70.8976 54.6636 70.2774 55.1899 69.548 55.5109L68.0525 55.3857L38.2081 28.3197L22.7804 3.3608Z" fill="url(#paint3_linear_928_613)"/>
<path d="M67.3791 55.6274L24.6128 38.0706C23.8197 37.7448 23.1413 37.1907 22.6639 36.4786C22.1865 35.7664 21.9315 34.9284 21.9314 34.071V4.06854C21.9315 3.68866 22.0251 3.31466 22.2039 2.97951C22.3827 2.64437 22.6413 2.35841 22.9569 2.14687C23.2724 1.93534 23.6352 1.80472 24.0131 1.76658C24.3911 1.72844 24.7726 1.78393 25.1241 1.92817L67.8902 19.485C68.6833 19.8105 69.3617 20.3646 69.8391 21.0766C70.3165 21.7887 70.5714 22.6267 70.5713 23.484V53.4866C70.5714 53.8665 70.4778 54.2405 70.299 54.5757C70.1203 54.9109 69.8617 55.1968 69.5462 55.4084C69.2307 55.62 68.8679 55.7507 68.49 55.7888C68.112 55.827 67.7305 55.7715 67.3791 55.6274Z" fill="url(#paint4_linear_928_613)"/>
<path d="M56.2857 23.5063L54.4572 22.8045C54.3614 22.7669 54.2584 22.751 54.1556 22.7579C54.0528 22.7649 53.9529 22.7946 53.863 22.8448L52.1113 23.9567L53.1276 24.5405L53.534 24.327L53.4855 41.4318C53.4841 41.6947 53.5623 41.9519 53.7099 42.1695C53.8575 42.3871 54.0675 42.5549 54.3123 42.6508L55.155 43.0261L54.5456 43.2448L54.9518 44.4521L56.6505 43.3522C56.9844 43.1834 57.1131 42.9944 57.1131 42.6812V24.7258C57.1144 24.4627 57.0361 24.2055 56.8884 23.9878C56.7407 23.7702 56.5306 23.6023 56.2857 23.5063Z" fill="url(#paint5_linear_928_613)"/>
<path d="M52.8313 23.8606L54.6598 24.5626C54.9046 24.6584 55.1147 24.8261 55.2624 25.0436C55.4101 25.2611 55.4885 25.5183 55.4873 25.7812V43.7369C55.4869 43.853 55.4584 43.9673 55.4043 44.0701C55.3502 44.1728 55.272 44.261 55.1765 44.327C55.0809 44.3931 54.9709 44.435 54.8556 44.4493C54.7404 44.4636 54.6234 44.4498 54.5146 44.4091L52.687 43.7067C52.4421 43.6109 52.2319 43.4432 52.0841 43.2257C51.9363 43.0082 51.8578 42.751 51.859 42.488V24.532C51.8595 24.416 51.8879 24.3018 51.9421 24.1991C51.9962 24.0965 52.0744 24.0084 52.1699 23.9425C52.2654 23.8765 52.3754 23.8346 52.4906 23.8204C52.6057 23.8061 52.7226 23.82 52.8313 23.8606Z" fill="url(#paint6_linear_928_613)"/>
<path d="M62.7741 31.5615L60.9456 30.86C60.8497 30.8225 60.7467 30.8066 60.6439 30.8136C60.5412 30.8206 60.4413 30.8502 60.3514 30.9003L58.5996 32.0124L59.6158 32.5957L60.0228 32.3827L59.9733 44.3413C59.972 44.6043 60.0504 44.8615 60.1982 45.0791C60.346 45.2967 60.5562 45.4643 60.8012 45.5601L61.6431 45.9356L61.0332 46.1535L61.4401 47.3616L63.1383 46.2616C63.4728 46.0928 63.6014 45.9034 63.6014 45.5902V32.7813C63.6028 32.5183 63.5245 32.261 63.3768 32.0432C63.2291 31.8255 63.019 31.6576 62.7741 31.5615Z" fill="#F7830F"/>
<path d="M59.3199 31.9155L61.1476 32.6174C61.3924 32.7131 61.6026 32.8808 61.7503 33.0983C61.8981 33.3157 61.9766 33.5728 61.9754 33.8357V46.6463C61.975 46.7624 61.9466 46.8767 61.8924 46.9793C61.8383 47.082 61.76 47.17 61.6645 47.2359C61.5689 47.3018 61.4589 47.3437 61.3437 47.3578C61.2285 47.372 61.1115 47.358 61.0029 47.3172L59.1753 46.615C58.9304 46.5194 58.7202 46.3518 58.5724 46.1343C58.4246 45.9169 58.3461 45.6598 58.3473 45.3969V32.5872C58.3477 32.471 58.3761 32.3567 58.4302 32.254C58.4843 32.1513 58.5625 32.0631 58.6581 31.9972C58.7536 31.9312 58.8637 31.8893 58.979 31.8751C59.0942 31.8608 59.2111 31.8747 59.3199 31.9155Z" fill="#FFA709"/>
<path d="M49.797 25.7442L47.9686 25.0428C47.8727 25.0052 47.7697 24.9893 47.6669 24.9962C47.5642 25.0032 47.4642 25.0329 47.3743 25.0831L45.6222 26.195L46.639 26.7781L47.045 26.5654L46.9958 38.5238C46.9946 38.7868 47.0731 39.0441 47.2208 39.2616C47.3686 39.4792 47.5788 39.6469 47.8238 39.7427L48.6659 40.118L48.0559 40.3364L48.4629 41.5442L50.1614 40.4447C50.4955 40.2753 50.6241 40.0865 50.6241 39.7735V26.964C50.6255 26.7009 50.5472 26.4437 50.3996 26.2259C50.2519 26.0082 50.0418 25.8403 49.797 25.7442Z" fill="#F7830F"/>
<path d="M46.343 26.0978L48.1704 26.7996C48.4153 26.8955 48.6255 27.0633 48.7732 27.2808C48.921 27.4984 48.9994 27.7556 48.9983 28.0187V40.828C48.9981 40.9442 48.9697 41.0585 48.9157 41.1613C48.8617 41.2642 48.7836 41.3524 48.688 41.4184C48.5925 41.4845 48.4824 41.5264 48.3671 41.5407C48.2519 41.5549 48.1348 41.5411 48.0261 41.5002L46.1976 40.7987C45.9527 40.7028 45.7425 40.5349 45.5948 40.3172C45.4471 40.0995 45.3688 39.8422 45.3701 39.5791V26.7698C45.3704 26.6536 45.3988 26.5392 45.4529 26.4364C45.5069 26.3335 45.5852 26.2453 45.6808 26.1792C45.7764 26.1132 45.8865 26.0713 46.0019 26.0571C46.1172 26.043 46.2342 26.0569 46.343 26.0978Z" fill="#FFA709"/>
<path d="M41.0178 24.9393C39.6821 22.0165 37.2428 20.346 35.1156 20.6792V20.6818C35.1128 20.6818 35.1098 20.6818 35.1067 20.6826L35.1077 20.6855C35.1046 20.6857 35.1015 20.6862 35.0985 20.6869L35.0993 20.6897C35.0962 20.6896 35.0932 20.6898 35.0902 20.6905V20.6928C35.0875 20.6936 35.0847 20.6936 35.0817 20.6941V20.6968C35.0788 20.6976 35.0759 20.6979 35.0729 20.6979V20.7007C35.0699 20.7008 35.067 20.7012 35.0641 20.7018V20.7046C35.0613 20.7046 35.0583 20.7054 35.0553 20.7054V20.7086C35.0521 20.7086 35.0493 20.7086 35.0461 20.7096L35.0469 20.7125C35.0439 20.7125 35.0405 20.7133 35.0383 20.7133V20.7167C35.0353 20.7167 35.0325 20.7167 35.0295 20.7167V20.7197C35.0266 20.7197 35.0238 20.7197 35.0205 20.721L35.0213 20.7236C35.0185 20.7242 35.0156 20.7246 35.0127 20.7247V20.7275C35.0098 20.7275 35.0069 20.7285 35.0041 20.7285V20.731C35.0013 20.7316 34.9984 20.732 34.9955 20.7323V20.7351C34.9925 20.7351 34.9895 20.7355 34.9867 20.7365L34.9876 20.7388C34.9842 20.7388 34.9813 20.7396 34.9785 20.7401L34.9792 20.7429C34.9762 20.7436 34.9731 20.7439 34.97 20.7437V20.7464C34.9672 20.7472 34.964 20.7472 34.9611 20.748V20.7501C34.9584 20.7509 34.9554 20.7509 34.9524 20.7517L34.9532 20.7544C34.9501 20.7546 34.9471 20.755 34.9441 20.7556L34.9448 20.7585C34.9417 20.7585 34.9387 20.7588 34.9356 20.7593L34.9366 20.7621C34.9335 20.7622 34.9305 20.7627 34.9275 20.7635L34.9283 20.7655C34.9253 20.7664 34.9222 20.7667 34.919 20.7666V20.7696C34.9162 20.7707 34.9132 20.7712 34.9102 20.7709V20.7734C34.9073 20.7741 34.9043 20.7744 34.9014 20.7745L34.9022 20.7773C34.8993 20.7771 34.8964 20.7775 34.8936 20.7784V20.7809C34.8907 20.7817 34.8873 20.7817 34.8843 20.7822L34.8852 20.785C34.8822 20.7856 34.8792 20.7858 34.8762 20.7858L34.8771 20.7892C34.874 20.7892 34.8708 20.7894 34.8678 20.79L34.8686 20.7929C34.8657 20.7931 34.8629 20.7935 34.86 20.7941V20.7966C34.8571 20.7966 34.8542 20.7966 34.8507 20.7977L34.8518 20.8005L34.843 20.8015L34.8439 20.8042C34.8409 20.8049 34.8378 20.8052 34.8348 20.805V20.8079C34.8317 20.8087 34.829 20.8087 34.8262 20.8092V20.812C34.8232 20.812 34.8201 20.812 34.8171 20.8129L34.8182 20.8158C34.8149 20.8158 34.8119 20.8158 34.8085 20.8158L34.8094 20.8185C34.8065 20.8194 34.8035 20.82 34.8006 20.8201L34.8014 20.8227L34.7922 20.8237V20.8263C34.7892 20.8267 34.7863 20.8272 34.7834 20.8279L34.7842 20.8306C34.7811 20.8306 34.778 20.831 34.775 20.8319V20.8342C34.7722 20.8342 34.7692 20.8342 34.7664 20.8356L34.7673 20.8377C34.7644 20.8387 34.7613 20.8392 34.7582 20.8392L34.7591 20.8419C34.756 20.8423 34.7529 20.8426 34.7499 20.8427V20.8458C34.7469 20.8459 34.744 20.8462 34.7411 20.8469L34.742 20.8497C34.7391 20.8498 34.7362 20.8501 34.7333 20.8508V20.854C34.7304 20.854 34.727 20.854 34.7241 20.854L34.7249 20.8573C34.7215 20.8573 34.7191 20.8582 34.7163 20.8582V20.8615C34.7133 20.8615 34.7102 20.8615 34.707 20.8615L34.7081 20.8645C34.705 20.8643 34.7019 20.8647 34.6989 20.8657L34.6997 20.8678C34.6968 20.8686 34.6939 20.8686 34.691 20.8692V20.872C34.688 20.8724 34.6849 20.8727 34.6819 20.8728L34.6829 20.8757L34.6739 20.877V20.8799L34.6653 20.8813V20.8833C34.6624 20.8841 34.6595 20.8844 34.6566 20.8849V20.8873C34.6537 20.8883 34.6507 20.8888 34.6477 20.8885L34.6485 20.8912C34.6456 20.8919 34.6427 20.8921 34.6398 20.892V20.8948C34.6369 20.8954 34.6341 20.8959 34.6312 20.8962V20.8991C34.6282 20.8991 34.6253 20.8995 34.6225 20.9004V20.9028C34.6199 20.9028 34.6167 20.9036 34.6133 20.9036L34.6145 20.907C34.6111 20.907 34.6083 20.907 34.6054 20.907L34.6062 20.9098C34.6032 20.9104 34.6001 20.9108 34.597 20.9109V20.9138C34.594 20.9139 34.5909 20.9143 34.5879 20.9149V20.9177C34.585 20.9178 34.5821 20.9181 34.5793 20.9188V20.9213C34.5763 20.9213 34.574 20.9213 34.5705 20.9227V20.9251C34.5675 20.9257 34.5645 20.9262 34.5614 20.9265L34.5626 20.9293C34.5596 20.9298 34.5565 20.9301 34.5535 20.9301L34.5543 20.9329C34.5514 20.9329 34.5479 20.9337 34.5451 20.9337V20.9369C34.5426 20.9369 34.5392 20.9377 34.5363 20.9379L34.537 20.9408C34.5338 20.9408 34.531 20.9408 34.5281 20.9422L34.5288 20.9447C34.5258 20.9454 34.5228 20.9457 34.5197 20.9455L34.5205 20.948C34.5175 20.9489 34.5144 20.9493 34.5112 20.9492L34.512 20.9521C34.5092 20.9521 34.506 20.9521 34.5032 20.9535L34.504 20.9555C34.5011 20.9563 34.4977 20.9563 34.495 20.9571V20.9596C34.4921 20.9597 34.4892 20.9599 34.4864 20.9605V20.9634L34.4774 20.9648L34.4782 20.9676L34.469 20.9689L34.4698 20.9714L34.4611 20.9726V20.9755C34.4583 20.9755 34.4553 20.9755 34.452 20.9763L34.453 20.9789C34.4501 20.9797 34.447 20.9797 34.444 20.9805V20.9827C34.4412 20.9833 34.4382 20.9833 34.4354 20.9839V20.9868C34.4325 20.9868 34.4296 20.9868 34.4267 20.9868V20.9902C34.4236 20.9904 34.4206 20.9908 34.4176 20.9915L34.4186 20.9943C34.4156 20.9943 34.4126 20.9946 34.4096 20.9952V20.9981C34.4068 20.9985 34.4039 20.9988 34.401 20.9988V21.0017L34.3919 21.0031V21.0056C34.389 21.0057 34.3861 21.0061 34.3832 21.0067V21.0094C34.3803 21.0095 34.3774 21.0099 34.3745 21.0106L34.3754 21.013C34.3725 21.0138 34.369 21.0138 34.3662 21.0144L34.367 21.0172C34.364 21.0177 34.3608 21.018 34.3577 21.018L34.3588 21.0215H34.3498V21.025C34.3467 21.0255 34.3436 21.0258 34.3405 21.0258V21.0283C34.3375 21.0287 34.3346 21.0292 34.3316 21.03L34.3326 21.0326C34.3296 21.0325 34.3266 21.0328 34.3237 21.0336V21.0358C34.3206 21.0364 34.3175 21.0368 34.3144 21.0371L34.3152 21.0399C34.3124 21.0399 34.3095 21.0399 34.3061 21.0413L34.3071 21.0441C34.3041 21.0439 34.301 21.0442 34.298 21.0449V21.0478C34.2951 21.0479 34.2923 21.0482 34.2894 21.0487V21.0512C34.2867 21.0512 34.2834 21.0526 34.2806 21.0528V21.0554C34.2777 21.0554 34.2745 21.0554 34.2717 21.0562L34.2725 21.0591L34.2634 21.0605V21.0633C34.2605 21.0634 34.2576 21.0637 34.2548 21.0641V21.0669C34.2518 21.0669 34.2489 21.0669 34.246 21.0683V21.0707C34.2431 21.0714 34.2401 21.0717 34.2371 21.0715V21.0746C34.2341 21.0746 34.2313 21.0757 34.2284 21.0757V21.0782C34.2254 21.0784 34.2224 21.0789 34.2195 21.0796L34.2203 21.0825C34.2173 21.0823 34.2143 21.0823 34.2113 21.0825V21.086C34.2085 21.086 34.2055 21.086 34.2027 21.086V21.0889C34.1998 21.0895 34.1969 21.09 34.194 21.0902V21.0926C34.1911 21.0933 34.1881 21.0937 34.1851 21.0938L34.1862 21.096C34.1831 21.0969 34.18 21.0976 34.1769 21.0981V21.1002C34.1746 21.1002 34.1717 21.101 34.1683 21.1018V21.1045C34.1653 21.1044 34.1622 21.1046 34.1592 21.1051L34.1601 21.1081L34.1512 21.1094V21.1122C34.1483 21.1122 34.1454 21.1131 34.143 21.1131V21.1159C34.1397 21.1159 34.1367 21.1159 34.1338 21.1172L34.1347 21.1197C34.1318 21.1205 34.1287 21.121 34.1256 21.121L34.1265 21.1235C34.1235 21.1236 34.1205 21.124 34.1176 21.1246V21.1272C34.1141 21.1272 34.1118 21.1272 34.1083 21.128L34.1092 21.1315H34.1002V21.1348C34.0974 21.1348 34.0945 21.1348 34.0911 21.1356L34.0919 21.139C34.089 21.139 34.0861 21.1392 34.0833 21.1398V21.1428C34.0802 21.143 34.0772 21.143 34.0742 21.1428L34.0752 21.1455C34.0723 21.1455 34.0689 21.1468 34.0664 21.1471V21.1496C34.0635 21.1496 34.0602 21.1496 34.0572 21.1504L34.058 21.1534C34.0549 21.1535 34.0519 21.1539 34.0489 21.1546L34.0498 21.157C34.0468 21.1577 34.0438 21.158 34.0407 21.1578L34.0415 21.1612C34.0385 21.1612 34.0357 21.162 34.0327 21.162L34.0336 21.1647C34.0306 21.1653 34.0275 21.1656 34.0244 21.1656V21.1689L34.0154 21.1699L34.0162 21.1719C34.0131 21.1728 34.0102 21.1728 34.0073 21.1733V21.1762C34.0044 21.1765 34.0015 21.1769 33.9986 21.1775V21.1799C33.9958 21.1807 33.9928 21.1807 33.99 21.1812L33.9908 21.1838C33.9876 21.1846 33.9847 21.1846 33.9821 21.1854V21.1877C33.9787 21.1877 33.9758 21.1887 33.9729 21.189V21.1917C33.97 21.1917 33.9677 21.1925 33.9642 21.1927V21.1959C33.9612 21.1959 33.9582 21.1962 33.9553 21.197L33.9564 21.1995C33.9529 21.1995 33.9501 21.1995 33.9471 21.2003V21.2033C33.9443 21.2033 33.9414 21.2033 33.9385 21.2045L33.9393 21.2069C33.9363 21.2076 33.9332 21.2078 33.9301 21.2077L33.9311 21.2111C33.928 21.2109 33.925 21.2112 33.922 21.2119L33.9228 21.2146C33.9198 21.2152 33.917 21.2152 33.9135 21.2158L33.9143 21.2187H33.9052L33.9062 21.2215L33.897 21.2229L33.8978 21.2264C33.8949 21.2263 33.892 21.2266 33.8892 21.2271V21.23C33.8862 21.23 33.8833 21.23 33.8799 21.2308L33.8807 21.2337C33.8779 21.2342 33.875 21.2347 33.8721 21.235V21.2372C33.8692 21.2382 33.8663 21.2387 33.8632 21.2386V21.2408C33.8603 21.2418 33.8572 21.2425 33.8541 21.2426V21.2449C33.8513 21.2455 33.8483 21.2458 33.8454 21.2458L33.8463 21.2491C33.8432 21.2489 33.8401 21.2492 33.8371 21.2499V21.2529C33.8343 21.2534 33.8314 21.2537 33.8285 21.2537V21.2565C33.8257 21.2573 33.8227 21.2578 33.8198 21.2578V21.2607C33.8168 21.2607 33.8138 21.2612 33.8109 21.262V21.2642C33.8078 21.2642 33.8047 21.2648 33.8018 21.2658L33.803 21.2678C33.7999 21.2681 33.7969 21.2685 33.7938 21.2691L33.7946 21.2714C33.7916 21.2723 33.7885 21.2727 33.7854 21.2728V21.2757C33.7826 21.2757 33.7799 21.2764 33.7768 21.277L33.7776 21.2799C33.7745 21.2804 33.7714 21.2807 33.7683 21.2807V21.2841C33.7658 21.2841 33.7623 21.2841 33.7594 21.2849L33.7602 21.2876C33.7573 21.2876 33.7542 21.2876 33.7512 21.2891L33.752 21.2912C33.749 21.2912 33.746 21.2917 33.7432 21.2925V21.2948C33.7401 21.2955 33.737 21.2958 33.7339 21.2956L33.7347 21.299C33.7317 21.2989 33.7287 21.2991 33.7258 21.2998L33.7266 21.3033C33.7231 21.3033 33.7203 21.3033 33.7174 21.3033L33.7182 21.3064C33.7151 21.3068 33.7121 21.3071 33.709 21.3072L33.7098 21.3096C33.7069 21.3108 33.7037 21.3114 33.7006 21.3114L33.7016 21.3133C33.6988 21.3143 33.6953 21.3146 33.6927 21.3154V21.3174L33.684 21.3188V21.3216C33.6812 21.3216 33.6783 21.3216 33.6749 21.3229L33.6758 21.3253C33.6727 21.3253 33.6696 21.3253 33.667 21.3265V21.3292C33.6641 21.33 33.6613 21.3303 33.6584 21.3303V21.3329C33.6555 21.3337 33.6527 21.3337 33.6498 21.3345L33.6505 21.3372C33.6474 21.337 33.6441 21.3374 33.6411 21.3383L33.6422 21.3414C33.6392 21.3412 33.6362 21.3412 33.6332 21.3414V21.3442C33.6303 21.3448 33.6274 21.3451 33.6245 21.345V21.3485C33.6215 21.3485 33.6186 21.3488 33.6157 21.3493L33.6165 21.3521C33.6133 21.3521 33.6105 21.3521 33.6077 21.3532V21.356C33.6047 21.3561 33.6017 21.3564 33.5989 21.3571L33.5997 21.3592C33.5966 21.3596 33.5935 21.3601 33.5905 21.361V21.3634L33.5814 21.3648V21.367C33.5787 21.368 33.5757 21.3685 33.5728 21.3684V21.3717C33.5697 21.3717 33.5667 21.372 33.5637 21.3725L33.5645 21.3755C33.5615 21.3755 33.5582 21.3755 33.5553 21.3767L33.5563 21.3791C33.5533 21.3798 33.5502 21.38 33.5471 21.3799V21.3825C33.5443 21.3831 33.5414 21.3836 33.5384 21.3838L33.5392 21.3863C33.5364 21.3863 33.5334 21.3863 33.5301 21.3876L33.5311 21.3902C33.5281 21.3908 33.525 21.3911 33.5219 21.3912L33.5227 21.3941C33.5196 21.3942 33.5165 21.3945 33.5135 21.3951L33.5143 21.3981C33.5114 21.3981 33.5085 21.3992 33.5056 21.3992L33.5064 21.402L33.4973 21.4033V21.4054C33.4944 21.4063 33.4915 21.407 33.4885 21.4075V21.4097C33.4856 21.41 33.4828 21.4105 33.4799 21.4111V21.4133C33.477 21.4133 33.4739 21.4133 33.4709 21.4146L33.4717 21.4174C33.4687 21.4179 33.4656 21.4181 33.4626 21.4183L33.4634 21.4212C33.4603 21.4215 33.4572 21.4215 33.4541 21.4212L33.4549 21.4249C33.4525 21.4249 33.4491 21.4249 33.4463 21.4249V21.4279C33.4434 21.4279 33.4403 21.429 33.4373 21.4293V21.4314C33.4345 21.432 33.4316 21.4324 33.4287 21.4326V21.4356C33.4256 21.436 33.4225 21.4363 33.4194 21.4364L33.4205 21.439C33.4176 21.4396 33.4146 21.44 33.4116 21.44L33.4126 21.4428C33.4095 21.4431 33.4065 21.4436 33.4034 21.4442L35.0937 28.3296L30.7592 30.5929C30.787 30.6565 30.814 30.721 30.8432 30.7854C32.397 34.1846 35.4443 35.8927 37.7577 34.7213C37.763 34.7186 37.7684 34.7161 37.774 34.7141C37.7798 34.7106 37.7856 34.7089 37.7905 34.7061C37.7931 34.7045 37.7959 34.7032 37.7989 34.7022C37.8102 34.6964 37.8215 34.6921 37.8324 34.6869C37.8375 34.6841 37.8435 34.6822 37.8489 34.6791C37.8572 34.6748 37.8657 34.6714 37.8738 34.6678C37.8793 34.6649 37.8851 34.6623 37.8906 34.6599C37.8961 34.6575 37.9016 34.6549 37.9071 34.6522C37.9126 34.6495 37.9184 34.6472 37.9236 34.6439C37.9263 34.643 37.9291 34.642 37.9321 34.6408C37.9376 34.6378 37.9434 34.6358 37.9486 34.6331C37.9596 34.6273 37.9707 34.6229 37.982 34.6174C37.9845 34.6158 37.9875 34.615 37.9898 34.6136C38.0011 34.6081 38.0124 34.6039 38.0231 34.5982C38.0286 34.5959 38.0344 34.5932 38.0398 34.5908C38.0452 34.5884 38.051 34.5858 38.0566 34.583C38.0592 34.5815 38.0619 34.5802 38.0647 34.5791C38.0707 34.5766 38.076 34.574 38.0815 34.5719C38.0868 34.5688 38.0923 34.566 38.098 34.5637C38.1035 34.5609 38.1093 34.559 38.1146 34.556C38.1176 34.555 38.1204 34.5536 38.123 34.5519C38.1286 34.5499 38.1338 34.5475 38.1399 34.5449C38.1506 34.5389 38.1621 34.5342 38.1726 34.5292C38.1784 34.5268 38.1836 34.5241 38.1897 34.5218C38.1957 34.5195 38.2057 34.5139 38.2146 34.51C38.2199 34.5071 38.2254 34.5046 38.2311 34.5026C38.2364 34.4997 38.2418 34.4972 38.2474 34.495C38.2499 34.4931 38.2528 34.4917 38.2558 34.4907C38.2612 34.4879 38.2667 34.4855 38.2724 34.4835L38.2889 34.4755C38.3002 34.47 38.311 34.4656 38.3218 34.4601C38.3248 34.4589 38.3278 34.4575 38.3308 34.4559C38.3415 34.4505 38.3528 34.4458 38.3638 34.4406C38.3688 34.438 38.3748 34.4359 38.3801 34.4331C38.383 34.4318 38.386 34.4308 38.389 34.4298C38.3942 34.4268 38.3994 34.4241 38.4049 34.4218C38.4104 34.419 38.416 34.4165 38.4217 34.4144C38.4271 34.4115 38.4326 34.4089 38.4383 34.4067L38.4548 34.3989C38.4581 34.3978 38.4609 34.396 38.463 34.3951C38.4688 34.3928 38.4744 34.39 38.4798 34.3868C38.4909 34.3818 38.5019 34.3774 38.5132 34.3719C38.5215 34.3678 38.53 34.3645 38.5381 34.3603L38.5545 34.3527C38.5603 34.3497 38.5658 34.3477 38.5715 34.3447C38.5773 34.3418 38.5823 34.3403 38.5881 34.3375C38.5906 34.3361 38.593 34.3353 38.5958 34.3337L38.6126 34.3262C38.6179 34.3227 38.6239 34.3212 38.6292 34.3177C38.6344 34.3142 38.6399 34.3127 38.646 34.3107C38.6484 34.3089 38.6512 34.3076 38.6542 34.307C38.665 34.3012 38.6768 34.297 38.6875 34.2907C38.6931 34.2888 38.6983 34.2862 38.7041 34.2835C38.7099 34.2809 38.7151 34.2786 38.7209 34.2763C38.7235 34.2747 38.7262 34.2732 38.729 34.272C38.7345 34.2686 38.74 34.267 38.7458 34.2642C38.7516 34.2614 38.7565 34.2592 38.7623 34.2568C38.7681 34.2544 38.7732 34.2518 38.7787 34.2493C38.7817 34.2481 38.7846 34.2467 38.7873 34.245C38.7928 34.2427 38.7981 34.2405 38.8036 34.2377C38.8149 34.232 38.8261 34.2276 38.8369 34.2221L38.8534 34.2148C38.8619 34.2105 38.8703 34.2072 38.8785 34.203C38.884 34.2001 38.8897 34.198 38.8953 34.1956C38.9008 34.1932 38.9063 34.1901 38.9113 34.188C38.9141 34.1863 38.9171 34.1849 38.9201 34.1838C38.9251 34.1807 38.9309 34.1793 38.9367 34.176C38.9423 34.1737 38.9477 34.171 38.953 34.1681C38.9643 34.1626 38.9753 34.1587 38.9866 34.1531C38.9894 34.152 38.992 34.1505 38.9945 34.1488C39.0058 34.1439 39.0171 34.1397 39.0279 34.1345C39.0332 34.1314 39.0387 34.1286 39.0444 34.1261C39.0529 34.1218 39.0612 34.119 39.0694 34.1148C39.0749 34.1124 39.0806 34.1097 39.0862 34.1069C39.0917 34.1041 39.0969 34.1024 39.1024 34.0989C39.108 34.0955 39.1135 34.0945 39.1195 34.0917C39.122 34.09 39.1247 34.0886 39.1276 34.0877C39.1331 34.0848 39.1389 34.0832 39.1444 34.0799C39.1551 34.0749 39.1665 34.0703 39.1772 34.0645C39.1801 34.0635 39.1828 34.0622 39.1854 34.0606L39.2188 34.0463C39.2243 34.0433 39.2301 34.0408 39.2356 34.0378C39.2411 34.0348 39.2466 34.0328 39.2521 34.03C39.255 34.0289 39.2578 34.0276 39.2606 34.0262C39.2658 34.0237 39.2713 34.0215 39.2771 34.0187C39.2829 34.0159 39.2884 34.0141 39.2937 34.0107C39.2995 34.0086 39.3051 34.006 39.3105 34.003C39.3132 34.002 39.3157 34.0008 39.3182 33.9995C39.324 33.9966 39.3295 33.9942 39.3348 33.9921C39.3455 33.9866 39.3574 33.9821 39.3684 33.9758L39.3847 33.9694C39.3874 33.9678 39.3902 33.9663 39.3931 33.9651C39.3986 33.9622 39.4044 33.9601 39.4097 33.9575C39.4903 33.9175 39.5697 33.874 39.6478 33.827C42.0275 32.4298 42.6215 28.4482 41.0178 24.9393Z" fill="url(#paint7_linear_928_613)"/>
<path d="M39.349 25.7113C38.0133 22.7884 35.5743 21.1175 33.446 21.4507L35.1363 28.3361L30.8018 30.5993C30.8296 30.6629 30.8566 30.7275 30.8858 30.7919C32.49 34.3009 35.6848 36.0084 38.0211 34.6054C40.3574 33.2025 40.9532 29.2203 39.349 25.7113Z" fill="url(#paint8_linear_928_613)"/>
<path d="M34.0167 26.8583L34.0235 26.8549L32.3333 19.9692C31.8974 20.0367 31.4789 20.1884 31.101 20.4159C31.0992 20.417 31.0976 20.4182 31.096 20.4195H31.0943C31.0925 20.4203 31.0914 20.4222 31.0893 20.423C31.0873 20.4238 31.0886 20.4238 31.088 20.4238C31.0862 20.4247 31.0846 20.4258 31.083 20.4272L31.0817 20.428L31.0765 20.4311C31.076 20.4312 31.0755 20.4312 31.0751 20.4311C31.0735 20.4324 31.0719 20.4335 31.0702 20.4345C31.0694 20.4345 31.0693 20.4346 31.0688 20.4352C31.0671 20.4363 31.0654 20.4373 31.0635 20.4382L31.0624 20.4395C31.0606 20.4403 31.0589 20.4414 31.0574 20.4426C31.0566 20.4426 31.0565 20.4426 31.0555 20.4434C31.0537 20.4442 31.0521 20.4453 31.0505 20.4465L31.0497 20.4473C31.0476 20.4484 31.0456 20.4498 31.0439 20.4515H31.0431C31.0412 20.4524 31.0394 20.4535 31.0376 20.4547C31.0376 20.4549 31.0375 20.455 31.0375 20.4551C31.0374 20.4552 31.0373 20.4553 31.0372 20.4554C31.0371 20.4554 31.037 20.4555 31.0369 20.4555C31.0368 20.4556 31.0367 20.4555 31.0366 20.4555C31.0346 20.4564 31.0327 20.4575 31.0311 20.4589L31.0297 20.4597C31.0279 20.4607 31.0263 20.4618 31.0247 20.4631H31.0234C31.0216 20.4647 31.0197 20.4649 31.0183 20.4663C31.0178 20.4664 31.0174 20.4664 31.0169 20.4663C31.0152 20.4674 31.0135 20.4686 31.0119 20.4699H31.0106C31.009 20.4713 31.0072 20.4725 31.0053 20.4735H31.0045C31.0026 20.4748 31.0008 20.4761 30.999 20.4776H30.9977C30.9961 20.4788 30.9944 20.48 30.9927 20.4811C30.9925 20.4813 30.9923 20.4815 30.992 20.4817C30.9917 20.4818 30.9914 20.4819 30.9911 20.4819C30.9896 20.4827 30.9878 20.4845 30.9861 20.4853H30.9848C30.9832 20.4868 30.9815 20.4881 30.9795 20.4891H30.9786C30.9766 20.4901 30.9748 20.4915 30.9733 20.4932H30.972C30.9704 20.494 30.9685 20.4953 30.9665 20.4961C30.9645 20.4969 30.9657 20.4969 30.9654 20.4975C30.9636 20.4982 30.9619 20.4991 30.9604 20.5003C30.9601 20.5003 30.9598 20.5004 30.9596 20.5006C30.9593 20.5008 30.9592 20.5011 30.9591 20.5014C30.9572 20.5021 30.9554 20.503 30.9536 20.5041L30.9528 20.5048C30.9508 20.5061 30.9492 20.5074 30.9475 20.5082L30.9462 20.5091C30.9445 20.5104 30.9426 20.5115 30.9407 20.5124H30.9393C30.938 20.5139 30.9362 20.515 30.9344 20.5158L30.9334 20.5171C30.9315 20.5179 30.9296 20.5189 30.9279 20.5202H30.9265C30.9246 20.5213 30.923 20.5228 30.9216 20.5245H30.9205C30.9185 20.5254 30.9166 20.5266 30.915 20.5281H30.9137C30.9123 20.5295 30.9106 20.5306 30.9087 20.5323H30.9073C30.9057 20.5335 30.904 20.5345 30.9021 20.5353C30.9021 20.5362 30.9021 20.5362 30.9007 20.5362C30.8992 20.5375 30.8974 20.5386 30.8955 20.5394L30.8946 20.5402C30.8924 20.5416 30.8908 20.5428 30.8893 20.5436H30.888C30.8864 20.5457 30.8845 20.546 30.8825 20.5474H30.8814C30.8796 20.5485 30.8779 20.5498 30.8764 20.5511H30.8751C30.8735 20.5523 30.8717 20.5539 30.8701 20.555H30.8688C30.8668 20.5562 30.8648 20.5575 30.863 20.5589H30.8621C30.8606 20.5607 30.8587 20.5622 30.8566 20.5632C30.8548 20.5644 30.8529 20.5656 30.851 20.5666L30.8501 20.5679L30.8445 20.5708L30.8432 20.5716C30.8417 20.5729 30.84 20.574 30.8382 20.5749L30.8371 20.5757C30.8352 20.5765 30.8338 20.5779 30.8316 20.5787L30.8303 20.58C30.8287 20.58 30.8272 20.582 30.825 20.5831C30.8229 20.5845 30.8214 20.5859 30.8193 20.587H30.8185C30.8165 20.5883 30.8147 20.5897 30.813 20.5913H30.8117C30.8099 20.5923 30.8081 20.5934 30.8065 20.5946L30.8052 20.5954C30.8034 20.5965 30.8017 20.5978 30.8002 20.5993H30.7994C30.7972 20.6006 30.7952 20.6014 30.7936 20.6023H30.7922C30.7908 20.6039 30.7892 20.6052 30.7873 20.6061L30.7859 20.6068C30.7839 20.6081 30.7823 20.6089 30.7804 20.6103H30.7796C30.778 20.6118 30.7762 20.6132 30.7744 20.6145C30.7738 20.6142 30.7731 20.6142 30.7725 20.6145C30.771 20.6153 30.7694 20.6169 30.7675 20.6181H30.7666C30.765 20.6197 30.7631 20.621 30.761 20.6218H30.7603C30.7581 20.6233 30.7565 20.6241 30.7547 20.6255H30.7537C30.7521 20.6271 30.7502 20.6284 30.7482 20.6294H30.7473C30.7454 20.6304 30.7436 20.6316 30.7418 20.6329H30.7405C30.7389 20.6342 30.7371 20.6354 30.7352 20.6363C30.7352 20.6363 30.7345 20.6364 30.7339 20.6372C30.7322 20.6382 30.7305 20.6393 30.7289 20.6405H30.7277C30.7263 20.6421 30.7245 20.6433 30.7224 20.6439L30.7217 20.6447C30.7195 20.6456 30.7175 20.6468 30.7156 20.6482L30.7148 20.6489C30.713 20.6498 30.7112 20.651 30.7096 20.6524H30.7085C30.7063 20.6537 30.7048 20.6549 30.7027 20.656L30.7019 20.6571C30.6998 20.6576 30.6979 20.6586 30.6964 20.66C30.6962 20.6601 30.696 20.6602 30.6959 20.6602C30.6957 20.6602 30.6955 20.6601 30.6953 20.66C30.6933 20.661 30.6916 20.6625 30.6903 20.6643H30.6892L30.6835 20.6674C30.6814 20.6688 30.6797 20.67 30.6777 20.671H30.6769C30.6751 20.6723 30.6733 20.6735 30.6714 20.6746L30.6701 20.6753C30.6683 20.6764 30.6666 20.6776 30.6651 20.679H30.664C30.6621 20.6805 30.6601 20.6813 30.6585 20.6826H30.6571C30.6555 20.684 30.654 20.685 30.6521 20.6868H30.6511C30.6493 20.6876 30.6472 20.6897 30.6456 20.69L30.6444 20.6908C30.6428 20.6921 30.641 20.6933 30.6391 20.6942H30.6383C30.6361 20.6953 30.6343 20.697 30.6322 20.6978C30.6306 20.6992 30.6288 20.7003 30.6267 20.701H30.6254C30.6233 20.7027 30.6218 20.7034 30.6202 20.7048L30.6188 20.7056C30.6174 20.7069 30.6157 20.7079 30.6139 20.7084C30.6134 20.709 30.6129 20.7095 30.6122 20.7098L30.6072 20.7131H30.606C30.6043 20.7145 30.6024 20.7157 30.6004 20.7166C30.6004 20.7174 30.6004 20.7174 30.5995 20.7174C30.5985 20.7174 30.5962 20.72 30.5945 20.7208C30.5927 20.7216 30.5934 20.7208 30.5931 20.7216C30.5914 20.7226 30.5898 20.7237 30.5882 20.725C30.5882 20.725 30.5868 20.725 30.5863 20.7258C30.5844 20.7266 30.5827 20.7279 30.5813 20.7294H30.5783C30.5763 20.7306 30.5743 20.7321 30.5726 20.7337C30.5721 20.7335 30.5716 20.7335 30.5712 20.7337C30.5694 20.7344 30.5677 20.7355 30.5663 20.7368C30.566 20.7368 30.5657 20.7369 30.5655 20.737C30.5653 20.7372 30.5652 20.7374 30.5652 20.7376C30.5632 20.7384 30.5613 20.7394 30.5596 20.7407H30.5588L30.5535 20.745H30.5522C30.5503 20.7465 30.5484 20.7473 30.5469 20.7486H30.5455C30.5439 20.7501 30.5423 20.7515 30.5406 20.7528C30.5398 20.7528 30.5398 20.7528 30.5392 20.7528C30.5376 20.7541 30.5359 20.7551 30.534 20.7559H30.5332C30.531 20.7571 30.529 20.7586 30.5271 20.7602H30.526L30.5214 20.7638H30.52C30.5182 20.7649 30.5164 20.7661 30.5147 20.7674H30.5136C30.5121 20.7689 30.5103 20.77 30.5083 20.7707C30.5083 20.7716 30.5072 20.7716 30.5064 20.7719C30.505 20.7732 30.5033 20.7742 30.5015 20.7748L30.5001 20.7762C30.4985 20.777 30.497 20.7782 30.4951 20.779L30.4941 20.7798C30.4926 20.7815 30.4907 20.7826 30.4885 20.7832L30.4878 20.784C30.4857 20.7849 30.4838 20.7861 30.482 20.7875V20.7883C30.48 20.789 30.4783 20.7908 30.4767 20.7911C30.4751 20.7914 30.4754 20.7919 30.475 20.7925C30.473 20.793 30.4712 20.7942 30.47 20.7958H30.4686C30.4671 20.7972 30.4653 20.7985 30.4634 20.7995H30.4626C30.4606 20.8006 30.4587 20.8021 30.4571 20.8038H30.4557L30.4505 20.8068H30.4497C30.4475 20.8087 30.4463 20.8094 30.4442 20.811H30.4428C30.4414 20.8118 30.4397 20.8134 30.4379 20.8146C30.436 20.8159 30.4365 20.8146 30.4364 20.8146C30.4362 20.8146 30.4328 20.8168 30.4312 20.8184L30.4255 20.822H30.4244C30.4223 20.8239 30.4206 20.8247 30.4192 20.8262H30.4178C30.4157 20.8273 30.4145 20.8283 30.4123 20.8294C30.4102 20.8305 30.4123 20.8294 30.4112 20.8294C30.4101 20.8294 30.4079 20.8317 30.4063 20.8328C30.4047 20.8339 30.4052 20.8336 30.4049 20.8339C30.4034 20.835 30.4017 20.836 30.3999 20.8367C30.3999 20.8367 30.3991 20.8367 30.3983 20.8367C30.3968 20.8385 30.395 20.8399 30.3928 20.8409C30.3928 20.8409 30.3928 20.8408 30.392 20.8422C30.3901 20.8428 30.3884 20.8436 30.3867 20.8446L30.3858 20.8454C30.384 20.8467 30.3822 20.8478 30.3803 20.8488L30.3792 20.8496C30.3774 20.8496 30.3757 20.8521 30.3737 20.853H30.3723C30.3702 20.8543 30.3692 20.8562 30.3672 20.8565H30.3663C30.3646 20.8579 30.3627 20.8591 30.3608 20.8602L30.3595 20.861C30.3578 20.8623 30.356 20.8634 30.3542 20.8644L30.3532 20.8652C30.3514 20.8665 30.3495 20.8668 30.3479 20.8688H30.3467C30.3451 20.8702 30.3434 20.8713 30.3416 20.8723C30.3416 20.8723 30.3404 20.8723 30.3401 20.8731C30.3383 20.874 30.3366 20.8752 30.3351 20.8765H30.3338C30.3323 20.8781 30.3304 20.8795 30.3283 20.8804H30.3274C30.3254 20.8813 30.3237 20.8825 30.3223 20.8841H30.3209C30.3193 20.8855 30.3176 20.8868 30.3159 20.8879C30.3157 20.8878 30.3155 20.8877 30.3152 20.8877C30.315 20.8877 30.3148 20.8878 30.3146 20.8879C30.3126 20.889 30.3107 20.8902 30.3088 20.8916H30.3079C30.3061 20.8925 30.3044 20.8935 30.3026 20.8946H30.3012L30.2963 20.8989H30.2955L30.2902 20.902C30.2899 20.9022 30.2896 20.9022 30.2893 20.9022C30.289 20.9022 30.2886 20.9022 30.2883 20.902C30.2869 20.9035 30.2853 20.9048 30.2834 20.9057H30.2823C30.2806 20.9071 30.2787 20.9084 30.2768 20.9094H30.276L30.2705 20.9136C30.2702 20.9136 30.2699 20.9137 30.2697 20.9138C30.2694 20.914 30.2693 20.9142 30.2691 20.9144C30.2674 20.9144 30.266 20.9164 30.2639 20.9172L30.2626 20.918C30.2612 20.9195 30.2594 20.9206 30.2575 20.9214L30.2563 20.9227C30.2542 20.9227 30.2531 20.9249 30.2511 20.9252C30.2491 20.9254 30.2503 20.9262 30.2498 20.9262C30.2481 20.9274 30.2462 20.9285 30.2443 20.9293C30.2425 20.9307 30.2407 20.9319 30.2388 20.9329C30.2384 20.933 30.2381 20.933 30.2378 20.9332C30.2376 20.9333 30.2373 20.9335 30.2371 20.9338C30.2357 20.9351 30.234 20.9361 30.2321 20.9367C30.2313 20.9367 30.2308 20.9367 30.2308 20.9379C30.2289 20.9386 30.2271 20.9398 30.2258 20.9414H30.2242C30.2225 20.9426 30.2208 20.9439 30.2193 20.9453H30.218C30.2161 20.9464 30.2142 20.9476 30.2125 20.949H30.2109C30.2095 20.9506 30.2078 20.952 30.2059 20.9531H30.2051C30.2032 20.9544 30.2014 20.9557 30.1996 20.9572H30.1985L30.1936 20.9608C30.193 20.9606 30.1923 20.9606 30.1917 20.9608C30.1902 20.9621 30.1883 20.9624 30.1867 20.9644H30.1859C30.1834 20.9658 30.1823 20.9674 30.1804 20.9679C30.1785 20.9684 30.1796 20.9686 30.1795 20.9691C30.1775 20.97 30.1756 20.9711 30.1738 20.9723C30.1736 20.9724 30.1733 20.9725 30.1731 20.9726C30.1729 20.9727 30.1727 20.9729 30.1726 20.9732C30.1709 20.9741 30.1692 20.9751 30.1676 20.9762H30.1665L30.161 20.9804H30.1597L30.1547 20.9836H30.1531C30.1513 20.9848 30.1502 20.9859 30.1481 20.9873L30.1468 20.9881C30.145 20.9892 30.1432 20.9901 30.1413 20.9909L30.1405 20.9923C30.1384 20.9928 30.1366 20.994 30.1352 20.9957C30.1331 20.9967 30.131 20.9979 30.1292 20.9994L30.1283 21.0002C30.1263 21.0009 30.1245 21.002 30.1231 21.0035H30.1218C30.1202 21.0051 30.1183 21.0063 30.1163 21.007C30.1163 21.0077 30.1163 21.008 30.1149 21.008C30.1136 21.008 30.1118 21.0101 30.11 21.0115C30.1094 21.0113 30.1088 21.0113 30.1083 21.0115C30.1071 21.0124 30.1055 21.0138 30.1033 21.0151H30.1025C30.1008 21.0165 30.0989 21.0178 30.097 21.019H30.0961C30.094 21.0199 30.092 21.0212 30.0905 21.0229H30.0892C30.0876 21.0237 30.086 21.0256 30.0843 21.0267H30.0832C30.0811 21.0273 30.0792 21.0284 30.0777 21.03H30.0769C30.0751 21.0316 30.0732 21.0329 30.0711 21.0339H30.07C30.0684 21.0353 30.0669 21.0361 30.0648 21.0377H30.0634C30.0619 21.0389 30.06 21.0397 30.0584 21.041H30.0571C30.0554 21.0423 30.0537 21.0436 30.0519 21.0447C30.0517 21.0446 30.0515 21.0445 30.0513 21.0445C30.0511 21.0445 30.0509 21.0446 30.0507 21.0447C30.049 21.0462 30.0472 21.0474 30.0452 21.0483H30.044C30.0423 21.0495 30.0406 21.0507 30.0391 21.0521H30.0377C30.0356 21.0521 30.0344 21.0544 30.0322 21.0552L30.0314 21.0562C30.0297 21.0574 30.0278 21.0584 30.0259 21.0593L30.0248 21.0601C30.0231 21.061 30.0215 21.062 30.0199 21.0631L30.0185 21.064C30.0165 21.0651 30.0147 21.0664 30.013 21.0678L30.0121 21.0686C30.0103 21.0693 30.0086 21.0702 30.0069 21.0712C30.0069 21.0712 30.006 21.0722 30.0052 21.0722C30.0035 21.0735 30.0018 21.0746 30 21.0756C29.998 21.0768 29.9961 21.0783 29.9945 21.0799H29.9934C29.9912 21.0812 29.9895 21.0826 29.9878 21.0834L29.9865 21.0842C29.9849 21.085 29.9829 21.0868 29.9813 21.0876H29.9799C29.9784 21.0891 29.9768 21.0904 29.975 21.0915H29.9736C29.9718 21.0927 29.97 21.094 29.9683 21.0955H29.9673C29.9656 21.0967 29.9642 21.0975 29.9622 21.0991H29.9609C29.9587 21.1005 29.9571 21.1008 29.9556 21.1028H29.9545C29.9529 21.1041 29.9511 21.1053 29.9492 21.1063L29.9474 21.1071C29.9459 21.1084 29.9442 21.1095 29.9424 21.1104H29.9416C29.9396 21.1126 29.9375 21.1135 29.9364 21.1146H29.935C29.9336 21.1164 29.9317 21.1177 29.9295 21.1182C29.9295 21.1182 29.9287 21.1182 29.9286 21.1193C29.9266 21.1203 29.9247 21.1214 29.9229 21.1225V21.1233C29.921 21.1243 29.9191 21.1254 29.9174 21.1267L29.9161 21.1275C29.9147 21.1288 29.9129 21.1297 29.9111 21.1303C29.9106 21.1305 29.91 21.1305 29.9095 21.1303L29.9045 21.1345H29.9037C29.9015 21.1358 29.9001 21.1369 29.8979 21.138L29.8971 21.1388L29.8916 21.1419H29.8908C29.8892 21.1435 29.8872 21.1446 29.885 21.1452C29.885 21.1452 29.885 21.146 29.8839 21.146C29.8829 21.146 29.8803 21.1485 29.8788 21.1498C29.8773 21.1512 29.878 21.1498 29.8775 21.1506C29.8756 21.1514 29.8739 21.1525 29.8725 21.154H29.8709L29.8659 21.1579H29.8646C29.8629 21.159 29.8612 21.1608 29.8596 21.1621H29.8583C29.8564 21.1631 29.8546 21.1644 29.853 21.1658C29.8527 21.1658 29.8525 21.1659 29.8522 21.166C29.852 21.1662 29.8518 21.1664 29.8517 21.1666C29.8498 21.1676 29.8479 21.1687 29.8462 21.17H29.8453C29.8436 21.1712 29.8419 21.1723 29.8401 21.1733C29.8401 21.1733 29.8392 21.1733 29.8389 21.1741C29.8368 21.1748 29.8349 21.176 29.8334 21.1775H29.8321C29.8305 21.1787 29.8288 21.1803 29.8271 21.1814H29.826C29.8242 21.1828 29.8224 21.1839 29.8204 21.185H29.8191C29.8175 21.1864 29.816 21.1885 29.8139 21.1892H29.8131C29.8111 21.1905 29.8092 21.1922 29.8076 21.1932L29.8062 21.1941C27.512 22.5711 26.8988 26.4337 28.3945 29.8949L32.7287 27.6324L32.7353 27.6288L32.742 27.6252L32.7486 27.6209L32.7552 27.6167L32.762 27.6136V27.6125L32.7686 27.6096V27.6086L32.7749 27.6054V27.6046L32.7815 27.6012V27.6004L32.7882 27.5971V27.5962L32.7948 27.5928L32.8017 27.5887L32.8083 27.5851L32.8146 27.5823V27.5815L32.8212 27.5774V27.5767L32.8279 27.5738L32.8345 27.5699V27.5691L32.8411 27.5657L32.8477 27.5617H32.8469L32.854 27.5578L32.8611 27.5536L32.8677 27.5499L32.8747 27.5465V27.5457L32.8813 27.5426V27.5415L32.8882 27.5383L32.8945 27.5348V27.534L32.9015 27.5309V27.5298L32.9084 27.5267V27.5259L32.9145 27.5224L32.9212 27.5187L32.9278 27.5145L32.9346 27.5106L32.9413 27.5077V27.5068L32.9476 27.5029L32.9539 27.4996L32.9609 27.4957L32.9675 27.4922L32.974 27.488L32.9807 27.4846L32.9872 27.4806L32.994 27.4773V27.4759L33.0002 27.4728V27.472L33.0068 27.4688V27.4681L33.0134 27.4649L33.0203 27.4615V27.4607L33.0271 27.4576V27.4565L33.0338 27.4533V27.4525L33.0401 27.4486L33.0465 27.4447L33.0528 27.4414L33.0594 27.437L33.0663 27.4329L33.0726 27.4293L33.0789 27.4254L33.0851 27.4216L33.0923 27.4182L33.0983 27.4141L33.1051 27.4111L33.1123 27.4069L33.1186 27.4041V27.4033L33.1254 27.3997L33.1319 27.3962V27.3954L33.1385 27.3923V27.3912L33.145 27.3881V27.3873L33.1514 27.384L33.158 27.3802L33.1645 27.3766L33.1712 27.3732L33.1783 27.37V27.3692L33.1843 27.3653L33.1907 27.3619L33.1975 27.3576L33.2035 27.3536L33.2104 27.3497L33.2165 27.3468V27.346L33.2232 27.342L33.2298 27.339V27.3382L33.2364 27.3349V27.3341L33.2429 27.3307L33.2493 27.327V27.326L33.2558 27.3231V27.3222L33.2624 27.3186L33.269 27.3155V27.3145L33.2753 27.3107V27.3099L33.2822 27.3076V27.3065L33.2882 27.3034L33.2951 27.2996L33.3017 27.2959L33.3084 27.2923L33.3153 27.2884L33.3218 27.2843L33.3285 27.2804L33.335 27.2765L33.3412 27.273L33.3483 27.2689L33.3476 27.2681L33.3541 27.2652V27.2644L33.3607 27.2608V27.2597L33.3676 27.2568L33.3741 27.2526L33.381 27.2498V27.249L33.3876 27.2456V27.2448L33.3943 27.2416V27.2405L33.4015 27.2374L33.4075 27.2338L33.4147 27.23L33.4212 27.2259L33.4279 27.2222L33.4345 27.2186L33.4414 27.2148L33.448 27.2109L33.4543 27.2076L33.4609 27.2033L33.4674 27.1991L33.4742 27.1957V27.1949L33.4808 27.1916V27.1908L33.4871 27.1873L33.4932 27.1843V27.1835L33.5 27.1799L33.5066 27.1771V27.1757L33.5128 27.1725V27.1717L33.5194 27.1686L33.5257 27.1649L33.5328 27.1612L33.5394 27.1574L33.546 27.1538L33.5531 27.1507V27.1499L33.5598 27.1464L33.5664 27.1427H33.5656L33.5727 27.1394L33.5788 27.1358L33.5857 27.132L33.5928 27.1281L33.5993 27.1247V27.1239L33.6059 27.1204V27.1196L33.6125 27.1163V27.1155L33.6189 27.1132V27.1118L33.6252 27.1085V27.1074L33.632 27.1042L33.6383 27.1005L33.6447 27.0972L33.6511 27.0934L33.6579 27.0898L33.6646 27.0862L33.6714 27.0825L33.678 27.0788L33.6845 27.0754V27.0746L33.6912 27.0715L33.6978 27.0679L33.7046 27.0641V27.0633L33.7112 27.0599V27.0591L33.7175 27.0558V27.055L33.7241 27.0516V27.0508L33.7307 27.0476L33.7372 27.0437V27.0429L33.7443 27.0399V27.0387L33.7509 27.0357V27.0349L33.7575 27.0316L33.7643 27.0279V27.0269L33.7704 27.0238L33.7771 27.0195L33.7837 27.0164L33.79 27.0127L33.7963 27.0093V27.0086L33.8032 27.0053L33.8098 27.0017L33.8161 26.9981L33.823 26.9938L33.8297 26.9904V26.9896L33.8362 26.9863V26.9855L33.8434 26.9821V26.9813L33.8502 26.9778V26.977L33.8568 26.9747V26.9733L33.8632 26.97V26.9692L33.8696 26.9657L33.8764 26.9621V26.9613L33.8833 26.9579V26.9571L33.8893 26.9537V26.9529L33.8962 26.9497L33.9028 26.9461L33.909 26.9427V26.9419L33.9155 26.9387V26.9377L33.9219 26.9348L33.9285 26.9311V26.9301L33.935 26.9268L33.9417 26.9231L33.9484 26.9194L33.9548 26.9164V26.9155L33.9617 26.9121L33.9685 26.9086V26.9078L33.9757 26.9049V26.9036L33.9825 26.9008V26.9L33.9891 26.8964L33.9961 26.8926L34.0024 26.8892V26.8884L34.009 26.8849V26.8842L34.0161 26.8807V26.8799L34.0225 26.8768L34.029 26.8735V26.8721L34.0357 26.8692L34.0415 26.8654L34.0482 26.862L34.0167 26.8583Z" fill="#F7830F"/>
<path d="M31.0354 20.7837C30.5995 20.8517 30.1809 21.0036 29.8028 21.231C27.5086 22.608 26.8954 26.4706 28.3911 29.9318L32.7253 27.6693L31.0354 20.7837Z" fill="#FFA709"/>
<path d="M43.8579 19.6201C43.7784 19.6202 43.6996 19.6046 43.6261 19.5741L35.5552 16.2008C35.482 16.1706 35.4154 16.1262 35.3593 16.0702C35.3033 16.0142 35.2588 15.9476 35.2286 15.8744C35.1983 15.8011 35.1827 15.7226 35.1829 15.6434C35.183 15.5641 35.1988 15.4857 35.2293 15.4125C35.2599 15.3394 35.3045 15.273 35.3608 15.2172C35.417 15.1613 35.4838 15.1172 35.5571 15.0872C35.6305 15.0573 35.709 15.042 35.7883 15.0425C35.8675 15.0429 35.9459 15.0591 36.0189 15.0899L44.0904 18.4623C44.2188 18.516 44.3245 18.6125 44.3898 18.7354C44.4551 18.8583 44.4758 19 44.4484 19.1364C44.421 19.2728 44.3472 19.3955 44.2396 19.4837C44.132 19.5719 43.9971 19.6201 43.8579 19.6201Z" fill="url(#paint9_linear_928_613)"/>
<path d="M32.2693 14.7775C32.1897 14.7777 32.1108 14.7619 32.0373 14.7311L28.6358 13.3092C28.4895 13.2468 28.3739 13.1291 28.314 12.9818C28.2542 12.8345 28.2551 12.6694 28.3164 12.5227C28.3778 12.376 28.4946 12.2596 28.6415 12.1987C28.7884 12.1378 28.9534 12.1375 29.1006 12.1978L32.5021 13.6197C32.6305 13.6733 32.7365 13.7698 32.8019 13.8927C32.8673 14.0156 32.888 14.1573 32.8606 14.2938C32.8333 14.4303 32.7595 14.5531 32.6517 14.6413C32.544 14.7294 32.4091 14.7776 32.2699 14.7775H32.2693Z" fill="url(#paint10_linear_928_613)"/>
<path d="M68.0458 52.8035L26.9886 48.9995L26.6525 47.769L68.0448 18.0112L68.0458 52.8035Z" fill="url(#paint11_linear_928_613)"/>
<path d="M23.9686 0.111816L67.8221 18.0111L26.43 47.9926L25.5348 46.65L23.9686 0.111816Z" fill="url(#paint12_linear_928_613)"/>
<path d="M24.0808 0L25.8704 46.9859L24.5281 46.7624L24.0809 34.6804L24.0808 0Z" fill="url(#paint13_linear_928_613)"/>
<path d="M26.9904 48.4504C26.4985 46.9023 25.1703 46.0872 23.9993 46.595L23.9963 46.5936L23.9694 46.6071C23.9589 46.6117 23.9482 46.6145 23.9378 46.6194C23.9187 46.6287 23.9009 46.6411 23.8824 46.6502L22.8004 47.1903L23.1057 47.3355C22.5267 48.1391 22.3354 49.3565 22.6964 50.4943C23.1969 52.0694 24.5634 52.8883 25.7495 52.3248C26.9356 51.7613 27.4903 50.0253 26.9904 48.4504Z" fill="url(#paint14_linear_928_613)"/>
<path d="M25.957 48.9668C26.457 50.5421 25.9011 52.2767 24.7155 52.8416C23.53 53.4066 22.1633 52.5862 21.6629 51.0109C21.1625 49.4356 21.7183 47.7011 22.9039 47.1368C24.0894 46.5726 25.4559 47.3919 25.957 48.9668Z" fill="url(#paint15_linear_928_613)"/>
<path d="M30.9279 53.9236L29.8057 50.4452L6.16074 49.1533L0.643191 49.1284L0.0202932 52.6127C-0.0330787 52.9111 0.0196018 53.2188 0.169182 53.4824C0.318762 53.7461 0.555828 53.9491 0.839346 54.0564L16.001 59.8002C16.57 60.0153 17.1975 60.0178 17.7683 59.8073L23.3495 57.746L22.9894 56.8452C22.9713 56.8 22.9626 56.7516 22.9637 56.703C22.9648 56.6543 22.9757 56.6064 22.9958 56.562C23.0159 56.5177 23.0447 56.4779 23.0806 56.445C23.1165 56.4121 23.1586 56.3867 23.2045 56.3705L26.8907 55.0798C26.9439 55.0617 26.9929 55.0332 27.0351 54.9961C27.0773 54.959 27.1117 54.9139 27.1364 54.8635C27.1612 54.813 27.1758 54.7583 27.1793 54.7022C27.1829 54.6462 27.1754 54.5899 27.1572 54.5368C27.139 54.4836 27.1106 54.4346 27.0735 54.3924C27.0364 54.3503 26.9913 54.3158 26.9409 54.2911C26.8905 54.2663 26.8357 54.2518 26.7796 54.2482C26.7235 54.2446 26.6673 54.2522 26.6142 54.2703L23.6717 55.2508C23.5644 55.2865 23.4474 55.2784 23.346 55.2284C23.2446 55.1784 23.1669 55.0905 23.1298 54.9837C23.0927 54.8769 23.0991 54.7598 23.1477 54.6577C23.1963 54.5556 23.2831 54.4767 23.3894 54.4381L28.1385 52.7286C28.1926 52.7091 28.25 52.7006 28.3075 52.7037C28.3649 52.7067 28.4211 52.7212 28.4728 52.7464C28.5245 52.7715 28.5706 52.8068 28.6084 52.85C28.6463 52.8933 28.6751 52.9437 28.6931 52.9983L29.5158 55.4669L30.321 55.1694C30.5633 55.0801 30.7618 54.9006 30.8749 54.6684C30.988 54.4363 31.007 54.1694 30.9279 53.9236Z" fill="url(#paint16_linear_928_613)"/>
<path d="M28.1402 52.7289L23.391 54.4384C23.2847 54.477 23.1979 54.5558 23.1493 54.6579C23.1008 54.76 23.0943 54.8772 23.1314 54.984C23.1685 55.0908 23.2462 55.1787 23.3476 55.2287C23.449 55.2787 23.566 55.2867 23.6733 55.2511L26.6158 54.2706C26.669 54.2525 26.7252 54.2449 26.7812 54.2485C26.8373 54.2521 26.8921 54.2666 26.9425 54.2914C26.993 54.3161 27.038 54.3506 27.0751 54.3927C27.1123 54.4349 27.1407 54.4839 27.1588 54.5371C27.177 54.5902 27.1845 54.6465 27.181 54.7025C27.1774 54.7586 27.1628 54.8134 27.1381 54.8638C27.1133 54.9142 27.0789 54.9592 27.0367 54.9964C26.9946 55.0335 26.9455 55.062 26.8924 55.0801L23.2061 56.3708C23.1602 56.387 23.1181 56.4124 23.0822 56.4453C23.0464 56.4782 23.0175 56.518 22.9974 56.5623C22.9773 56.6067 22.9664 56.6546 22.9653 56.7033C22.9642 56.7519 22.9729 56.8003 22.991 56.8455L23.3512 57.7463L29.5184 55.4678L28.6957 52.9993C28.6778 52.9445 28.649 52.894 28.6111 52.8505C28.5732 52.8071 28.527 52.7717 28.4752 52.7465C28.4234 52.7213 28.367 52.7067 28.3094 52.7037C28.2519 52.7007 28.1943 52.7093 28.1402 52.7289Z" fill="url(#paint17_linear_928_613)"/>
<path d="M28.1402 52.7289L23.391 54.4384C23.2847 54.477 23.1979 54.5558 23.1493 54.6579C23.1008 54.76 23.0943 54.8772 23.1314 54.984C23.1685 55.0908 23.2462 55.1787 23.3476 55.2287C23.449 55.2787 23.566 55.2867 23.6733 55.2511L26.6158 54.2706C26.669 54.2525 26.7252 54.2449 26.7812 54.2485C26.8373 54.2521 26.8921 54.2666 26.9425 54.2914C26.993 54.3161 27.038 54.3506 27.0751 54.3927C27.1123 54.4349 27.1407 54.4839 27.1588 54.5371C27.177 54.5902 27.1845 54.6465 27.181 54.7025C27.1774 54.7586 27.1628 54.8134 27.1381 54.8638C27.1133 54.9142 27.0789 54.9592 27.0367 54.9964C26.9946 55.0335 26.9455 55.062 26.8924 55.0801L23.2061 56.3708C23.1602 56.387 23.1181 56.4124 23.0822 56.4453C23.0464 56.4782 23.0175 56.518 22.9974 56.5623C22.9773 56.6067 22.9664 56.6546 22.9653 56.7033C22.9642 56.7519 22.9729 56.8003 22.991 56.8455L23.3512 57.7463L29.5184 55.4678L28.6957 52.9993C28.6778 52.9445 28.649 52.894 28.6111 52.8505C28.5732 52.8071 28.527 52.7717 28.4752 52.7465C28.4234 52.7213 28.367 52.7067 28.3094 52.7037C28.2519 52.7007 28.1943 52.7093 28.1402 52.7289Z" fill="url(#paint18_linear_928_613)"/>
<path d="M1.11468 48.5429L12.5964 44.535C13.1072 44.3563 13.6639 44.3589 14.173 44.5423L29.3983 50.0218C29.5184 50.0649 29.6221 50.1442 29.6953 50.2488C29.7684 50.3534 29.8074 50.4781 29.8067 50.6057C29.8061 50.7333 29.7659 50.8576 29.6917 50.9614C29.6176 51.0653 29.513 51.1436 29.3925 51.1855L17.3527 55.3886C17.0411 55.4976 16.7015 55.496 16.3909 55.3841L1.10768 49.8849C0.969187 49.8351 0.84954 49.7436 0.765201 49.623C0.680861 49.5024 0.635962 49.3586 0.636728 49.2114C0.637495 49.0642 0.683876 48.9209 0.769468 48.8012C0.85506 48.6815 0.975667 48.5912 1.11468 48.5429Z" fill="url(#paint19_linear_928_613)"/>
<defs>
<linearGradient id="paint0_linear_928_613" x1="48.2527" y1="3.21414" x2="27.5686" y2="9.86019" gradientUnits="userSpaceOnUse">
<stop stop-color="#33454F"/>
<stop offset="1" stop-color="#29383F"/>
</linearGradient>
<linearGradient id="paint1_linear_928_613" x1="52.0361" y1="3.49831" x2="33.8527" y2="55.3983" gradientUnits="userSpaceOnUse">
<stop stop-color="#33454F"/>
<stop offset="1" stop-color="#29383F"/>
</linearGradient>
<linearGradient id="paint2_linear_928_613" x1="44.0761" y1="2.87194" x2="41.0193" y2="59.5699" gradientUnits="userSpaceOnUse">
<stop stop-color="#33454F"/>
<stop offset="1" stop-color="#29383F"/>
</linearGradient>
<linearGradient id="paint3_linear_928_613" x1="37.497" y1="-0.634539" x2="68.8838" y2="36.6159" gradientUnits="userSpaceOnUse">
<stop stop-color="#D5D5D4"/>
<stop offset="1" stop-color="#BABABA"/>
</linearGradient>
<linearGradient id="paint4_linear_928_613" x1="47.6619" y1="14.0233" x2="40.7739" y2="72.4562" gradientUnits="userSpaceOnUse">
<stop stop-color="#FEFEFE"/>
<stop offset="1" stop-color="#D3DEED"/>
</linearGradient>
<linearGradient id="paint5_linear_928_613" x1="55.4825" y1="-0.479821" x2="55.4825" y2="8.52392" gradientUnits="userSpaceOnUse">
<stop stop-color="#D84A4A"/>
<stop offset="1" stop-color="#C14040"/>
</linearGradient>
<linearGradient id="paint6_linear_928_613" x1="55.1934" y1="13.0616" x2="45.5756" y2="16.4012" gradientUnits="userSpaceOnUse">
<stop stop-color="#D84A4A"/>
<stop offset="1" stop-color="#C14040"/>
</linearGradient>
<linearGradient id="paint7_linear_928_613" x1="28.6281" y1="145.23" x2="34.9014" y2="132.011" gradientUnits="userSpaceOnUse">
<stop stop-color="#D84A4A"/>
<stop offset="1" stop-color="#C14040"/>
</linearGradient>
<linearGradient id="paint8_linear_928_613" x1="36.0172" y1="24.2146" x2="33.4571" y2="39.4039" gradientUnits="userSpaceOnUse">
<stop stop-color="#D84A4A"/>
<stop offset="1" stop-color="#C14040"/>
</linearGradient>
<linearGradient id="paint9_linear_928_613" x1="48.7648" y1="20.8743" x2="33.6251" y2="-3.76551" gradientUnits="userSpaceOnUse">
<stop stop-color="#4D5B64"/>
<stop offset="1" stop-color="#808E97"/>
</linearGradient>
<linearGradient id="paint10_linear_928_613" x1="48.8159" y1="20.6987" x2="28.8022" y2="-3.70364" gradientUnits="userSpaceOnUse">
<stop stop-color="#4D5B64"/>
<stop offset="1" stop-color="#808E97"/>
</linearGradient>
<linearGradient id="paint11_linear_928_613" x1="56.2487" y1="40.8002" x2="12.0926" y2="69.2053" gradientUnits="userSpaceOnUse">
<stop stop-color="#FEFEFE" stop-opacity="0"/>
<stop offset="0.756" stop-color="#DDE6F1"/>
<stop offset="1" stop-color="#D3DEED"/>
</linearGradient>
<linearGradient id="paint12_linear_928_613" x1="41.4223" y1="25.6323" x2="27.9843" y2="67.3653" gradientUnits="userSpaceOnUse">
<stop stop-color="#FEFEFE" stop-opacity="0"/>
<stop offset="0.756" stop-color="#DDE6F1"/>
<stop offset="1" stop-color="#D3DEED"/>
</linearGradient>
<linearGradient id="paint13_linear_928_613" x1="24.9756" y1="31.0107" x2="24.9756" y2="53.141" gradientUnits="userSpaceOnUse">
<stop stop-color="#FEFEFE" stop-opacity="0"/>
<stop offset="0.756" stop-color="#DDE6F1"/>
<stop offset="1" stop-color="#D3DEED"/>
</linearGradient>
<linearGradient id="paint14_linear_928_613" x1="23.8695" y1="53.7932" x2="24.6569" y2="51.6297" gradientUnits="userSpaceOnUse">
<stop stop-color="#2C1831"/>
<stop offset="1" stop-color="#5B3568"/>
</linearGradient>
<linearGradient id="paint15_linear_928_613" x1="23.8425" y1="49.6135" x2="23.1073" y2="54.8882" gradientUnits="userSpaceOnUse">
<stop stop-color="#2C1831"/>
<stop offset="1" stop-color="#5B3568"/>
</linearGradient>
<linearGradient id="paint16_linear_928_613" x1="18.8644" y1="54.5459" x2="13.9392" y2="54.5459" gradientUnits="userSpaceOnUse">
<stop stop-color="#2C1831"/>
<stop offset="1" stop-color="#5B3568"/>
</linearGradient>
<linearGradient id="paint17_linear_928_613" x1="15.5273" y1="52.6426" x2="19.1661" y2="54.1841" gradientUnits="userSpaceOnUse">
<stop stop-color="#4DDBB6"/>
<stop offset="1" stop-color="#3CBC97"/>
</linearGradient>
<linearGradient id="paint18_linear_928_613" x1="26.4515" y1="58.4978" x2="26.1599" y2="52.8945" gradientUnits="userSpaceOnUse">
<stop stop-color="#FEFEFE"/>
<stop offset="1" stop-color="#D3DEED"/>
</linearGradient>
<linearGradient id="paint19_linear_928_613" x1="-2.71784" y1="68.937" x2="-1.38875" y2="59.1129" gradientUnits="userSpaceOnUse">
<stop stop-color="#2C1831"/>
<stop offset="1" stop-color="#5B3568"/>
</linearGradient>
</defs>
</svg>
