<svg width="68" height="72" viewBox="0 0 68 72" fill="none" xmlns="http://www.w3.org/2000/svg">
<path d="M38.2506 30.1084L4.03612 16.6496C3.93148 16.6089 3.81919 16.5918 3.7072 16.5994C3.59521 16.607 3.48627 16.6392 3.3881 16.6937L1.47705 17.9065L2.58682 18.5439L3.03024 18.3104L2.97653 29.6485C2.97501 29.9354 3.06052 30.2159 3.22175 30.4532C3.38298 30.6905 3.61236 30.8733 3.87962 30.9775L37.017 44.081L36.3526 44.3187L36.7956 45.6363L38.6489 44.4363C39.0132 44.2515 39.1534 44.0464 39.1534 43.7046V31.4373C39.1547 31.1506 39.0691 30.8701 38.908 30.6329C38.7469 30.3957 38.5177 30.2128 38.2506 30.1084Z" fill="#FF7F0B"/>
<path d="M2.26204 17.8019L36.4761 31.2594C36.7433 31.3643 36.9725 31.5476 37.1337 31.7851C37.2949 32.0226 37.3805 32.3033 37.3793 32.5903V44.8556C37.3788 44.9822 37.3476 45.1069 37.2885 45.2189C37.2294 45.331 37.1441 45.4271 37.0399 45.4991C36.9356 45.571 36.8155 45.6168 36.6898 45.6323C36.5641 45.6479 36.4365 45.6328 36.3178 45.5885L2.10458 32.13C1.83731 32.0258 1.60793 31.843 1.44667 31.6057C1.28541 31.3685 1.19986 31.0879 1.20131 30.801V18.5338C1.20183 18.4072 1.23297 18.2826 1.29204 18.1707C1.3511 18.0587 1.43637 17.9627 1.54056 17.8908C1.64474 17.8189 1.76476 17.7733 1.89038 17.7578C2.01601 17.7424 2.14353 17.7575 2.26204 17.8019Z" fill="#FFA709"/>
<path d="M31.1716 6.43179L15.0202 0.0517488C14.9155 0.0111419 14.8031 -0.00589782 14.691 0.00180165C14.5789 0.00950111 14.4699 0.0417671 14.3717 0.0963165V0.0948636L12.4602 1.30836L13.569 1.94479L14.0136 1.71237L13.9592 13.0504C13.9579 13.3372 14.0434 13.6177 14.2045 13.855C14.3657 14.0923 14.5949 14.2753 14.862 14.3798L29.9384 20.404L29.2731 20.6417L29.7165 21.9586L31.5698 20.7593C31.9346 20.5751 32.0743 20.3681 32.0743 20.0276V7.76191C32.0759 7.47495 31.9904 7.19427 31.8293 6.95683C31.6681 6.71939 31.4388 6.53634 31.1716 6.43179Z" fill="#FF7F0B"/>
<path d="M13.2455 1.20329L29.397 7.58397C29.6642 7.68823 29.8935 7.87107 30.0547 8.10837C30.2158 8.34567 30.3012 8.62626 30.2996 8.9131V21.1793C30.2993 21.306 30.2683 21.4306 30.2093 21.5427C30.1503 21.6548 30.0651 21.7509 29.9609 21.8229C29.8567 21.8949 29.7366 21.9406 29.6109 21.9561C29.4852 21.9716 29.3576 21.9564 29.2391 21.9119L13.0877 15.5312C12.8203 15.4271 12.5908 15.2443 12.4295 15.0069C12.2682 14.7696 12.1828 14.4889 12.1845 14.2019V1.93589C12.1849 1.80923 12.216 1.68457 12.275 1.57252C12.3341 1.46047 12.4194 1.36435 12.5236 1.29239C12.6278 1.22042 12.7479 1.17475 12.8736 1.15924C12.9993 1.14372 13.1269 1.15883 13.2455 1.20329Z" fill="#FFA709"/>
<path d="M52.6503 56.4702L27.712 46.4293C27.6075 46.3884 27.4952 46.3711 27.3831 46.3787C27.2711 46.3863 27.1622 46.4186 27.0641 46.4732L25.1531 47.6861L26.262 48.3226L26.705 48.0901L26.6522 59.4281C26.6509 59.7151 26.7364 59.9957 26.8975 60.2331C27.0586 60.4706 27.2879 60.6537 27.555 60.7584L51.4178 70.4429L50.7523 70.6811L51.1958 71.9981L53.0492 70.7985C53.4135 70.6138 53.5537 70.4078 53.5537 70.0661V57.8003C53.555 57.5133 53.4694 57.2326 53.3081 56.9952C53.1469 56.7578 52.9175 56.5748 52.6503 56.4702Z" fill="url(#paint0_linear_928_640)"/>
<path d="M25.9387 47.5805L50.8772 57.6214C51.1445 57.7261 51.3739 57.9093 51.5352 58.1468C51.6964 58.3843 51.7821 58.665 51.7809 58.9521V71.2175C51.7804 71.3442 51.7493 71.4689 51.6902 71.581C51.6311 71.693 51.5457 71.7891 51.4415 71.8611C51.3372 71.9331 51.2171 71.9788 51.0914 71.9943C50.9656 72.0098 50.838 71.9947 50.7194 71.9502L25.7812 61.9085C25.5139 61.8042 25.2844 61.6213 25.1231 61.384C24.9618 61.1466 24.8763 60.866 24.8778 60.579V48.3138C24.8783 48.1871 24.9093 48.0625 24.9683 47.9504C25.0273 47.8383 25.1126 47.7422 25.2168 47.6701C25.321 47.5981 25.441 47.5523 25.5667 47.5367C25.6924 47.5211 25.8201 47.5362 25.9387 47.5805Z" fill="url(#paint1_linear_928_640)"/>
<path d="M33.2359 14.4714C33.2359 14.8576 33.1215 15.2351 32.9069 15.5562C32.6924 15.8774 32.3875 16.1276 32.0307 16.2754C31.6739 16.4233 31.2814 16.462 30.9026 16.3867C30.5238 16.3113 30.1759 16.1254 29.9028 15.8523C29.6297 15.5793 29.4437 15.2314 29.3684 14.8527C29.293 14.4739 29.3316 14.0813 29.4794 13.7245C29.6271 13.3677 29.8774 13.0628 30.1985 12.8482C30.5195 12.6336 30.897 12.5191 31.2832 12.519C31.5396 12.519 31.7935 12.5695 32.0304 12.6675C32.2674 12.7656 32.4826 12.9095 32.6639 13.0908C32.8453 13.2721 32.9891 13.4873 33.0873 13.7242C33.1854 13.9611 33.2359 14.215 33.2359 14.4714Z" fill="url(#paint2_linear_928_640)"/>
<path d="M41.0341 19.1336L31.8091 15.4937C31.629 15.4217 31.4846 15.2814 31.4074 15.1033C31.3303 14.9253 31.3266 14.7239 31.3972 14.5432C31.4689 14.3629 31.6091 14.2183 31.7871 14.1411C31.9652 14.0639 32.1665 14.0604 32.3471 14.1313L41.5714 17.7718C41.7516 17.8434 41.8962 17.9834 41.9735 18.1612C42.0509 18.339 42.0547 18.5401 41.9841 18.7208C41.9125 18.9012 41.7723 19.0459 41.5943 19.1233C41.4163 19.2007 41.2148 19.2044 41.0341 19.1336Z" fill="url(#paint3_linear_928_640)"/>
<path d="M41.0471 38.1485C41.0472 38.5348 40.9328 38.9123 40.7183 39.2335C40.5038 39.5547 40.1989 39.805 39.8421 39.9529C39.4853 40.1008 39.0927 40.1396 38.7139 40.0643C38.3351 39.989 37.9871 39.8031 37.7139 39.5301C37.4408 39.257 37.2547 38.9091 37.1793 38.5303C37.1039 38.1516 37.1425 37.7589 37.2902 37.4021C37.438 37.0452 37.6882 36.7402 38.0093 36.5256C38.3304 36.311 38.7079 36.1964 39.0941 36.1963C39.6119 36.1963 40.1086 36.402 40.4748 36.7681C40.8411 37.1341 41.0469 37.6307 41.0471 38.1485Z" fill="url(#paint4_linear_928_640)"/>
<path d="M55.2042 64.266C55.2042 64.6522 55.0896 65.0298 54.875 65.3509C54.6604 65.6721 54.3554 65.9224 53.9985 66.0701C53.6417 66.2179 53.249 66.2566 52.8702 66.1812C52.4914 66.1058 52.1434 65.9197 51.8703 65.6466C51.5972 65.3735 51.4113 65.0255 51.336 64.6466C51.2606 64.2678 51.2993 63.8752 51.4472 63.5184C51.595 63.1615 51.8454 62.8566 52.1665 62.642C52.4877 62.4274 52.8653 62.313 53.2515 62.313C53.508 62.313 53.7619 62.3635 53.9989 62.4616C54.2358 62.5598 54.4511 62.7036 54.6324 62.885C54.8138 63.0663 54.9576 63.2816 55.0557 63.5186C55.1538 63.7556 55.2043 64.0095 55.2042 64.266Z" fill="url(#paint5_linear_928_640)"/>
<path d="M63.5884 48.7764L39.2354 39.1655C39.0552 39.0937 38.9107 38.9535 38.8335 38.7755C38.7563 38.5976 38.7526 38.3963 38.8233 38.2156C38.8951 38.0353 39.0353 37.8908 39.2134 37.8135C39.3914 37.7363 39.5927 37.7328 39.7734 37.8036L64.1266 47.4145C64.3067 47.4861 64.4511 47.6261 64.5283 47.804C64.6055 47.9818 64.6092 48.1829 64.5385 48.3634C64.4669 48.5439 64.3268 48.6887 64.1487 48.7661C63.9707 48.8435 63.7692 48.8472 63.5884 48.7764Z" fill="url(#paint6_linear_928_640)"/>
<path d="M63.5885 69.036L53.1912 64.933C53.0108 64.8612 52.8662 64.721 52.789 64.5428C52.7117 64.3647 52.7082 64.1632 52.7792 63.9825C52.851 63.8025 52.991 63.6581 53.1687 63.5809C53.3465 63.5036 53.5475 63.4998 53.7281 63.5701L64.1262 67.6738C64.3065 67.7456 64.451 67.8858 64.5282 68.0639C64.6054 68.2419 64.6089 68.4433 64.5381 68.6239C64.4663 68.804 64.3261 68.9485 64.1482 69.0257C63.9703 69.1029 63.7691 69.1066 63.5885 69.036Z" fill="url(#paint7_linear_928_640)"/>
<path d="M64.7238 48.1569V68.4157C64.7233 68.6098 64.646 68.7958 64.5089 68.9331C64.3717 69.0704 64.1857 69.1478 63.9916 69.1484C63.7975 69.1479 63.6114 69.0706 63.4741 68.9333C63.3368 68.7959 63.2595 68.6099 63.259 68.4157V48.1569C63.2593 47.9627 63.3366 47.7765 63.4739 47.6392C63.6113 47.5019 63.7974 47.4246 63.9916 47.4243C64.1858 47.4246 64.3719 47.5019 64.5092 47.6393C64.6464 47.7766 64.7236 47.9628 64.7238 48.1569Z" fill="url(#paint8_linear_928_640)"/>
<path d="M66.3201 20.5895L44.0673 11.5246C43.9627 11.4837 43.8503 11.4663 43.7383 11.4739C43.6262 11.4815 43.5171 11.5137 43.419 11.5683L41.5079 12.7812L42.6163 13.4179L43.0595 13.1854L43.0058 24.5222C43.0042 24.8093 43.0897 25.0901 43.251 25.3276C43.4123 25.5651 43.6418 25.7481 43.9092 25.8525L65.0875 34.5604L64.4216 34.7993L64.8655 36.1171L66.7184 34.9171C67.0831 34.7334 67.2231 34.5261 67.2231 34.1846V21.9183C67.2244 21.6315 67.1388 21.3511 66.9776 21.1139C66.8164 20.8767 66.5872 20.6939 66.3201 20.5895Z" fill="url(#paint9_linear_928_640)"/>
<path d="M42.2933 12.6751L64.5466 21.7399C64.8137 21.8447 65.0428 22.0278 65.2039 22.2652C65.365 22.5026 65.4505 22.7833 65.4492 23.0702V35.3365C65.4488 35.4632 65.4178 35.588 65.3587 35.7001C65.2997 35.8122 65.2143 35.9083 65.11 35.9803C65.0057 36.0523 64.8855 36.098 64.7597 36.1134C64.634 36.1288 64.5063 36.1135 64.3877 36.0689L42.1342 27.0044C41.8671 26.8997 41.6379 26.7165 41.4767 26.4791C41.3156 26.2417 41.2301 25.961 41.2315 25.6741V13.409C41.2317 13.2822 41.2627 13.1573 41.3217 13.045C41.3808 12.9328 41.4661 12.8365 41.5704 12.7643C41.6748 12.6922 41.795 12.6465 41.9209 12.6309C42.0468 12.6154 42.1746 12.6305 42.2933 12.6751Z" fill="url(#paint10_linear_928_640)"/>
<path d="M19.7979 51.5785L18.4612 50.9087C18.3365 50.4621 18.1856 50.0232 18.0093 49.5944L18.72 48.4364C18.7799 48.3125 18.8037 48.1744 18.7888 48.0376C18.7738 47.9009 18.7207 47.7712 18.6354 47.6632L16.5167 44.722C16.4579 44.6244 16.371 44.5469 16.2674 44.4994C16.1639 44.452 16.0484 44.4368 15.9361 44.456C15.9311 44.4572 15.9263 44.4587 15.9216 44.4606C15.917 44.4628 15.9121 44.4643 15.9071 44.4653C15.9024 44.4672 15.8976 44.4687 15.8927 44.4698C15.888 44.4723 15.8832 44.4742 15.8782 44.4758C15.8734 44.4767 15.8688 44.4793 15.8639 44.4801C15.8589 44.4814 15.8541 44.483 15.8494 44.485C15.8439 44.4867 15.8399 44.4877 15.8351 44.4896C15.8304 44.4915 15.8255 44.4931 15.8206 44.4943C15.8159 44.4962 15.8111 44.4977 15.8061 44.4988C15.8007 44.5005 15.7962 44.5037 15.7917 44.5047C15.7871 44.5057 15.7818 44.5081 15.7772 44.5091C15.7725 44.51 15.7674 44.5123 15.7624 44.5134C15.7573 44.5147 15.7524 44.5168 15.7479 44.5195C15.743 44.521 15.738 44.5223 15.7329 44.5232C15.7283 44.5254 15.7235 44.527 15.7185 44.5279C15.7139 44.5302 15.709 44.5321 15.704 44.5335C15.6993 44.5354 15.6944 44.5368 15.6895 44.538C15.6846 44.5393 15.6798 44.5411 15.6752 44.5433C15.6702 44.5441 15.6653 44.5458 15.6609 44.5483C15.6564 44.5493 15.6512 44.5515 15.6464 44.5525C15.6416 44.5535 15.6369 44.5559 15.6319 44.5578C15.6269 44.5586 15.622 44.5602 15.6175 44.5625C15.613 44.5634 15.6081 44.5663 15.603 44.5675C15.5981 44.5687 15.5934 44.5702 15.5887 44.572C15.5837 44.5732 15.5788 44.575 15.5742 44.5773C15.5686 44.5782 15.5647 44.5803 15.5597 44.5813C15.555 44.583 15.5501 44.5845 15.5453 44.5858C15.5399 44.5882 15.5358 44.5892 15.5309 44.5914C15.5261 44.5937 15.521 44.5951 15.5165 44.5961C15.5115 44.5976 15.5067 44.5994 15.5021 44.6017C15.4969 44.6023 15.4919 44.6038 15.4872 44.6061C15.482 44.607 15.4777 44.6093 15.4727 44.6102L15.4582 44.6156C15.4533 44.6178 15.4487 44.6181 15.4433 44.62C15.4385 44.622 15.4337 44.6236 15.4288 44.625C15.424 44.6265 15.4194 44.6284 15.415 44.6307C15.4099 44.6312 15.405 44.6327 15.4005 44.635C15.3953 44.6361 15.3903 44.6379 15.3855 44.6401C15.3806 44.6411 15.3759 44.6426 15.3712 44.6445C15.3665 44.6464 15.3617 44.6478 15.3568 44.6488C15.3523 44.6501 15.3473 44.653 15.3428 44.6538C15.3383 44.6546 15.3329 44.6574 15.328 44.6583C15.3232 44.6605 15.3184 44.6623 15.3135 44.6639C15.3086 44.665 15.3039 44.6667 15.2995 44.6689C15.2939 44.6699 15.2895 44.6725 15.285 44.6733C15.2805 44.6741 15.275 44.6775 15.2701 44.6778C15.2656 44.6799 15.261 44.6815 15.2562 44.6828C15.2515 44.685 15.2464 44.6864 15.2413 44.6871C15.2367 44.6896 15.2318 44.6916 15.2268 44.6929C15.2217 44.6939 15.2167 44.6956 15.212 44.6979C15.2073 44.6989 15.203 44.7006 15.1975 44.7022C15.1929 44.7045 15.1881 44.7062 15.183 44.7072C15.1781 44.7085 15.1737 44.7108 15.1686 44.7117C15.1639 44.7138 15.159 44.7156 15.1541 44.717C15.1498 44.7183 15.1448 44.7202 15.1398 44.722C15.1348 44.7238 15.1298 44.7256 15.1253 44.7265C15.1203 44.7277 15.1155 44.7294 15.1108 44.7315C15.1059 44.7327 15.1011 44.7343 15.0964 44.7362C15.0915 44.7377 15.0867 44.7394 15.082 44.7415C15.0775 44.7424 15.0721 44.7447 15.0676 44.746C15.0631 44.7472 15.0576 44.75 15.0532 44.7509C15.0489 44.7519 15.0438 44.7543 15.0388 44.7553C15.0336 44.7567 15.0286 44.7585 15.0238 44.7609C15.0188 44.7619 15.0143 44.7638 15.0098 44.7648C15.0049 44.7664 15 44.7683 14.9953 44.7704C14.9903 44.7714 14.9855 44.7731 14.9809 44.7754C14.9758 44.7766 14.9709 44.7781 14.9661 44.7799C14.9611 44.7809 14.9566 44.7833 14.9516 44.7842C14.9466 44.7852 14.9421 44.7883 14.9373 44.7892C14.9324 44.7909 14.9275 44.7928 14.9228 44.7949C14.9178 44.7959 14.9132 44.7971 14.9079 44.7984C14.9032 44.8006 14.8984 44.8022 14.8934 44.8031C14.8889 44.8057 14.884 44.8076 14.8789 44.8087C14.8744 44.8097 14.8696 44.8123 14.8649 44.8132C14.8599 44.8146 14.8551 44.8166 14.8506 44.8192C14.8455 44.8201 14.8405 44.8216 14.8356 44.8235L14.8212 44.8272C14.8168 44.8291 14.8114 44.8311 14.8067 44.8333C14.802 44.8352 14.7973 44.8366 14.7924 44.8376C14.7879 44.8386 14.7829 44.8412 14.7781 44.842C14.7731 44.8436 14.7682 44.8455 14.7636 44.8479C14.7586 44.8489 14.7538 44.8505 14.7491 44.8525C14.7442 44.8536 14.7393 44.8552 14.7346 44.8571C14.7297 44.8582 14.7248 44.8598 14.7202 44.8618C14.7155 44.8639 14.7107 44.8655 14.7057 44.8666C14.7002 44.8674 14.6964 44.8703 14.6907 44.8709C14.6858 44.8726 14.681 44.8746 14.6764 44.8769C14.6715 44.8781 14.6667 44.8796 14.6619 44.8814C14.6571 44.8822 14.6524 44.8845 14.6475 44.8854C14.6428 44.8875 14.638 44.8892 14.6331 44.8907C14.6286 44.8931 14.6237 44.8946 14.6187 44.8954C14.6137 44.8964 14.6092 44.8992 14.6042 44.9002C14.5992 44.9012 14.5942 44.9036 14.5899 44.9049C14.5853 44.9072 14.5804 44.909 14.5754 44.9102C14.5704 44.9114 14.5656 44.9131 14.5609 44.9152H14.5595C14.2845 44.6941 13.9974 44.4886 13.6995 44.2995L13.3804 42.6701C13.3569 42.5327 13.2966 42.4042 13.206 42.2983C13.1154 42.1924 12.9978 42.113 12.8657 42.0685L9.93593 41.3388C9.8517 41.3162 9.76236 41.3218 9.68164 41.3549C9.67714 41.3567 9.67167 41.358 9.66717 41.3593C9.66224 41.361 9.65742 41.363 9.6527 41.3652L9.63821 41.3688C9.63357 41.3708 9.62879 41.3724 9.6239 41.3737C9.61827 41.3762 9.61393 41.3771 9.60943 41.3794C9.60493 41.3816 9.59946 41.3823 9.59496 41.3837C9.59046 41.3852 9.58499 41.3866 9.58 41.3889C9.57501 41.3911 9.57067 41.3912 9.56569 41.3932C9.5607 41.3951 9.55618 41.3962 9.5512 41.3982C9.54653 41.4002 9.54175 41.402 9.53689 41.4035C9.53193 41.4047 9.5271 41.4063 9.52242 41.4083C9.51743 41.4093 9.51258 41.4109 9.50795 41.413C9.50296 41.4146 9.49844 41.4156 9.49346 41.4176C9.48852 41.4188 9.48369 41.4202 9.47899 41.4221C9.47426 41.4241 9.46943 41.4257 9.46452 41.4271C9.45964 41.4286 9.45486 41.4304 9.4502 41.4324C9.44522 41.4341 9.43975 41.435 9.43524 41.4369C9.43074 41.4389 9.42528 41.44 9.42077 41.4419C9.41591 41.4432 9.41114 41.4447 9.40646 41.4466C9.40147 41.4485 9.39631 41.4492 9.39197 41.4509C9.38763 41.4527 9.382 41.4551 9.3775 41.457C9.37264 41.4582 9.36786 41.4596 9.36319 41.4614C9.35804 41.4633 9.35371 41.4638 9.34872 41.4657C9.34373 41.4677 9.33873 41.4689 9.33423 41.4707C9.32973 41.4725 9.32426 41.4733 9.31976 41.4752C9.31526 41.4771 9.30978 41.4783 9.3048 41.4809C9.29981 41.4834 9.29548 41.4838 9.29033 41.4858C9.28518 41.4879 9.281 41.4884 9.27602 41.4903C9.27103 41.4923 9.26605 41.4934 9.2617 41.4947C9.25736 41.496 9.25156 41.4977 9.24722 41.4997C9.24249 41.5018 9.23767 41.5037 9.23275 41.5053C9.22824 41.5062 9.22326 41.5082 9.21828 41.5098C9.21325 41.5108 9.20839 41.5125 9.20381 41.5148C9.1993 41.5167 9.19398 41.5175 9.18932 41.5191C9.18465 41.5207 9.17951 41.522 9.175 41.5236C9.1705 41.5252 9.16504 41.5267 9.16053 41.5286C9.15559 41.53 9.15076 41.5318 9.14606 41.5339C9.14124 41.5352 9.13609 41.537 9.1311 41.5386C9.12613 41.5397 9.12132 41.5414 9.11679 41.5437C9.1118 41.5455 9.10681 41.5465 9.10279 41.5481C9.09775 41.5494 9.0928 41.5511 9.08799 41.5531C9.08304 41.5541 9.0782 41.5556 9.07352 41.5575C9.06853 41.5603 9.06339 41.5603 9.05905 41.5628C9.05397 41.5637 9.04908 41.5653 9.04458 41.5678C9.03936 41.5683 9.03429 41.5698 9.02962 41.5722C9.02491 41.5742 9.02006 41.5759 9.01513 41.5772C9.01014 41.5785 9.00533 41.5804 9.00082 41.583C8.99585 41.5834 8.99098 41.5845 8.98635 41.5864C8.98184 41.5893 8.97686 41.5892 8.97188 41.5923C8.96692 41.5931 8.9621 41.5946 8.95756 41.5968C8.95306 41.5983 8.9479 41.5992 8.94308 41.6011C8.93825 41.6031 8.93311 41.6044 8.92861 41.6061C8.9241 41.6079 8.91864 41.6087 8.91414 41.6105C8.90935 41.6115 8.9047 41.6132 8.90029 41.6153C8.89531 41.618 8.88984 41.619 8.88533 41.6212C8.88083 41.6235 8.87537 41.6238 8.87086 41.6256C8.86589 41.6266 8.86105 41.6281 8.85639 41.6301C8.85157 41.6322 8.84659 41.6332 8.84192 41.6351C8.83726 41.637 8.83212 41.6375 8.82761 41.6394C8.82279 41.6414 8.81784 41.643 8.81281 41.6442C8.80811 41.6462 8.80328 41.6478 8.79834 41.6489C8.79383 41.6513 8.78867 41.6523 8.78385 41.6545C8.77902 41.6568 8.77436 41.6571 8.76938 41.6589C8.76439 41.6607 8.76005 41.6621 8.75442 41.664C8.74982 41.666 8.74502 41.6674 8.74011 41.6684C8.73552 41.6705 8.73065 41.672 8.72564 41.6727C8.72133 41.6755 8.7166 41.6775 8.71164 41.6787C8.70665 41.6809 8.70167 41.6812 8.69717 41.6835C8.69266 41.6857 8.68719 41.6862 8.68221 41.6878C8.67722 41.6894 8.67288 41.6907 8.66774 41.6928C8.66259 41.6949 8.65841 41.6957 8.65342 41.6983C8.64876 41.7001 8.64398 41.7015 8.63911 41.7026C8.63445 41.7049 8.62897 41.7057 8.62462 41.7076C8.6199 41.7095 8.61507 41.7111 8.61015 41.7123C8.60565 41.7142 8.60019 41.7152 8.59568 41.7168C8.59118 41.7184 8.58586 41.7208 8.58119 41.7227C8.57627 41.7238 8.57144 41.7253 8.56672 41.7271C8.56199 41.7289 8.55716 41.7304 8.55225 41.7316C8.54743 41.7337 8.54244 41.7346 8.5381 41.7366C8.53335 41.7383 8.52853 41.7397 8.52363 41.7409C8.51848 41.7432 8.51348 41.7441 8.50914 41.7465C8.50385 41.7472 8.49878 41.749 8.4942 41.7517C8.48918 41.7524 8.48428 41.7539 8.47971 41.756C8.47482 41.7573 8.47003 41.759 8.4654 41.761C8.46073 41.7626 8.4559 41.7636 8.45044 41.7653C8.44497 41.7671 8.44143 41.7686 8.43597 41.7705C8.4305 41.7724 8.42647 41.7729 8.42197 41.7748C8.41746 41.7768 8.412 41.7782 8.4075 41.7805C8.4024 41.7817 8.39739 41.7833 8.39254 41.7853C8.3876 41.7856 8.38284 41.7872 8.37872 41.79C8.37383 41.791 8.36905 41.7925 8.3644 41.7943C8.35926 41.7963 8.35426 41.7972 8.34991 41.7993C8.34483 41.8008 8.33983 41.8027 8.33495 41.8048C8.33014 41.8059 8.32547 41.8074 8.32097 41.8094C8.31582 41.8104 8.3108 41.8119 8.30601 41.8141C8.30122 41.8153 8.29653 41.8169 8.29201 41.8189C8.28218 41.8218 8.27242 41.8249 8.26274 41.8283C8.25776 41.8308 8.25277 41.8308 8.24827 41.8336C8.24377 41.8363 8.2383 41.8361 8.23396 41.8381C8.2288 41.8394 8.22375 41.841 8.21884 41.8431C8.21394 41.8442 8.20915 41.8458 8.20453 41.8477C8.20002 41.8497 8.19502 41.8506 8.19004 41.8522C8.18505 41.8536 8.18025 41.8556 8.17573 41.8582C8.171 41.8597 8.16617 41.8608 8.16126 41.8616C8.15677 41.8641 8.15188 41.8659 8.14679 41.8669C8.14183 41.8681 8.13699 41.8698 8.13232 41.8718C8.12758 41.8736 8.12273 41.8751 8.11783 41.8764C8.11314 41.8782 8.10837 41.8797 8.10351 41.881C8.09847 41.8824 8.09362 41.8844 8.08904 41.887C8.08406 41.8889 8.07907 41.8889 8.07473 41.8905C8.07005 41.8926 8.06522 41.8944 8.06026 41.8958C8.05528 41.898 8.04963 41.8988 8.04577 41.9008C8.04191 41.9027 8.03581 41.904 8.0313 41.9053C8.0268 41.9066 8.02085 41.9084 8.01683 41.91C8.01179 41.9112 8.00696 41.9132 8.00252 41.9159C7.99689 41.9178 7.99205 41.9188 7.98803 41.9203C7.98401 41.9217 7.97757 41.9231 7.97307 41.9247C7.96857 41.9263 7.9631 41.9278 7.9586 41.9297C7.95386 41.9314 7.94903 41.9329 7.94413 41.9341C7.93935 41.9363 7.93439 41.9382 7.92933 41.9397C7.92453 41.9409 7.91986 41.9425 7.91535 41.9445C7.91036 41.9466 7.90537 41.9476 7.90055 41.9492C7.89572 41.9508 7.8909 41.9521 7.88608 41.9542C7.88114 41.9553 7.87629 41.9568 7.87159 41.9587L7.85712 41.964C7.85216 41.9652 7.84732 41.9669 7.84265 41.969C7.83769 41.9699 7.83283 41.9714 7.82816 41.9733C7.82359 41.9753 7.81878 41.9767 7.81384 41.9775C7.80934 41.9799 7.80388 41.9809 7.79938 41.9828C7.79487 41.9847 7.7894 41.9854 7.78506 41.9875C7.78034 41.9894 7.77551 41.9911 7.77059 41.9925C7.76561 41.9938 7.76075 41.9957 7.7561 41.9979C7.75107 41.9986 7.74619 42 7.74163 42.0023C7.73665 42.0045 7.73166 42.0055 7.72732 42.0073C7.72238 42.0084 7.71755 42.0099 7.71285 42.0117C7.70738 42.0138 7.70239 42.0142 7.69789 42.0164C7.69339 42.0187 7.68841 42.0193 7.68342 42.0224C7.67852 42.0236 7.67367 42.025 7.66893 42.0267C7.66411 42.0286 7.65912 42.0293 7.65462 42.0312C7.65012 42.0332 7.64464 42.0343 7.63966 42.0362C7.63473 42.0377 7.6299 42.0395 7.62519 42.0415C7.62058 42.0433 7.61578 42.0445 7.61088 42.045C7.60637 42.0481 7.60123 42.0481 7.59641 42.051C7.59158 42.0539 7.58692 42.0534 7.58194 42.0557C7.57702 42.0569 7.57217 42.0584 7.56745 42.0602C7.56294 42.0619 7.55812 42.0629 7.55313 42.0651C7.54818 42.0665 7.54335 42.0683 7.53866 42.0704L7.52419 42.0738C7.51966 42.0765 7.51478 42.0785 7.5097 42.0798C7.50497 42.0817 7.50014 42.0833 7.49523 42.0846C7.49036 42.0857 7.48558 42.0872 7.48092 42.089C7.47628 42.091 7.4715 42.0926 7.46661 42.0939C7.46146 42.0959 7.45648 42.0968 7.45214 42.0984C7.4478 42.1001 7.44199 42.1012 7.43765 42.1034C7.43331 42.1057 7.42752 42.106 7.42269 42.1087C7.418 42.1107 7.41317 42.1124 7.40822 42.1136C7.40372 42.1153 7.3989 42.1163 7.39375 42.1182C7.3886 42.1202 7.38442 42.1207 7.37944 42.1229C7.37445 42.1252 7.36993 42.1258 7.36495 42.1282C7.35984 42.1291 7.35485 42.1305 7.35001 42.1324C7.3455 42.1345 7.34081 42.1363 7.33601 42.1377C7.33167 42.1396 7.32619 42.1408 7.32105 42.1427C7.3159 42.1446 7.31173 42.1452 7.30723 42.1472C7.3023 42.1483 7.29745 42.1497 7.29274 42.1515C7.28775 42.1531 7.28296 42.1552 7.27842 42.1578C7.27324 42.1584 7.26818 42.1599 7.26346 42.1621C7.25853 42.1633 7.2537 42.1648 7.24899 42.1667C7.24449 42.1684 7.2395 42.1697 7.235 42.1716C7.23049 42.1736 7.22503 42.174 7.22053 42.176C7.21569 42.1779 7.21068 42.1794 7.20556 42.1803C7.20074 42.1826 7.19624 42.1845 7.19125 42.1864C7.18627 42.1872 7.18144 42.1888 7.17694 42.1911C7.17203 42.1922 7.1672 42.1937 7.16247 42.1954C7.15748 42.1974 7.15233 42.1983 7.14751 42.2004C7.14268 42.2025 7.13801 42.203 7.13351 42.2049C7.12867 42.2069 7.12366 42.2083 7.11855 42.2093C7.11391 42.2115 7.10913 42.2135 7.10424 42.2152C7.09933 42.2166 7.09451 42.2182 7.08977 42.2201C7.08526 42.2218 7.08028 42.2221 7.0753 42.2244C7.07031 42.2266 7.06579 42.2273 7.06081 42.2294C7.05582 42.2315 7.05084 42.232 7.04634 42.2337C7.04175 42.236 7.03696 42.2378 7.03203 42.2392C7.02711 42.2404 7.02232 42.2421 7.01771 42.2442C7.01305 42.2464 7.00759 42.2468 7.00324 42.2485C6.99836 42.2504 6.99336 42.2521 6.98828 42.2534L6.97815 42.2561C6.91661 42.1903 6.83846 42.1424 6.75196 42.1173C6.66546 42.0922 6.5738 42.0909 6.48663 42.1136C6.48169 42.1147 6.47686 42.1163 6.47216 42.1182C6.46716 42.1192 6.46228 42.1208 6.45767 42.1229C6.44798 42.126 6.43834 42.1291 6.42873 42.1324C6.42391 42.1337 6.41941 42.1358 6.41442 42.1367C6.40975 42.1388 6.40489 42.1405 6.39993 42.1417L6.38562 42.1472C6.38065 42.1481 6.3758 42.1496 6.37115 42.1515C6.36603 42.1529 6.36116 42.155 6.35668 42.1578C6.35165 42.1585 6.34676 42.1599 6.34221 42.1621C6.33722 42.1631 6.33287 42.1647 6.32772 42.1657C6.32308 42.1677 6.3183 42.1694 6.31341 42.1707C6.30826 42.1726 6.30344 42.174 6.29894 42.176C6.29443 42.1779 6.28897 42.1795 6.28447 42.1803L6.26951 42.1864C6.26448 42.1873 6.25961 42.1888 6.25504 42.1911C6.25021 42.192 6.24569 42.1935 6.2407 42.1945C6.23586 42.1966 6.23088 42.1983 6.22576 42.1996C6.22144 42.2021 6.21677 42.2039 6.21192 42.2049C6.20694 42.2059 6.20243 42.2083 6.19696 42.2093C6.19263 42.2117 6.18788 42.2134 6.18296 42.2142C6.17798 42.2162 6.17316 42.2178 6.16849 42.2201C6.16383 42.2223 6.15869 42.2221 6.15402 42.2234C6.14925 42.2258 6.14429 42.2277 6.13922 42.2294C6.13472 42.2313 6.12974 42.232 6.12475 42.2337C6.11976 42.2355 6.11527 42.2373 6.11028 42.2382C6.10529 42.2392 6.10078 42.2423 6.09644 42.2432C6.0921 42.2442 6.08646 42.2468 6.08148 42.2485C6.07649 42.2503 6.07199 42.2517 6.06701 42.2534C6.06205 42.2544 6.05725 42.2561 6.0527 42.2583C6.04755 42.2603 6.04321 42.2612 6.03823 42.2627C6.03331 42.2639 6.02846 42.2654 6.02374 42.2672C6.01869 42.2686 6.01384 42.2706 6.00927 42.2731C6.00428 42.2739 5.99929 42.2762 5.99431 42.2775C5.98932 42.2787 5.98498 42.2807 5.97984 42.2821C5.97469 42.2836 5.97051 42.285 5.96552 42.287C5.96054 42.2889 5.95604 42.29 5.95105 42.2916C5.94607 42.2932 5.94157 42.2953 5.93674 42.2966C5.932 42.2983 5.92715 42.2998 5.92225 42.3009C5.91774 42.3035 5.91287 42.3054 5.90778 42.3064C5.90282 42.3076 5.89798 42.3093 5.89331 42.3114C5.88881 42.313 5.88349 42.314 5.87882 42.3157C5.87416 42.3175 5.86903 42.319 5.86404 42.3209C5.85905 42.3228 5.85503 42.3233 5.85004 42.3253C5.84511 42.3268 5.84028 42.3287 5.83557 42.3309C5.83057 42.332 5.8257 42.3336 5.82108 42.3359C5.8161 42.3366 5.81126 42.3381 5.80677 42.3404C5.80177 42.3412 5.79691 42.3426 5.7923 42.3447C5.78683 42.3469 5.78232 42.3479 5.7775 42.3497C5.77267 42.3514 5.76786 42.3532 5.76352 42.3542C5.75917 42.3552 5.75353 42.3576 5.74903 42.3598C5.74385 42.3608 5.73884 42.3625 5.73409 42.3648C5.72898 42.3658 5.72397 42.3672 5.71913 42.3692C5.71407 42.3702 5.70918 42.372 5.70464 42.3745C5.70029 42.3754 5.69579 42.3776 5.69032 42.3786C5.68583 42.3806 5.68115 42.382 5.67634 42.383C5.67136 42.3852 5.66685 42.3865 5.66138 42.3886C5.65647 42.3899 5.65164 42.3915 5.64691 42.3934C5.64257 42.3945 5.63742 42.3971 5.63307 42.3981C5.62319 42.4008 5.61342 42.404 5.6038 42.4076C5.59906 42.4093 5.59423 42.4107 5.58933 42.4119C5.58464 42.414 5.57981 42.4158 5.57486 42.4172C5.57036 42.4185 5.56487 42.4204 5.56037 42.4222C5.55587 42.424 5.5504 42.4257 5.5459 42.427L5.53143 42.4323C5.52648 42.4336 5.52163 42.4353 5.51694 42.4373C5.51163 42.4383 5.50715 42.4402 5.50281 42.4409C5.49815 42.4431 5.49329 42.4449 5.48832 42.4462C5.48333 42.4473 5.47848 42.449 5.47385 42.4512C5.46874 42.4527 5.46374 42.4546 5.45889 42.4568C5.45377 42.4571 5.44881 42.4587 5.44442 42.4613C5.43943 42.4625 5.43459 42.4641 5.42995 42.4663C5.42509 42.4674 5.42029 42.4689 5.41561 42.4706C5.41047 42.4716 5.40565 42.4738 5.40114 42.475C5.39653 42.4772 5.39168 42.479 5.38667 42.4801C5.38175 42.4817 5.37692 42.4836 5.3722 42.4857C5.36715 42.486 5.36224 42.4875 5.35789 42.4901C5.3527 42.4913 5.34762 42.4929 5.34275 42.4951C5.33811 42.4963 5.33355 42.4978 5.32909 42.4996C5.32394 42.5015 5.31896 42.5025 5.31462 42.5046C5.31028 42.5067 5.30465 42.5081 5.29966 42.5091C5.29467 42.51 5.28953 42.5131 5.28519 42.514C5.28085 42.515 5.27569 42.5174 5.2707 42.5193C5.2657 42.5203 5.26084 42.5219 5.25623 42.524C5.25133 42.5252 5.24654 42.5268 5.24192 42.5288C5.23698 42.53 5.23215 42.5316 5.22745 42.5335C5.22257 42.5346 5.21778 42.536 5.21314 42.5378C5.20846 42.5399 5.2036 42.5416 5.19865 42.5428C5.19352 42.5442 5.18854 42.5461 5.18371 42.5483C5.17877 42.5494 5.17392 42.5508 5.16922 42.5526C5.16423 42.5539 5.16037 42.5559 5.1549 42.5576C5.14944 42.5594 5.14542 42.5602 5.14043 42.5623C5.13545 42.5644 5.13095 42.5646 5.12596 42.5668C5.12096 42.5683 5.1161 42.5703 5.11147 42.5727C5.10655 42.5738 5.10172 42.5753 5.097 42.5771C5.09218 42.5781 5.0872 42.5807 5.08254 42.5816C5.07755 42.5828 5.0727 42.5844 5.06807 42.5866C5.0631 42.5879 5.05828 42.5898 5.05373 42.5922C5.04875 42.5932 5.04376 42.5945 5.03942 42.5956C5.03448 42.5974 5.02965 42.5994 5.02495 42.6017C5.01983 42.6026 5.01481 42.6041 5.00999 42.606C5.005 42.607 5.00068 42.6096 4.99601 42.6104C4.99087 42.6116 4.98586 42.6133 4.98105 42.6155C4.9764 42.6174 4.97162 42.6188 4.96674 42.6199C4.96202 42.622 4.95717 42.6239 4.95225 42.6255C4.94726 42.6265 4.94276 42.6284 4.93778 42.6294C4.93279 42.6303 4.92829 42.6334 4.92331 42.635C4.91832 42.6366 4.91382 42.6377 4.90835 42.6393C4.90376 42.6416 4.8989 42.6433 4.89388 42.6443C4.88926 42.6465 4.88447 42.6483 4.87957 42.6498C4.87506 42.6509 4.8707 42.6529 4.86523 42.6538C4.86054 42.6557 4.8557 42.6571 4.85076 42.6582C4.84631 42.6609 4.84141 42.6628 4.83629 42.6638C4.83128 42.6649 4.82642 42.6666 4.82182 42.669C4.81685 42.6703 4.812 42.6721 4.80733 42.6743C4.80246 42.6753 4.79767 42.6768 4.79302 42.6786C4.78804 42.6795 4.78306 42.6818 4.77855 42.6828C4.77363 42.6843 4.7688 42.686 4.76408 42.6881C4.75916 42.6893 4.75437 42.691 4.74977 42.6931C4.74478 42.6931 4.73963 42.6966 4.73481 42.6974C4.72998 42.6982 4.72531 42.7013 4.72032 42.703C4.71547 42.7042 4.71078 42.7059 4.70634 42.7082C4.70131 42.7088 4.6964 42.7103 4.69185 42.7125C4.68638 42.7135 4.68205 42.7151 4.67707 42.7161C4.67246 42.7185 4.66761 42.7205 4.6626 42.722C4.65761 42.723 4.65309 42.7254 4.64811 42.7264C4.64348 42.7285 4.63862 42.73 4.63364 42.731L4.61884 42.737C4.61411 42.7381 4.60949 42.7396 4.60501 42.7415C4.59987 42.7432 4.59536 42.7439 4.59005 42.7458C4.58475 42.7478 4.58088 42.7491 4.57605 42.7508C4.57123 42.7526 4.56593 42.7543 4.56158 42.7553C4.55677 42.7573 4.55175 42.7587 4.54662 42.7597C4.54193 42.762 4.5371 42.7639 4.53215 42.7656C4.52725 42.7669 4.52242 42.7685 4.51768 42.7704C4.51334 42.7722 4.50786 42.7728 4.50335 42.7748C4.49858 42.7761 4.49392 42.7778 4.48937 42.7798C4.48455 42.7817 4.47892 42.7823 4.47441 42.7841C4.46941 42.7854 4.4646 42.7874 4.4601 42.7899C4.45512 42.7909 4.45027 42.7925 4.44563 42.7946C4.44067 42.7957 4.43581 42.7972 4.43114 42.7992C4.42615 42.8011 4.42117 42.8021 4.41683 42.8036C4.41202 42.8048 4.40733 42.8066 4.40283 42.8087C4.39794 42.8104 4.39296 42.8119 4.38789 42.8131C4.38303 42.8152 4.37803 42.8169 4.37293 42.8184C4.36859 42.8196 4.36359 42.8216 4.35844 42.8235C4.35374 42.8254 4.34891 42.827 4.34397 42.8282C4.33963 42.8291 4.33464 42.8309 4.32966 42.8325C4.32497 42.8345 4.32013 42.8362 4.31519 42.8375C4.3106 42.8395 4.3058 42.8411 4.30087 42.842C4.29589 42.8438 4.29073 42.846 4.28638 42.8473C4.28142 42.8485 4.27658 42.8502 4.27191 42.8523C4.26693 42.8533 4.26194 42.8555 4.25695 42.8568C4.25197 42.8581 4.24763 42.8599 4.24264 42.8618C4.23786 42.8634 4.23318 42.8652 4.22864 42.8674C4.2235 42.8684 4.21819 42.8703 4.21417 42.8711C4.20922 42.8727 4.20439 42.8746 4.1997 42.8769C4.19465 42.8774 4.18975 42.8789 4.18523 42.8812C4.1804 42.8833 4.17539 42.885 4.17027 42.8862C4.16536 42.8874 4.16061 42.8892 4.15612 42.8916C4.15119 42.8922 4.14643 42.8939 4.14212 42.8963C4.13649 42.8971 4.1315 42.8991 4.12716 42.9001C4.12282 42.901 4.11767 42.9036 4.11269 42.9057C4.10757 42.9067 4.10256 42.9082 4.09773 42.9102C4.09322 42.9112 4.08873 42.9142 4.08326 42.9152L4.06894 42.9205C4.06405 42.9217 4.05922 42.9231 4.05448 42.9248C4.04973 42.9265 4.04489 42.9279 4.03999 42.929C4.03564 42.9309 4.0305 42.9324 4.02552 42.9346C4.02082 42.9365 4.01599 42.938 4.01105 42.939C4.00622 42.94 4.00124 42.9428 3.99673 42.9441C3.99223 42.9454 3.98675 42.9475 3.98224 42.9494C3.97733 42.9503 3.97253 42.9518 3.96793 42.9538C3.96279 42.9548 3.9578 42.957 3.95346 42.958C3.94879 42.9601 3.94396 42.9619 3.93899 42.9633C3.93401 42.9653 3.92901 42.9663 3.9245 42.9679C3.91945 42.9693 3.91459 42.9713 3.91003 42.9739C3.90038 42.9765 3.89083 42.9794 3.88141 42.9827C3.87578 42.985 3.87128 42.9858 3.86694 42.9877C3.85701 42.9904 3.84719 42.9934 3.83751 42.9969C3.83245 42.9982 3.82758 43.0003 3.82302 43.0028C3.81787 43.0036 3.81284 43.0051 3.80806 43.0072C3.80355 43.0082 3.79873 43.0101 3.79374 43.0117L3.77927 43.0167C3.77461 43.0184 3.77027 43.0194 3.76481 43.021C3.76009 43.023 3.75524 43.0247 3.75032 43.026C3.74533 43.0274 3.74048 43.0292 3.73585 43.0315C3.7315 43.0326 3.72652 43.0345 3.72138 43.0361C3.71623 43.0377 3.71205 43.0398 3.70706 43.0405C3.70208 43.0411 3.69758 43.0433 3.69275 43.0454C3.68793 43.0475 3.68309 43.0483 3.67826 43.05C3.67359 43.052 3.66875 43.0537 3.66379 43.0549C3.65908 43.0567 3.65425 43.0582 3.64932 43.0593C3.64461 43.0615 3.63979 43.0633 3.63485 43.0649C3.62938 43.0659 3.62551 43.0688 3.62036 43.0697C3.61536 43.0705 3.61052 43.0721 3.60605 43.0744C3.60106 43.0763 3.59608 43.0773 3.59158 43.0794C3.53596 43.0954 3.48494 43.1243 3.4428 43.164L1.41884 45.0736C1.2506 45.2322 1.22777 45.54 1.364 45.8115L2.12587 47.3359C2.03693 47.5276 1.95828 47.7271 1.88558 47.9301C1.88269 47.9301 1.8806 47.9322 1.87851 47.9331C1.87364 47.9342 1.86886 47.9356 1.8642 47.9374C1.85926 47.9386 1.85446 47.9404 1.84989 47.9426C1.8449 47.9434 1.84005 47.9449 1.83542 47.9469C1.83052 47.9482 1.82567 47.9498 1.82093 47.9516C1.81546 47.9526 1.81145 47.9555 1.80646 47.9564C1.80128 47.9578 1.79626 47.9596 1.7915 47.9621C1.78603 47.963 1.78265 47.9648 1.7767 47.9664C1.77189 47.9677 1.76723 47.9693 1.76272 47.9714C1.7578 47.9726 1.75295 47.9741 1.74823 47.9759C1.74368 47.9781 1.73879 47.9796 1.73376 47.9802C1.72893 47.9815 1.72427 47.9843 1.71929 47.9852C1.7143 47.9862 1.70948 47.9894 1.70482 47.9901L1.69051 47.9954C1.68552 47.9963 1.68068 47.998 1.67617 48.0003C1.67103 48.0013 1.66669 48.0032 1.6617 48.0047C1.65672 48.0061 1.65157 48.0089 1.64674 48.0098C1.64184 48.011 1.63701 48.0124 1.63227 48.0142C1.62729 48.0164 1.62294 48.0182 1.61827 48.0198C1.61331 48.0209 1.60847 48.0224 1.6038 48.0245C1.59848 48.0252 1.5934 48.0272 1.589 48.0303C1.5842 48.0308 1.57953 48.0322 1.57518 48.0343C1.57004 48.0353 1.56498 48.0368 1.56006 48.0386C1.55524 48.0396 1.55057 48.0421 1.54575 48.0431C1.54105 48.0451 1.5362 48.0468 1.53126 48.0481C1.52638 48.0502 1.5214 48.052 1.51632 48.0534C1.51181 48.0544 1.50747 48.0569 1.50201 48.0581C1.49654 48.0592 1.49298 48.0619 1.48752 48.0629C1.48281 48.0648 1.47798 48.0664 1.47305 48.0676C1.46806 48.0685 1.46404 48.071 1.45858 48.0719C1.45394 48.0744 1.44908 48.0764 1.44409 48.078C1.4391 48.0788 1.43428 48.0814 1.42962 48.0824C1.42495 48.0833 1.42029 48.0857 1.41515 48.0867C1.41069 48.089 1.40592 48.0907 1.40099 48.0917C1.39628 48.0936 1.39145 48.0952 1.38652 48.0965C1.38154 48.0978 1.37667 48.0996 1.37203 48.1018C1.36707 48.103 1.36223 48.1047 1.35756 48.1068C1.35258 48.1078 1.3476 48.1103 1.34309 48.1112C1.33859 48.112 1.33329 48.1147 1.32862 48.1157C1.32367 48.1172 1.31886 48.1192 1.31429 48.1216C1.30931 48.1226 1.30447 48.1242 1.29982 48.1263C1.29473 48.1274 1.28973 48.1289 1.28486 48.1308C1.27985 48.1319 1.275 48.1335 1.27039 48.1358C1.26557 48.1367 1.26107 48.1391 1.25592 48.1401C1.25077 48.1411 1.24659 48.143 1.24112 48.1445C1.23647 48.1468 1.23169 48.1488 1.22681 48.1506C1.22214 48.1514 1.2178 48.1536 1.21234 48.1552C1.20687 48.1568 1.20331 48.1581 1.19785 48.1596C1.19238 48.161 1.18884 48.1634 1.18338 48.1646C1.17791 48.1657 1.17389 48.1681 1.16891 48.1691C1.16435 48.1713 1.15946 48.1727 1.15444 48.1734C1.14945 48.1753 1.14511 48.1776 1.14012 48.1794C1.13538 48.1808 1.13053 48.182 1.12563 48.1829C1.12092 48.185 1.11609 48.1869 1.11116 48.1885C1.10626 48.1898 1.10147 48.1914 1.09685 48.1935C1.09187 48.1945 1.08721 48.1974 1.08238 48.198C1.07756 48.1987 1.07288 48.2017 1.06789 48.203C1.06291 48.2043 1.05792 48.2073 1.05358 48.2083C1.04924 48.2093 1.0441 48.2115 1.03911 48.2127C1.03408 48.2137 1.02922 48.2155 1.02464 48.2178C1.01962 48.2185 1.01473 48.2199 1.01015 48.2221C1.00468 48.2234 1.0002 48.2261 0.99521 48.2271C0.990224 48.2281 0.985868 48.2307 0.980721 48.2316C0.97592 48.2338 0.97099 48.2357 0.965937 48.2372C0.961158 48.2384 0.95651 48.2401 0.952096 48.2422C0.94675 48.243 0.941608 48.2448 0.936978 48.2475C0.93213 48.2484 0.927348 48.2496 0.922665 48.2511C0.918162 48.2519 0.913664 48.2551 0.908195 48.2561C0.902727 48.2571 0.8987 48.2594 0.894197 48.2604C0.889693 48.2614 0.884379 48.2639 0.879393 48.266C0.87438 48.2672 0.869526 48.2689 0.864924 48.2712C0.859777 48.272 0.85544 48.2746 0.850454 48.2755C0.845468 48.2765 0.84095 48.2791 0.835964 48.2799C0.831362 48.2822 0.826508 48.2839 0.821495 48.285C0.816799 48.2869 0.811963 48.2883 0.807025 48.2893C0.802502 48.2918 0.797697 48.2937 0.792712 48.295C0.787244 48.296 0.783228 48.2989 0.778242 48.3C0.773257 48.3011 0.768253 48.3035 0.76391 48.3045C0.759157 48.3056 0.754497 48.3071 0.749931 48.3088C0.745043 48.3108 0.740046 48.3124 0.734971 48.3138L0.72001 48.3193C0.705535 48.3239 0.705526 48.3239 0.691051 48.3286C0.686226 48.3299 0.682207 48.3323 0.676738 48.3333C0.67127 48.3342 0.667266 48.3371 0.661797 48.3378L0.647956 48.3437C0.643038 48.3448 0.638207 48.3463 0.633486 48.348C0.628759 48.3498 0.62391 48.3513 0.618997 48.3524C0.614011 48.3537 0.609038 48.3566 0.604213 48.3576C0.599388 48.3585 0.594557 48.3616 0.590214 48.3622C0.585872 48.3629 0.580248 48.3661 0.575744 48.3675C0.570782 48.3688 0.565943 48.3704 0.561275 48.3725C0.556352 48.3737 0.551502 48.3752 0.546785 48.377C0.541317 48.378 0.53698 48.381 0.532315 48.382C0.527651 48.383 0.522498 48.3855 0.517512 48.3863C0.512885 48.3886 0.508038 48.3903 0.503042 48.3915C0.498056 48.3931 0.493555 48.3949 0.488729 48.3968C0.483713 48.3977 0.478848 48.3992 0.47426 48.4015C0.469278 48.4026 0.464413 48.4043 0.45977 48.4064C0.454562 48.4071 0.449519 48.4086 0.444829 48.411C0.439843 48.4119 0.435978 48.4143 0.430831 48.4153C0.4262 48.4177 0.42136 48.4197 0.416361 48.4212C0.411283 48.4222 0.406316 48.4237 0.401558 48.4258C0.396598 48.4269 0.391758 48.4284 0.387088 48.4304C0.382182 48.4317 0.377336 48.4332 0.372598 48.4351C0.367656 48.4363 0.362822 48.4379 0.358129 48.4399C0.353303 48.4407 0.348802 48.4433 0.343816 48.4443C0.33883 48.4452 0.334328 48.4483 0.329503 48.4502C0.324545 48.4511 0.319702 48.4526 0.315033 48.4545C0.214976 48.485 0.128866 48.5498 0.0718551 48.6375C0.0148439 48.7252 -0.00943555 48.8302 0.00331513 48.934L0.0700684 52.3643C0.073957 52.5063 0.114634 52.6447 0.188104 52.7663C0.261574 52.8878 0.365313 52.9881 0.489201 53.0575L1.82527 53.7275C1.95006 54.1741 2.10081 54.613 2.27674 55.0419L1.56713 56.1989C1.50708 56.3227 1.48306 56.4609 1.49782 56.5976C1.51258 56.7344 1.56554 56.8642 1.65061 56.9723L3.77026 59.9125C3.82864 60.0105 3.91531 60.0885 4.01886 60.1362C4.12242 60.184 4.23801 60.1992 4.35041 60.18C4.35556 60.1787 4.36006 60.1758 4.36537 60.1743C4.37035 60.1731 4.37519 60.1714 4.37984 60.1692C4.38457 60.168 4.38925 60.1666 4.39384 60.1649C4.39882 60.1639 4.40332 60.1609 4.40831 60.1599C4.41303 60.1581 4.41786 60.1566 4.42278 60.1554C4.4276 60.1532 4.43261 60.1516 4.43774 60.1504L4.45205 60.1451C4.45691 60.1442 4.46162 60.1426 4.46605 60.1404C4.47098 60.1393 4.47578 60.1377 4.48036 60.1356C4.48556 60.1348 4.49061 60.1332 4.49532 60.1309C4.50006 60.1292 4.50489 60.1278 4.50979 60.1266C4.51442 60.1244 4.51927 60.1226 4.52426 60.1214C4.52927 60.1204 4.53409 60.1186 4.53857 60.1161C4.54355 60.1152 4.54842 60.1138 4.55306 60.1118C4.55853 60.1105 4.56255 60.1076 4.56753 60.1066C4.57258 60.1059 4.57747 60.1043 4.582 60.102C4.58683 60.101 4.59199 60.0986 4.59649 60.0977C4.60123 60.0957 4.60605 60.0941 4.61096 60.0927C4.61599 60.0911 4.62093 60.0893 4.62577 60.0872C4.63075 60.0872 4.63525 60.0838 4.64024 60.0828C4.64522 60.0819 4.64972 60.0788 4.65455 60.0779C4.65949 60.0767 4.66432 60.0752 4.66902 60.0733C4.67364 60.0712 4.6785 60.0696 4.68349 60.0687L4.69798 60.0627C4.70296 60.0618 4.70729 60.0593 4.71276 60.0584C4.71823 60.0574 4.72226 60.0548 4.72676 60.0539C4.73126 60.0529 4.73673 60.0498 4.74123 60.0489C4.74573 60.0479 4.75122 60.0455 4.75572 60.0446C4.76022 60.0436 4.76569 60.041 4.77068 60.0389C4.77547 60.0377 4.78009 60.036 4.7845 60.0338C4.7894 60.0323 4.7944 60.0311 4.79946 60.0304C4.80377 60.0279 4.80843 60.0261 4.81328 60.0251C4.81891 60.0241 4.82343 60.0209 4.82777 60.0201C4.83289 60.0192 4.83778 60.0173 4.84224 60.0146C4.84718 60.0134 4.85201 60.0119 4.85671 60.01C4.86218 60.009 4.86702 60.0071 4.8712 60.0061L4.88614 60.0005C4.89097 60.0005 4.89595 59.9968 4.90046 59.9961C4.90556 59.9945 4.91056 59.9925 4.91542 59.9902C4.92036 59.9892 4.92521 59.9877 4.92991 59.9859C4.93462 59.9839 4.93945 59.9823 4.94438 59.981C4.94872 59.9801 4.95322 59.9783 4.95869 59.9773C4.96326 59.975 4.96813 59.9733 4.97316 59.9724C4.97755 59.9699 4.98226 59.968 4.98716 59.9669C4.99231 59.9656 4.99729 59.9637 5.00196 59.9612C5.00698 59.9606 5.01186 59.9591 5.01643 59.9569C5.02138 59.9556 5.02621 59.954 5.0309 59.9519C5.03589 59.951 5.04075 59.9495 5.04537 59.9474C5.04996 59.9451 5.05484 59.9435 5.05986 59.9424C5.06455 59.9407 5.06933 59.9393 5.07417 59.9381C5.07964 59.9368 5.08414 59.9345 5.08848 59.9332C5.09347 59.9317 5.0983 59.9297 5.10295 59.9273C5.10799 59.9267 5.11287 59.9252 5.11742 59.923C5.12253 59.922 5.12754 59.9205 5.13238 59.9186C5.13737 59.9177 5.1414 59.9145 5.14638 59.9135C5.15137 59.9125 5.1562 59.9101 5.16134 59.9091C5.1659 59.907 5.17071 59.9056 5.17566 59.9048C5.18064 59.9031 5.18547 59.901 5.19013 59.8985C5.19511 59.8976 5.19998 59.8961 5.20462 59.894C5.20955 59.893 5.21439 59.8915 5.21908 59.8897C5.22398 59.8884 5.22876 59.8867 5.2334 59.8847C5.2381 59.8828 5.24293 59.8813 5.24787 59.8802C5.25276 59.8787 5.25754 59.8767 5.26218 59.8745C5.26731 59.8735 5.27233 59.872 5.27714 59.8699C5.28164 59.8686 5.28662 59.8664 5.29161 59.8652C5.2966 59.8641 5.30111 59.8623 5.3061 59.8607C5.31109 59.8591 5.31542 59.8567 5.32057 59.8557C5.32519 59.8537 5.33005 59.8522 5.33504 59.8514C5.33955 59.8492 5.34437 59.8476 5.34935 59.8469C5.35397 59.8444 5.35883 59.8424 5.36384 59.8409C5.36869 59.8396 5.37347 59.8381 5.37815 59.8363C5.38362 59.8353 5.3878 59.8327 5.39262 59.8319C5.39745 59.8311 5.40227 59.8281 5.40709 59.8268C5.41182 59.825 5.41667 59.8236 5.42158 59.8224C5.42705 59.8205 5.43138 59.8184 5.43637 59.8171C5.44135 59.8158 5.44587 59.813 5.45086 59.812C5.45584 59.811 5.45986 59.8086 5.46533 59.8076C5.47003 59.8057 5.47486 59.8042 5.4798 59.803C5.4848 59.8015 5.48965 59.7995 5.49427 59.797C5.49909 59.7961 5.50361 59.7941 5.50875 59.7925C5.51369 59.7915 5.51853 59.79 5.52322 59.7882C5.52805 59.7872 5.53304 59.7842 5.53738 59.7832C5.54212 59.7815 5.54695 59.78 5.55185 59.7788C5.55683 59.7773 5.56167 59.7754 5.56632 59.7731C5.5715 59.7721 5.57654 59.7704 5.58128 59.7681C5.58578 59.7671 5.5906 59.7653 5.59575 59.7637C5.6009 59.7621 5.60509 59.7609 5.61024 59.7596C5.61539 59.7583 5.61957 59.7552 5.62455 59.7543C5.62923 59.7522 5.63407 59.7505 5.63902 59.7493C5.64406 59.7482 5.64892 59.7463 5.65349 59.7439C5.65829 59.7431 5.66296 59.7416 5.66733 59.7395C5.67245 59.7382 5.67746 59.7366 5.68229 59.7345C5.68776 59.7345 5.69178 59.7321 5.69676 59.7311C5.70141 59.7285 5.7064 59.7265 5.71157 59.7253C5.71622 59.7232 5.72106 59.7215 5.72604 59.7203H5.72716C6.0023 59.9407 6.28923 60.146 6.58666 60.3353L6.90657 61.9645C6.92966 62.1021 6.98976 62.2309 7.08042 62.337C7.17108 62.4432 7.2889 62.5226 7.42126 62.5669L10.351 63.2959C10.435 63.319 10.5242 63.3137 10.6048 63.2807C10.61 63.2788 10.6145 63.2779 10.6193 63.2758C10.6241 63.2737 10.6295 63.2732 10.6338 63.2704C10.6388 63.2695 10.6436 63.268 10.6483 63.266C10.6532 63.2646 10.658 63.2629 10.6627 63.2609C10.6672 63.2593 10.6726 63.2584 10.6775 63.2566C10.6826 63.2552 10.6874 63.2533 10.692 63.2508C10.6969 63.2497 10.7017 63.2484 10.7065 63.2468C10.7114 63.2453 10.7163 63.2436 10.721 63.2415C10.7258 63.2399 10.7308 63.2389 10.7354 63.237C10.7404 63.2359 10.7452 63.2342 10.7498 63.232C10.7548 63.2309 10.7597 63.229 10.7642 63.2264C10.7693 63.226 10.7742 63.2245 10.7786 63.2221C10.7837 63.2201 10.788 63.2201 10.793 63.2182C10.7979 63.216 10.8029 63.2141 10.808 63.2126C10.8125 63.2106 10.8175 63.2102 10.8225 63.2082C10.8274 63.2069 10.8322 63.2052 10.8369 63.2032C10.8416 63.2011 10.8464 63.1996 10.8514 63.1987C10.8557 63.1966 10.8607 63.1957 10.8657 63.1931C10.8707 63.1905 10.8752 63.1902 10.8802 63.1894C10.8848 63.1869 10.8896 63.185 10.8947 63.1836C10.899 63.1818 10.9046 63.1809 10.909 63.1793C10.9133 63.1777 10.9189 63.1762 10.9234 63.1742C10.928 63.1723 10.9334 63.1714 10.9379 63.1699C10.9426 63.1681 10.9474 63.1667 10.9523 63.1654C10.9569 63.1632 10.9622 63.1624 10.9672 63.1595C10.9718 63.1576 10.9764 63.1561 10.9812 63.1548C10.9862 63.1529 10.9912 63.1519 10.9957 63.1503C11.0002 63.1487 11.0055 63.1476 11.0106 63.1453C11.0153 63.1436 11.0201 63.1422 11.025 63.141C11.0295 63.1391 11.0349 63.1378 11.0394 63.1357C11.0439 63.1336 11.0489 63.1324 11.0537 63.1305C11.0586 63.1286 11.0639 63.1275 11.0682 63.1259C11.0725 63.1242 11.0783 63.123 11.0832 63.1212C11.088 63.1195 11.092 63.1186 11.0976 63.1164C11.1024 63.1143 11.1072 63.1126 11.1121 63.1111C11.117 63.1098 11.1218 63.1081 11.1264 63.1061C11.1313 63.1052 11.136 63.1038 11.1404 63.1017C11.1454 63.0998 11.1499 63.0985 11.1554 63.0966C11.1608 63.0946 11.1649 63.0942 11.1699 63.0922C11.1749 63.0903 11.1797 63.0889 11.1843 63.0876C11.1889 63.0855 11.1937 63.0839 11.1987 63.0827C11.2036 63.0812 11.2084 63.0793 11.2131 63.0771C11.218 63.0759 11.2227 63.0745 11.2274 63.0728C11.2321 63.0708 11.2376 63.0696 11.2419 63.0678C11.2463 63.0661 11.252 63.0652 11.2564 63.0633C11.2607 63.0613 11.2662 63.0609 11.2709 63.0589C11.2755 63.057 11.2807 63.0559 11.2858 63.053C11.2906 63.0518 11.2953 63.0502 11.2998 63.0483C11.3046 63.0464 11.3096 63.0458 11.3141 63.0439C11.319 63.0425 11.3238 63.0408 11.3284 63.0388C11.3336 63.0369 11.3386 63.0363 11.3436 63.0345C11.3481 63.0322 11.3529 63.0304 11.3579 63.0292C11.3627 63.0271 11.3677 63.0255 11.3728 63.0241C11.3777 63.0229 11.3825 63.0213 11.3871 63.0194C11.3918 63.0184 11.3962 63.0165 11.4011 63.015C11.4062 63.0136 11.411 63.0116 11.4156 63.0091C11.4207 63.0079 11.4257 63.0064 11.4306 63.0046C11.4351 63.0027 11.4401 63.0027 11.4446 63.0003C11.4491 62.9979 11.4545 62.997 11.459 62.9953C11.4636 62.9935 11.4693 62.9921 11.4735 62.9908C11.4784 62.989 11.4833 62.9873 11.4883 62.9861C11.4928 62.9841 11.4983 62.9832 11.5026 62.9811C11.5076 62.9796 11.5124 62.9778 11.5171 62.9756C11.5221 62.9747 11.5269 62.9732 11.5316 62.9713C11.5366 62.9691 11.5416 62.9682 11.5461 62.9663C11.5506 62.9643 11.556 62.9631 11.56 62.962C11.5641 62.9608 11.5703 62.9588 11.575 62.9572C11.5797 62.9556 11.5848 62.9544 11.5893 62.9525C11.5938 62.9505 11.5993 62.9493 11.6038 62.9469C11.609 62.9461 11.614 62.9445 11.6188 62.9423C11.6231 62.9406 11.6281 62.9393 11.6332 62.9374C11.638 62.9357 11.6428 62.9342 11.6477 62.933C11.6524 62.931 11.6571 62.9294 11.662 62.928C11.6667 62.9262 11.6714 62.9247 11.6763 62.9236C11.6815 62.9213 11.6858 62.9205 11.6908 62.9179C11.6958 62.9153 11.7003 62.9151 11.7058 62.9129C11.7105 62.9117 11.7152 62.9103 11.7198 62.9086C11.7247 62.9066 11.7296 62.9057 11.7342 62.9035C11.7391 62.9023 11.744 62.9008 11.7487 62.8991C11.7535 62.8974 11.759 62.8956 11.763 62.8938C11.768 62.8924 11.7728 62.8907 11.7775 62.8886C11.7824 62.8875 11.7871 62.886 11.7918 62.8843C11.7968 62.8832 11.8016 62.8817 11.8063 62.8797C11.8112 62.8782 11.816 62.8765 11.8208 62.8746C11.8257 62.8736 11.8306 62.8721 11.8352 62.8702C11.8407 62.8684 11.8457 62.8667 11.85 62.8658C11.8544 62.8648 11.86 62.8616 11.864 62.8599C11.8691 62.8587 11.8741 62.8571 11.879 62.8553C11.8842 62.854 11.8892 62.8521 11.8939 62.8497C11.8988 62.8488 11.9037 62.8475 11.9084 62.846C11.9128 62.8437 11.9178 62.8434 11.9229 62.8413C11.9281 62.8392 11.9322 62.8378 11.9372 62.8358C11.9421 62.8346 11.9469 62.8329 11.9515 62.8309C11.9562 62.829 11.9612 62.8283 11.966 62.8266C11.9707 62.8246 11.9755 62.823 11.9805 62.8217C11.985 62.8199 11.9906 62.819 11.995 62.8171C11.9996 62.8148 12.0045 62.8129 12.0094 62.8114C12.0139 62.8095 12.0192 62.8085 12.0239 62.8071C12.029 62.8064 12.0338 62.8046 12.0382 62.8019C12.0434 62.8001 12.0487 62.7992 12.0527 62.7976C12.0577 62.7961 12.0625 62.7942 12.0672 62.7919C12.0722 62.7913 12.077 62.7897 12.0815 62.7873C12.0865 62.785 12.0914 62.7841 12.096 62.7825C12.1005 62.7809 12.1064 62.7797 12.1104 62.7781C12.1154 62.777 12.1202 62.7754 12.1248 62.7732C12.1294 62.7712 12.1343 62.7696 12.1392 62.7686C12.1444 62.7668 12.1492 62.7656 12.1542 62.7633C12.1591 62.7623 12.1639 62.7609 12.1687 62.7593C12.1734 62.7572 12.1782 62.7553 12.1831 62.7537C12.1881 62.7518 12.1929 62.7507 12.1981 62.7488C12.203 62.7479 12.2078 62.7463 12.2124 62.7442C12.2171 62.7421 12.2219 62.7404 12.2269 62.7392C12.2319 62.7381 12.2368 62.7363 12.2414 62.7339C12.2457 62.7323 12.2508 62.7323 12.2557 62.7304C12.2605 62.7284 12.2656 62.7271 12.2701 62.7244C12.2746 62.7217 12.2801 62.7218 12.2846 62.7201C12.2891 62.7183 12.2939 62.7175 12.2989 62.7152C12.3036 62.7133 12.3085 62.7118 12.3134 62.7106C12.3185 62.7094 12.3233 62.7075 12.3279 62.7049C12.3329 62.7041 12.3377 62.7026 12.3424 62.7006C12.3472 62.6987 12.3522 62.6974 12.3568 62.6955C12.3615 62.6936 12.3666 62.693 12.3713 62.6911C12.376 62.6892 12.3811 62.6885 12.3856 62.6868C12.3901 62.685 12.3956 62.6835 12.3999 62.6816C12.4051 62.6806 12.4099 62.6787 12.4144 62.676C12.4195 62.6749 12.4245 62.6734 12.4294 62.6716C12.4344 62.6702 12.4392 62.6682 12.4438 62.6657C12.4488 62.665 12.4536 62.6639 12.4583 62.6622C12.4628 62.6604 12.4676 62.6597 12.4731 62.6578C12.4827 62.6544 12.4923 62.6512 12.5021 62.6483C12.5061 62.6462 12.5116 62.6446 12.5165 62.6427C12.5215 62.6408 12.5265 62.6398 12.531 62.6377C12.5355 62.6356 12.5403 62.6351 12.5448 62.6334C12.5494 62.6316 12.5548 62.6305 12.5597 62.6289C12.5645 62.6273 12.5693 62.6258 12.5741 62.6239C12.5789 62.6219 12.5842 62.6204 12.5886 62.6186C12.5932 62.6167 12.5978 62.6151 12.6026 62.6137C12.6077 62.6124 12.6127 62.6107 12.6176 62.6088C12.6225 62.607 12.627 62.606 12.632 62.6044C12.637 62.6028 12.6418 62.6015 12.6465 62.6001C12.6508 62.5976 12.6554 62.5956 12.6602 62.594L12.6753 62.5896C12.68 62.5878 12.6847 62.5863 12.6896 62.585C12.6946 62.5831 12.6997 62.5821 12.7046 62.5801C12.7093 62.5783 12.7141 62.5767 12.719 62.5755C12.7235 62.5736 12.7285 62.5718 12.7335 62.5702C12.7384 62.5688 12.7431 62.5671 12.7478 62.5652C12.7525 62.5642 12.7573 62.5619 12.7623 62.5607C12.7673 62.5594 12.7718 62.5576 12.7772 62.5557C12.7827 62.5538 12.7867 62.5533 12.7912 62.5514C12.7958 62.5495 12.8012 62.5481 12.8057 62.5457C12.8108 62.545 12.8158 62.5432 12.8202 62.5405C12.8245 62.5393 12.83 62.5382 12.835 62.5362C12.8397 62.535 12.8444 62.5334 12.8488 62.5313C12.8535 62.53 12.859 62.5277 12.8633 62.5267C12.8682 62.5256 12.873 62.5242 12.8778 62.5224C12.8829 62.5207 12.8879 62.5187 12.8927 62.5164C12.8976 62.5156 12.9023 62.5141 12.9067 62.5118C12.9118 62.5113 12.9167 62.5097 12.9212 62.5072C12.9261 62.506 12.9309 62.5044 12.9355 62.5023C12.9406 62.5011 12.9456 62.4997 12.9505 62.498C12.9554 62.4966 12.9603 62.4948 12.965 62.4926C12.9702 62.4918 12.9752 62.49 12.9799 62.4875C12.9848 62.4864 12.9897 62.485 12.9944 62.4831C12.9987 62.4809 13.0037 62.4806 13.0082 62.4785C13.0127 62.4764 13.0182 62.4756 13.0227 62.4733C13.0277 62.4722 13.0326 62.4707 13.0375 62.469C13.0422 62.4671 13.047 62.4663 13.0515 62.4647C13.0566 62.4631 13.0616 62.4611 13.0664 62.4587C13.071 62.4568 13.0763 62.4562 13.0809 62.4542C13.0857 62.4524 13.0905 62.4508 13.0954 62.4495C13.0997 62.4476 13.1052 62.4467 13.1097 62.4449C13.1144 62.443 13.1193 62.4414 13.1242 62.44C13.1288 62.4381 13.1336 62.4367 13.1385 62.4357C13.1435 62.4338 13.1486 62.4317 13.153 62.4297C13.1579 62.4286 13.1627 62.4272 13.1674 62.4254C13.1722 62.4236 13.177 62.4221 13.1819 62.4209C13.1874 62.4187 13.1917 62.4178 13.1962 62.4159C13.2007 62.414 13.2062 62.4127 13.2107 62.4113C13.2155 62.4092 13.2205 62.4077 13.2257 62.4067C13.2307 62.4054 13.2356 62.4035 13.2401 62.4008C13.2451 62.3991 13.2496 62.398 13.2546 62.3964C13.2593 62.3946 13.2642 62.3932 13.2691 62.3921C13.2738 62.3902 13.2786 62.3884 13.2834 62.3869C13.2884 62.3848 13.2934 62.3839 13.2977 62.3826C13.3021 62.3813 13.3053 62.3804 13.3079 62.3785C13.3692 62.4445 13.4472 62.4929 13.5337 62.5183C13.6202 62.5438 13.712 62.5454 13.7994 62.5232C13.8045 62.5209 13.8095 62.52 13.8138 62.5182C13.8182 62.5165 13.8233 62.5156 13.8283 62.5138C13.8333 62.5121 13.8383 62.5113 13.8428 62.5091C13.8473 62.5068 13.8528 62.5053 13.8577 62.5031C13.8625 62.502 13.8672 62.5006 13.8717 62.4988C13.8768 62.4977 13.8818 62.4962 13.8866 62.4943C13.8915 62.4931 13.8964 62.4914 13.901 62.4893C13.906 62.4873 13.9105 62.4867 13.9155 62.4849C13.9201 62.4829 13.9249 62.4813 13.9298 62.4804C13.9345 62.4783 13.9393 62.4767 13.9443 62.4754C13.9493 62.4734 13.9543 62.472 13.9588 62.4698C13.9637 62.4686 13.9685 62.4672 13.9732 62.4655C13.9782 62.4642 13.983 62.4624 13.9877 62.4603C13.9923 62.4585 13.9972 62.457 14.002 62.456C14.0068 62.4538 14.0118 62.4523 14.017 62.4516C14.0215 62.4494 14.0262 62.4474 14.031 62.4457C14.0363 62.4444 14.0409 62.4425 14.0459 62.4409C14.0509 62.4393 14.0553 62.4371 14.0598 62.4365C14.0645 62.4345 14.0693 62.4329 14.0742 62.4315C14.0797 62.4296 14.0842 62.4277 14.0886 62.4262C14.0929 62.4248 14.0987 62.423 14.1035 62.422C14.1084 62.4205 14.1133 62.4187 14.118 62.4167C14.123 62.4157 14.1281 62.4135 14.1329 62.4121C14.1374 62.41 14.1421 62.4085 14.1469 62.4076C14.1521 62.4062 14.1571 62.4041 14.1619 62.4016C14.1662 62.4007 14.1712 62.3989 14.1762 62.3973C14.1812 62.3957 14.1852 62.394 14.1902 62.3932C14.1953 62.3917 14.2003 62.3899 14.2052 62.3878C14.2095 62.3868 14.2151 62.3847 14.2196 62.3834C14.2241 62.3821 14.2294 62.3793 14.2339 62.3785C14.239 62.3771 14.2438 62.3752 14.2484 62.3728C14.2533 62.3716 14.2581 62.3701 14.2627 62.3683C14.2678 62.3673 14.2726 62.3656 14.2772 62.3633C14.2822 62.3625 14.2871 62.3611 14.2917 62.359C14.2967 62.357 14.3012 62.3558 14.3062 62.3539C14.3111 62.3528 14.3159 62.3513 14.3206 62.3495C14.3256 62.348 14.3304 62.3461 14.3351 62.3439C14.3445 62.3404 14.354 62.3376 14.3637 62.3353C14.3694 62.3331 14.3739 62.332 14.3787 62.33C14.3835 62.3281 14.3884 62.3271 14.3932 62.3251C14.398 62.323 14.4028 62.3215 14.4077 62.3205L14.4221 62.3152C14.4272 62.3141 14.4322 62.3125 14.4369 62.3102C14.4416 62.3086 14.4459 62.3077 14.4509 62.3056C14.4559 62.3035 14.4604 62.3034 14.4654 62.3011C14.4703 62.2997 14.4751 62.298 14.4799 62.2961C14.4847 62.2951 14.4897 62.2927 14.4943 62.2918C14.499 62.2908 14.5042 62.2882 14.5093 62.2863C14.5141 62.2849 14.5188 62.2833 14.5235 62.2813C14.5284 62.2803 14.5332 62.2788 14.5379 62.277C14.5426 62.2757 14.5476 62.2738 14.5524 62.2723C14.5572 62.2709 14.5625 62.2694 14.5669 62.2671C14.5719 62.2659 14.5767 62.2641 14.5814 62.2618C14.5863 62.2607 14.5911 62.2593 14.5958 62.2575C14.6013 62.2565 14.6052 62.2533 14.6103 62.2525C14.6155 62.2517 14.6201 62.2493 14.6246 62.248C14.6291 62.2467 14.6341 62.2449 14.6391 62.2433C14.6439 62.2413 14.6489 62.2396 14.6541 62.2385C14.6588 62.2363 14.6636 62.2345 14.6685 62.2329C14.6734 62.2318 14.6782 62.2303 14.6828 62.2285C14.6878 62.2276 14.6923 62.2245 14.6973 62.2235C14.7022 62.2224 14.707 62.2209 14.7116 62.2191C14.7163 62.2169 14.7211 62.2153 14.7261 62.2141C14.7308 62.2124 14.7357 62.2109 14.7406 62.2097C14.7456 62.2075 14.7506 62.2057 14.7551 62.2041C14.7601 62.2031 14.765 62.2013 14.7695 62.199C14.7746 62.1984 14.7795 62.1969 14.784 62.1946C14.7888 62.1925 14.7937 62.1908 14.7988 62.1896C14.8038 62.1884 14.8087 62.1866 14.8133 62.1843C14.8178 62.1843 14.8228 62.1818 14.8276 62.1808C14.8322 62.1786 14.8371 62.1769 14.8421 62.1758C14.8471 62.1742 14.8516 62.1723 14.8566 62.1705C14.8615 62.1693 14.8663 62.1677 14.871 62.1657C14.876 62.1643 14.8808 62.1623 14.8853 62.1597C14.8904 62.159 14.8952 62.1576 14.8998 62.1554C14.9048 62.1544 14.9096 62.1529 14.9143 62.151C14.9191 62.1501 14.9238 62.1478 14.9292 62.1469C14.9347 62.1459 14.9383 62.1434 14.9437 62.1415C14.9492 62.1396 14.953 62.138 14.9582 62.1369C14.9631 62.1352 14.968 62.1332 14.9727 62.1309C14.9775 62.1297 14.9822 62.1282 14.9868 62.1264C14.9918 62.1253 14.9966 62.1239 15.0013 62.1221C15.0063 62.1211 15.0108 62.1188 15.0158 62.1179C15.0203 62.1155 15.0252 62.1137 15.0303 62.1126C15.0348 62.1118 15.0401 62.1092 15.0447 62.1079C15.0494 62.1066 15.0545 62.1042 15.0592 62.1033C15.0639 62.1023 15.069 62.0997 15.0735 62.0976C15.0786 62.0966 15.0836 62.0951 15.0885 62.0931C15.0928 62.0914 15.098 62.0901 15.103 62.0882C15.1079 62.0862 15.1124 62.0856 15.1168 62.0838C15.1215 62.0819 15.1263 62.0804 15.1313 62.0793C15.1361 62.0772 15.1411 62.0755 15.1462 62.0743C15.1512 62.072 15.1557 62.0709 15.1602 62.0687C15.1651 62.0676 15.1699 62.0661 15.1745 62.0643C15.1801 62.0624 15.1845 62.0614 15.1895 62.0592C15.1945 62.0569 15.199 62.0565 15.2044 62.0549C15.209 62.0525 15.2139 62.0511 15.2189 62.0505C15.2233 62.0495 15.2278 62.0463 15.2334 62.0444C15.239 62.0425 15.2422 62.0413 15.2477 62.0397C15.2524 62.038 15.2573 62.0365 15.2622 62.0354C15.267 62.0335 15.2712 62.0325 15.2765 62.0304C15.2818 62.0283 15.2861 62.0275 15.291 62.0259C15.2957 62.0239 15.3005 62.0222 15.3055 62.0209C15.3102 62.0191 15.315 62.0177 15.3199 62.0166C15.3245 62.0145 15.3292 62.0128 15.3339 62.0113C15.3389 62.01 15.3442 62.0071 15.3487 62.0061C15.3537 62.005 15.3585 62.0035 15.3632 62.0015C15.3679 61.9995 15.3727 61.998 15.3777 61.9968C15.3825 61.9952 15.3876 61.9932 15.3921 61.992C15.397 61.9906 15.4018 61.9888 15.4064 61.9867C15.4116 61.9854 15.4167 61.9838 15.4216 61.9817C15.4259 61.9817 15.4304 61.9781 15.4352 61.9771C15.4403 61.976 15.4453 61.9745 15.4502 61.9728C15.4551 61.9711 15.46 61.9691 15.4647 61.9669C15.4696 61.9659 15.4744 61.9647 15.4791 61.9632C15.4838 61.9611 15.4886 61.9596 15.4936 61.9587C15.4986 61.9569 15.5029 61.955 15.5081 61.9527C15.513 61.9517 15.5178 61.9503 15.5224 61.9484C15.5276 61.9474 15.5325 61.9455 15.5369 61.9428C15.5419 61.9416 15.5467 61.94 15.5514 61.9379L15.5663 61.9345C15.5709 61.9323 15.5757 61.9308 15.5806 61.9299C15.5851 61.9279 15.5901 61.926 15.5946 61.9238C15.5996 61.9226 15.6045 61.9208 15.6091 61.9184C15.6142 61.9174 15.6191 61.916 15.6239 61.9141C15.6286 61.9127 15.6333 61.911 15.6379 61.9091C15.6434 61.9082 15.6479 61.9066 15.6528 61.9056C15.6575 61.9035 15.6623 61.9019 15.6673 61.9009C15.6722 61.898 15.6771 61.8972 15.6813 61.895C15.686 61.8931 15.6907 61.8917 15.6956 61.8906C15.7011 61.8887 15.7056 61.8864 15.7104 61.8851C15.7154 61.884 15.7203 61.8824 15.7249 61.8802C15.73 61.8792 15.735 61.8771 15.7399 61.8766C15.7444 61.8741 15.7493 61.8722 15.7543 61.871C15.7588 61.8692 15.7637 61.8683 15.7688 61.8663C15.7735 61.8644 15.7783 61.8628 15.7833 61.8617C15.7879 61.8596 15.7927 61.8578 15.7976 61.8564C15.8026 61.8551 15.8074 61.8534 15.8121 61.8512C15.8172 61.8495 15.8216 61.8482 15.8266 61.8469C15.8315 61.8456 15.8365 61.8438 15.841 61.8419C15.8455 61.84 15.8508 61.8393 15.8553 61.8374C15.8598 61.8355 15.8653 61.8334 15.8698 61.8327C15.8747 61.8313 15.8795 61.8296 15.8841 61.8274C15.8891 61.8263 15.894 61.8246 15.8986 61.8224C15.9035 61.8213 15.9084 61.8197 15.9131 61.8179C15.9186 61.8162 15.9231 61.8149 15.928 61.8129C15.933 61.811 15.9378 61.8104 15.942 61.8086C15.9467 61.8064 15.9515 61.8048 15.9565 61.8036C15.962 61.802 15.9663 61.8001 15.971 61.7991C15.9756 61.7981 15.9808 61.7945 15.9851 61.7935C15.9904 61.7925 15.9954 61.7908 16.0003 61.7885C16.0051 61.7872 16.0097 61.7859 16.0152 61.784C16.0207 61.7821 16.0247 61.7816 16.0295 61.7796C16.0341 61.7774 16.039 61.7758 16.044 61.7747C16.0485 61.7731 16.0528 61.7711 16.0585 61.7694C16.0633 61.768 16.0681 61.7664 16.0728 61.7645C16.0778 61.7635 16.0827 61.7618 16.0873 61.7595C16.0922 61.7585 16.097 61.757 16.1017 61.7552C16.1061 61.7533 16.1112 61.7526 16.1162 61.7507C16.1212 61.7488 16.1256 61.7467 16.1307 61.7448C16.1357 61.7438 16.1405 61.7423 16.1452 61.7404C16.15 61.7394 16.1545 61.7369 16.1593 61.7357C16.1641 61.7346 16.1695 61.7319 16.1738 61.7309C16.179 61.7301 16.1839 61.7282 16.1883 61.7253C16.1937 61.7243 16.1984 61.7227 16.2028 61.7219C16.2071 61.7211 16.2127 61.7177 16.2172 61.7158C16.2222 61.7149 16.227 61.7135 16.2317 61.7115C16.2372 61.7105 16.2415 61.7081 16.246 61.7071C16.251 61.7056 16.2559 61.7036 16.2605 61.7012C16.2656 61.7001 16.2706 61.6985 16.2754 61.6964C16.2805 61.6952 16.2855 61.6937 16.2904 61.692C16.2952 61.6908 16.2999 61.6891 16.3044 61.687C16.3092 61.6858 16.314 61.6843 16.3187 61.6825C16.3236 61.6808 16.3285 61.6794 16.3335 61.6782C16.3381 61.6759 16.343 61.6742 16.348 61.6732C16.3527 61.671 16.3575 61.6691 16.3624 61.6676C16.367 61.6666 16.372 61.6647 16.3769 61.6631C16.3819 61.6614 16.3864 61.6603 16.3914 61.659C16.396 61.6566 16.4008 61.6548 16.4059 61.6537C16.4102 61.6518 16.4152 61.6508 16.4203 61.6487L16.4347 61.6433C16.4392 61.6423 16.4442 61.6402 16.4492 61.6389C16.454 61.6375 16.4588 61.6359 16.4635 61.634C16.4685 61.6331 16.4734 61.6315 16.4779 61.6293C16.4829 61.6274 16.4874 61.6264 16.4924 61.6245C16.4974 61.6225 16.5024 61.6207 16.5069 61.6198C16.5114 61.6188 16.5167 61.6162 16.5212 61.6153C16.5257 61.6143 16.5312 61.6113 16.5357 61.6093C16.5408 61.6086 16.5459 61.6072 16.5506 61.605C16.5556 61.604 16.5604 61.6025 16.5651 61.6007C16.5698 61.5987 16.5747 61.597 16.5796 61.5957C16.5843 61.5938 16.5891 61.5922 16.5939 61.5908C16.5989 61.5899 16.6034 61.5875 16.6089 61.5865C16.6143 61.5855 16.6179 61.5825 16.6227 61.5806C16.6275 61.5786 16.6328 61.577 16.6377 61.576C16.6424 61.5751 16.6471 61.5736 16.6516 61.5717C16.6566 61.5694 16.6616 61.5686 16.6661 61.5667C16.6709 61.565 16.6757 61.5636 16.6806 61.5624C16.6853 61.5602 16.6903 61.5586 16.6954 61.5575C16.751 61.5415 16.8018 61.5123 16.8437 61.4725L18.8678 59.5619C19.0354 59.4043 19.0584 59.0972 18.9225 58.8249L18.1601 57.3004C18.2492 57.1095 18.3284 56.9103 18.4014 56.7064C18.4034 56.7051 18.4056 56.7041 18.4078 56.7034C18.4128 56.7024 18.4176 56.6998 18.4223 56.6988C18.427 56.6971 18.4319 56.6957 18.4368 56.6945C18.4416 56.6935 18.4466 56.6903 18.4511 56.6895C18.4556 56.6873 18.4604 56.6858 18.4654 56.685C18.4701 56.683 18.4749 56.6813 18.4799 56.68C18.4848 56.6785 18.4896 56.6766 18.4943 56.6744C18.4993 56.6733 18.5041 56.6719 18.5088 56.6701C18.5138 56.6687 18.5186 56.6669 18.5233 56.6649C18.5282 56.6639 18.5331 56.6624 18.5378 56.6606C18.5424 56.6582 18.5474 56.6564 18.5526 56.6553C18.5575 56.6539 18.5623 56.6521 18.567 56.6501C18.572 56.6493 18.5769 56.6478 18.5815 56.6458C18.5864 56.6438 18.5914 56.6422 18.5965 56.6408C18.6008 56.6408 18.6053 56.6372 18.611 56.6361C18.6166 56.635 18.6198 56.6326 18.6253 56.6306C18.6302 56.6296 18.635 56.6279 18.6396 56.6257C18.6446 56.6249 18.6495 56.6235 18.6541 56.6213C18.6638 56.6185 18.6735 56.6153 18.683 56.6118C18.688 56.6109 18.6923 56.6084 18.6975 56.6075C18.7021 56.6052 18.7069 56.6037 18.712 56.6028C18.7165 56.6004 18.7213 56.5984 18.7263 56.5967C18.7312 56.5958 18.7361 56.5943 18.7407 56.5924C18.7458 56.5914 18.7507 56.5896 18.7552 56.5871C18.7601 56.5861 18.7649 56.5848 18.7695 56.5831C18.7743 56.5813 18.7791 56.5797 18.784 56.5785C18.7891 56.5774 18.794 56.5755 18.7985 56.5729C18.8032 56.5713 18.8079 56.57 18.8128 56.569L18.8277 56.5634C18.8327 56.5634 18.8372 56.56 18.8417 56.5591C18.8463 56.5581 18.8517 56.555 18.8567 56.5541C18.8617 56.5531 18.8662 56.5506 18.8717 56.5496C18.8761 56.5472 18.881 56.5457 18.886 56.5452C18.8905 56.5425 18.8954 56.5406 18.9004 56.5393C18.9054 56.538 18.9095 56.5362 18.9149 56.5346C18.9204 56.533 18.9239 56.5308 18.9288 56.5293C18.9339 56.5283 18.9389 56.5269 18.9437 56.5251C18.9485 56.5234 18.9533 56.522 18.9582 56.5208C18.9632 56.5198 18.9677 56.5166 18.9727 56.5152C18.9776 56.514 18.9824 56.5124 18.987 56.5103C18.9921 56.5092 18.9965 56.5063 19.0015 56.5057C19.0065 56.5051 19.0109 56.502 19.0159 56.501C19.0209 56.5001 19.0254 56.4972 19.0304 56.4962L19.0449 56.4909C19.0499 56.4898 19.0547 56.4881 19.0594 56.4859C19.0647 56.4859 19.0687 56.4825 19.0737 56.4815C19.0787 56.4806 19.0832 56.4774 19.088 56.4764C19.0929 56.4753 19.0977 56.4738 19.1025 56.472C19.1074 56.4706 19.1123 56.4687 19.1169 56.4664C19.1224 56.4655 19.1264 56.4635 19.1319 56.4626C19.1374 56.4616 19.1409 56.4589 19.1464 56.4569C19.1518 56.455 19.1557 56.4536 19.1612 56.4526C19.1666 56.4516 19.1702 56.4484 19.1752 56.4476C19.1799 56.4458 19.1847 56.4443 19.1896 56.4431C19.1946 56.441 19.1991 56.4397 19.2041 56.4375C19.2091 56.4365 19.2139 56.4348 19.2184 56.4325C19.2239 56.4315 19.2284 56.4289 19.2335 56.4281C19.2387 56.4273 19.2429 56.4246 19.2479 56.4237C19.2523 56.4217 19.257 56.42 19.2617 56.4187C19.2668 56.4171 19.2717 56.4151 19.2766 56.4133C19.2815 56.4123 19.2862 56.4108 19.2906 56.4087C19.2958 56.4076 19.3008 56.406 19.3056 56.4039C19.3106 56.4028 19.3154 56.4012 19.3201 56.3992C19.325 56.3981 19.3298 56.3966 19.3345 56.3948C19.34 56.3939 19.3439 56.3907 19.3484 56.3897C19.3533 56.388 19.3583 56.3865 19.3633 56.3854C19.3688 56.3835 19.3733 56.382 19.3777 56.3801C19.3826 56.3788 19.3875 56.3771 19.3921 56.3749C19.3972 56.3741 19.402 56.3725 19.4066 56.3703C19.4116 56.3693 19.4159 56.3669 19.4216 56.3659C19.4272 56.3649 19.4309 56.362 19.4364 56.3609C19.4408 56.3585 19.4455 56.3567 19.4504 56.3555C19.4553 56.3555 19.4594 56.3521 19.4648 56.3511C19.4703 56.3501 19.4743 56.3479 19.4793 56.3461C19.4843 56.3443 19.4888 56.3426 19.4938 56.3418C19.4985 56.3399 19.5033 56.3382 19.5083 56.337C19.5131 56.336 19.5181 56.3333 19.523 56.332C19.528 56.3307 19.5325 56.3283 19.5369 56.3267C19.5412 56.3251 19.5465 56.3225 19.5514 56.3222C19.5564 56.3211 19.5612 56.3194 19.5658 56.3172C19.5709 56.3161 19.5758 56.3143 19.5803 56.3119C19.5853 56.311 19.5901 56.3096 19.5948 56.3077C19.6003 56.3062 19.6046 56.3043 19.6093 56.3034C19.6141 56.3018 19.6189 56.2999 19.6236 56.2977C19.6292 56.2967 19.6335 56.2937 19.6385 56.2927C19.6435 56.2919 19.6484 56.2904 19.653 56.2882C19.6578 56.2882 19.6625 56.2842 19.6673 56.2829C19.6722 56.2816 19.677 56.2799 19.6824 56.2789L19.6963 56.2736C19.7012 56.2723 19.706 56.2705 19.7106 56.2684C19.7157 56.2673 19.7207 56.2657 19.7255 56.2638C19.7307 56.2628 19.7346 56.2604 19.7395 56.2595C19.7447 56.2578 19.7497 56.2558 19.7545 56.2535C19.7588 56.2535 19.764 56.2509 19.769 56.25C19.7736 56.2479 19.7785 56.2465 19.7834 56.2456C19.788 56.243 19.7928 56.2411 19.7978 56.2397C19.8027 56.2387 19.8073 56.2361 19.8122 56.2351C19.8172 56.2342 19.8217 56.2314 19.8266 56.2305C19.8313 56.2286 19.8361 56.2269 19.841 56.2255C19.8457 56.2236 19.8505 56.2221 19.8555 56.2212L19.87 56.2157C19.8754 56.2147 19.8798 56.2116 19.8845 56.2107C19.8891 56.2097 19.8938 56.2072 19.8988 56.2064C19.9038 56.2056 19.9082 56.2028 19.9132 56.2015C19.9182 56.2002 19.9227 56.1978 19.9282 56.1956C19.9331 56.1945 19.938 56.193 19.9427 56.1912C19.9475 56.1903 19.952 56.1883 19.9572 56.1869C19.9623 56.1854 19.9665 56.1827 19.9713 56.1817C20.0715 56.1511 20.1577 56.0862 20.2148 55.9984C20.2719 55.9106 20.2962 55.8055 20.2835 55.7015L20.2163 52.2712C20.2127 52.1293 20.1722 51.9909 20.0988 51.8694C20.0255 51.7479 19.9218 51.6477 19.7979 51.5785ZM8.49628 51.0605C8.47108 50.4345 8.62032 49.8138 8.92733 49.2677C10.4964 49.8398 11.7535 51.6963 11.7902 53.5751C11.8155 54.2015 11.6661 54.8227 11.3588 55.3692C9.78972 54.7952 8.53295 52.9399 8.49628 51.0599V51.0605Z" fill="url(#paint11_linear_928_640)"/>
<path d="M16.8876 52.5478L15.5514 51.8791C15.4263 51.4326 15.2754 50.9937 15.0994 50.5647L15.8097 49.4067C15.8696 49.2831 15.8934 49.1451 15.8786 49.0086C15.8637 48.8721 15.8107 48.7425 15.7256 48.6347L13.6064 45.6928C13.4303 45.4495 13.1615 45.3486 12.9595 45.4516L11.8312 46.0296C11.5014 45.7538 11.1534 45.5003 10.7897 45.271L10.4701 43.6422C10.4468 43.5047 10.3867 43.376 10.296 43.27C10.2054 43.164 10.0877 43.0846 9.95541 43.0403L7.02561 42.3109C6.9696 42.2958 6.91096 42.2933 6.85386 42.3035C6.79676 42.3137 6.74262 42.3363 6.69528 42.3699C6.64794 42.4034 6.60857 42.4469 6.57999 42.4974C6.55141 42.5479 6.53432 42.604 6.52993 42.6618L6.27081 44.1467C5.92286 44.1932 5.58053 44.2747 5.24903 44.3902L4.0865 43.2439C3.87902 43.0384 3.61123 43.006 3.44316 43.1645L1.4192 45.0741C1.25096 45.2327 1.22811 45.5405 1.36434 45.812L2.1267 47.3364C1.96196 47.6919 1.82684 48.0604 1.72269 48.4381L0.398852 48.4447C0.162584 48.4465 -0.00179593 48.6507 0.0036725 48.9345L0.0704258 52.3648C0.0743143 52.5067 0.114972 52.6452 0.188442 52.7667C0.261912 52.8882 0.36567 52.9886 0.489558 53.058L1.82563 53.728C1.95042 54.1746 2.10116 54.6134 2.27709 55.0424L1.56749 56.1995C1.50744 56.3232 1.48342 56.4613 1.49818 56.5981C1.51294 56.7348 1.56588 56.8647 1.65095 56.9727L3.77062 59.913C3.94625 60.1578 4.21566 60.2573 4.41719 60.1542L5.54528 59.5778C5.87478 59.8538 6.22285 60.1069 6.58702 60.3352L6.90693 61.9643C6.93001 62.102 6.9901 62.2307 7.08076 62.3369C7.17142 62.443 7.28923 62.5225 7.42159 62.5668L10.3514 63.2957C10.4073 63.3109 10.4659 63.3134 10.523 63.3033C10.5801 63.2932 10.6342 63.2707 10.6815 63.2373C10.7289 63.2039 10.7683 63.1604 10.7969 63.11C10.8255 63.0596 10.8426 63.0035 10.8471 62.9457L11.1056 61.4602C11.4538 61.4139 11.7964 61.3322 12.1282 61.2164L13.2903 62.3624C13.4978 62.5681 13.7661 62.6014 13.9337 62.4428L15.9581 60.5322C16.1257 60.3746 16.1487 60.0671 16.0128 59.7953L15.2498 58.2708C15.4144 57.9153 15.5498 57.547 15.6545 57.1695L16.9778 57.1616C17.2143 57.16 17.3788 56.9565 17.3735 56.6718L17.3063 53.2418C17.3026 53.0998 17.262 52.9611 17.1886 52.8395C17.1153 52.7178 17.0115 52.6173 16.8876 52.5478ZM11.7904 53.5744C11.8291 55.578 10.4696 56.8603 8.75976 56.4347C7.04991 56.0092 5.62522 54.0335 5.58598 52.0312C5.54673 50.029 6.90675 48.7457 8.61724 49.1715C10.3277 49.5974 11.7516 51.5725 11.7904 53.5744Z" fill="#35333A"/>
<defs>
<linearGradient id="paint0_linear_928_640" x1="41.029" y1="14.9398" x2="41.029" y2="31.8754" gradientUnits="userSpaceOnUse">
<stop stop-color="#3EAEEF"/>
<stop offset="1" stop-color="#2E8FBF"/>
</linearGradient>
<linearGradient id="paint1_linear_928_640" x1="39.9973" y1="22.9634" x2="39.9973" y2="43.8848" gradientUnits="userSpaceOnUse">
<stop stop-color="#3EAEEF"/>
<stop offset="1" stop-color="#2E8FBF"/>
</linearGradient>
<linearGradient id="paint2_linear_928_640" x1="32.0097" y1="12.6167" x2="30.971" y2="15.2682" gradientUnits="userSpaceOnUse">
<stop stop-color="#FEFEFE"/>
<stop offset="1" stop-color="#D3DEED"/>
</linearGradient>
<linearGradient id="paint3_linear_928_640" x1="-47.7522" y1="407.159" x2="-43.3102" y2="415.419" gradientUnits="userSpaceOnUse">
<stop stop-color="#F3F6FA"/>
<stop offset="0.135934" stop-color="#D3DEED"/>
</linearGradient>
<linearGradient id="paint4_linear_928_640" x1="39.8599" y1="34.1225" x2="38.5672" y2="40.9102" gradientUnits="userSpaceOnUse">
<stop stop-color="#FEFEFE"/>
<stop offset="1" stop-color="#D3DEED"/>
</linearGradient>
<linearGradient id="paint5_linear_928_640" x1="54.7863" y1="59.04" x2="52.396" y2="67.1835" gradientUnits="userSpaceOnUse">
<stop stop-color="#FEFEFE"/>
<stop offset="1" stop-color="#D3DEED"/>
</linearGradient>
<linearGradient id="paint6_linear_928_640" x1="33.2998" y1="36.6898" x2="43.3584" y2="56.3299" gradientUnits="userSpaceOnUse">
<stop stop-color="#FEFEFE"/>
<stop offset="1" stop-color="#D3DEED"/>
</linearGradient>
<linearGradient id="paint7_linear_928_640" x1="75.7968" y1="445.271" x2="80.076" y2="453.512" gradientUnits="userSpaceOnUse">
<stop stop-color="#F2F2F2"/>
<stop offset="1" stop-color="#D3DEED"/>
</linearGradient>
<linearGradient id="paint8_linear_928_640" x1="1279.8" y1="-1028.25" x2="1276.75" y2="-1027.89" gradientUnits="userSpaceOnUse">
<stop stop-color="#FEFEFE"/>
<stop offset="1" stop-color="#D3DEED"/>
</linearGradient>
<linearGradient id="paint9_linear_928_640" x1="56.0113" y1="-17.387" x2="56.0113" y2="-4.22665" gradientUnits="userSpaceOnUse">
<stop stop-color="#D84A4A"/>
<stop offset="1" stop-color="#C14040"/>
</linearGradient>
<linearGradient id="paint10_linear_928_640" x1="63.1001" y1="-6.24086" x2="34.3388" y2="8.91535" gradientUnits="userSpaceOnUse">
<stop stop-color="#D84A4A"/>
<stop offset="1" stop-color="#C14040"/>
</linearGradient>
<linearGradient id="paint11_linear_928_640" x1="23.6747" y1="45.3484" x2="23.6747" y2="70.609" gradientUnits="userSpaceOnUse">
<stop/>
<stop offset="1" stop-color="#35333A"/>
</linearGradient>
</defs>
</svg>
