<svg width="72" height="71" viewBox="0 0 72 71" fill="none" xmlns="http://www.w3.org/2000/svg">
<path d="M36.1714 29.8357V70.1894L71.0605 58.5363V18.1211L36.1714 29.8357Z" fill="url(#paint0_linear_928_529)"/>
<path d="M71.0608 18.1211V58.5358L70.4911 58.7241L69.1724 59.1667L66.6383 60.012L36.1713 70.1894V29.8357L71.0608 18.1211Z" fill="url(#paint1_linear_928_529)"/>
<path d="M36.1282 29.937V70.0378L0.883911 56.8821V16.4688L36.1282 29.937Z" fill="url(#paint2_linear_928_529)"/>
<path d="M21.9546 53.5508L22.4781 56.2838L24.6235 56.9832L22.8002 57.9732L23.3237 60.7064L21.6743 58.5844L19.851 59.5741L20.6546 57.2739L19.0055 55.1513L21.1507 55.8507L21.9546 53.5508Z" fill="url(#paint3_linear_928_529)"/>
<path d="M21.0135 45.25L21.282 46.6511L22.3826 47.0106L21.4466 47.5177L21.7152 48.9194L20.8683 47.8313L19.9341 48.3389L20.346 47.1587L19.5001 46.0707L20.6007 46.4289L21.0135 45.25Z" fill="url(#paint4_linear_928_529)"/>
<path d="M12.9087 49.9287L13.1164 51.0137L13.9683 51.2922L13.2448 51.6836L13.4523 52.7698L12.7972 51.9271L12.0736 52.32L12.3927 51.4069L11.7365 50.5633L12.5896 50.8417L12.9087 49.9287Z" fill="url(#paint5_linear_928_529)"/>
<path d="M71.9993 17.1805L36.263 3.77344L0 15.9494V16.1152L35.5033 29.4351L71.9993 17.1805Z" fill="url(#paint6_linear_928_529)"/>
<path d="M35.5028 29.4351L0 16.1152V26.3344L20.9891 34.3068L36.1294 40.0592V29.6696L35.5028 29.4351Z" fill="url(#paint7_linear_928_529)"/>
<path d="M71.9993 17.18L35.5028 29.4337L36.1296 29.6688V40.0585L36.2855 40.1182L50.2582 34.9699L72 26.96V17.1797L71.9993 17.18Z" fill="url(#paint8_linear_928_529)"/>
<path d="M50.8368 47.4531L51.7194 49.2571L53.6121 49.0018L52.2777 51.0333L52.6432 53.2022L50.9359 52.6536L49.2702 54.2481L49.5483 51.8791L48.1539 50.6951L50.0328 49.7793L50.8368 47.4531Z" fill="url(#paint9_linear_928_529)"/>
<path d="M58.755 35.6768L59.1162 36.4157L59.8926 36.3115L59.3459 37.1438L59.4955 38.0347L58.795 37.8093L58.1126 38.4635L58.2263 37.4922L57.6544 37.0069L58.4254 36.6309L58.755 35.6768Z" fill="url(#paint10_linear_928_529)"/>
<path d="M58.3643 54.4121L58.9089 55.5253L60.0769 55.3684L59.2532 56.6219L59.4786 57.9615L58.4244 57.6235L57.3964 58.608L57.5682 57.1445L56.7067 56.4135L57.8674 55.8471L58.3643 54.4121Z" fill="url(#paint11_linear_928_529)"/>
<path d="M50.2268 24.2971V65.4301L58.6853 62.6569V21.4775L50.2268 24.2971Z" fill="url(#paint12_linear_928_529)"/>
<path d="M12.6327 20.8516V61.2653L20.4562 64.3417V23.984L12.6327 20.8516Z" fill="url(#paint13_linear_928_529)"/>
<path d="M12.6327 20.8519L48.5342 8.37695L57.0022 11.5534L20.4645 23.9843L12.6327 20.8519Z" fill="url(#paint14_linear_928_529)"/>
<path d="M58.6853 21.478L22.5519 8.37793L13.6796 11.3563L50.2266 24.2974L58.6853 21.478Z" fill="url(#paint15_linear_928_529)"/>
<path d="M36.4178 12.156C36.4178 12.156 35.4016 5.92499 37.5722 2.05128C37.5938 2.01281 37.6029 1.96858 37.5981 1.92472C37.5934 1.88086 37.575 1.83957 37.5457 1.80663C37.5163 1.77369 37.4774 1.75076 37.4344 1.74098C37.3914 1.73121 37.3464 1.7351 37.3057 1.75212L33.909 3.16774C33.7484 3.23479 33.5707 3.24962 33.4012 3.21012C33.2316 3.17063 33.0788 3.07883 32.9643 2.94769L31.1569 0.882053C31.108 0.826037 31.0454 0.783718 30.9753 0.75923C30.9051 0.734743 30.8297 0.728981 30.7566 0.742444C30.6835 0.755907 30.6152 0.788133 30.5583 0.836016C30.5015 0.883898 30.4581 0.945767 30.4324 1.01551C29.8131 2.69342 28.466 7.3701 30.3187 12.5561L34.4967 13.6537L36.4178 12.156Z" fill="url(#paint16_linear_928_529)"/>
<path d="M51.2117 5.6767C57.0106 3.98586 58.5054 6.28944 58.8265 8.19217C60.5203 4.04139 58.3073 0 51.612 0C37.5576 0 32.5978 13.2749 32.5978 13.2749L39.6113 16.934C40.3328 14.9671 43.404 7.95505 51.2117 5.6767Z" fill="url(#paint17_linear_928_529)"/>
<path d="M51.7139 5.53743C49.2484 7.36324 46.5648 8.74882 44.2766 9.74375C42.2218 11.7765 40.6303 14.2289 39.6108 16.9336L39.8362 17.0527C50.3791 17.4503 56.964 12.7551 58.826 8.19259C58.5158 6.34585 57.0981 4.12196 51.7139 5.53743Z" fill="url(#paint18_linear_928_529)"/>
<path d="M15.23 16.4096C14.7144 16.3276 14.2062 16.204 13.7104 16.04C14.2062 16.204 14.7144 16.3276 15.23 16.4096C14.9237 14.7161 16.3067 13.0882 19.7886 12.241C23.0672 11.4425 27.118 12.1375 30.7536 13.2353C30.8969 13.1583 31.0405 13.08 31.1844 13.0002C31.0403 13.0797 30.8967 13.158 30.7536 13.2353C33.6248 14.0998 37.7534 16.3728 39.5209 17.2007C30.8253 10.3627 24.43 8.39743 22.1752 7.90218C12.122 5.29145 1.03462 11.5128 11.0941 17.9397C14.7338 20.2786 18.9538 21.5559 23.2797 21.628C18.5447 20.6763 15.6082 18.4928 15.23 16.4096Z" fill="url(#paint19_linear_928_529)"/>
<path d="M39.5419 17.1782L39.4997 17.1642L39.5209 17.1572C39.0038 16.7691 38.4979 16.3975 38.0031 16.0425C35.656 14.9358 33.2332 13.9974 30.753 13.2344C23.471 17.1317 17.8067 16.8579 15.2294 16.4087C15.6075 18.4919 18.544 20.6755 23.2782 21.6265C32.3083 21.8273 39.5419 17.1782 39.5419 17.1782Z" fill="url(#paint20_linear_928_529)"/>
<path d="M7.60478 35.6133L8.12709 38.3461L10.2735 39.0457L8.45028 40.0352L8.97379 42.7683L7.32447 40.6465L5.50139 41.6368L6.30503 39.3352L4.65417 37.2135L6.80062 37.9135L7.60478 35.6133Z" fill="url(#paint21_linear_928_529)"/>
<path d="M27.0032 38.333L27.5025 40.942L29.5521 41.6108L27.8111 42.5555L28.3102 45.1652L26.7356 43.1401L24.9947 44.0838L25.7616 41.8882L24.187 39.8621L26.2366 40.5309L27.0032 38.333Z" fill="url(#paint22_linear_928_529)"/>
<path d="M42.2866 41.6318L42.8174 42.7145L43.9539 42.5621L43.1523 43.7823L43.3714 45.0853L42.3467 44.7566L41.3451 45.7139L41.5136 44.2909L40.675 43.5802L41.8043 43.0294L42.2866 41.6318Z" fill="url(#paint23_linear_928_529)"/>
<path d="M39.3122 62.0781L39.9106 63.2999L41.1923 63.1269L40.2887 64.5037L40.5362 65.9731L39.3789 65.6019L38.2499 66.6827L38.4393 65.0777L37.4935 64.275L38.7667 63.6537L39.3122 62.0781Z" fill="url(#paint24_linear_928_529)"/>
<defs>
<linearGradient id="paint0_linear_928_529" x1="53.5113" y1="22.599" x2="53.8221" y2="52.224" gradientUnits="userSpaceOnUse">
<stop stop-color="#4DDBB6"/>
<stop offset="1" stop-color="#3CBC97"/>
</linearGradient>
<linearGradient id="paint1_linear_928_529" x1="65.6181" y1="44.1552" x2="37.0435" y2="44.1552" gradientUnits="userSpaceOnUse">
<stop stop-color="#4264C8"/>
<stop offset="1" stop-color="#567BD6"/>
</linearGradient>
<linearGradient id="paint2_linear_928_529" x1="36.7978" y1="52.36" x2="3.73885" y2="45.3549" gradientUnits="userSpaceOnUse">
<stop stop-color="#4264C8"/>
<stop offset="1" stop-color="#567BD6"/>
</linearGradient>
<linearGradient id="paint3_linear_928_529" x1="-25.1519" y1="257.294" x2="-25.1519" y2="274.982" gradientUnits="userSpaceOnUse">
<stop stop-color="#FEFEFE"/>
<stop offset="1" stop-color="#D3DEED"/>
</linearGradient>
<linearGradient id="paint4_linear_928_529" x1="-26.6404" y1="250.538" x2="-26.6404" y2="259.613" gradientUnits="userSpaceOnUse">
<stop stop-color="#FEFEFE"/>
<stop offset="1" stop-color="#D3DEED"/>
</linearGradient>
<linearGradient id="paint5_linear_928_529" x1="-34.7135" y1="256.698" x2="-34.7135" y2="263.721" gradientUnits="userSpaceOnUse">
<stop stop-color="#FEFEFE"/>
<stop offset="1" stop-color="#D3DEED"/>
</linearGradient>
<linearGradient id="paint6_linear_928_529" x1="19.7998" y1="11.8825" x2="28.081" y2="30.9949" gradientUnits="userSpaceOnUse">
<stop stop-color="#33454F"/>
<stop offset="1" stop-color="#29383F"/>
</linearGradient>
<linearGradient id="paint7_linear_928_529" x1="4.98586" y1="23.1787" x2="26.9921" y2="41.9869" gradientUnits="userSpaceOnUse">
<stop stop-color="#33454F"/>
<stop offset="1" stop-color="#29383F"/>
</linearGradient>
<linearGradient id="paint8_linear_928_529" x1="40.3569" y1="33.2366" x2="57.864" y2="17.8756" gradientUnits="userSpaceOnUse">
<stop stop-color="#33454F"/>
<stop offset="1" stop-color="#29383F"/>
</linearGradient>
<linearGradient id="paint9_linear_928_529" x1="38.5693" y1="-139.457" x2="36.7811" y2="-119.659" gradientUnits="userSpaceOnUse">
<stop stop-color="#FEFEFE"/>
<stop offset="1" stop-color="#D3DEED"/>
</linearGradient>
<linearGradient id="paint10_linear_928_529" x1="46.9582" y1="-148.745" x2="46.2282" y2="-140.628" gradientUnits="userSpaceOnUse">
<stop stop-color="#FEFEFE"/>
<stop offset="1" stop-color="#D3DEED"/>
</linearGradient>
<linearGradient id="paint11_linear_928_529" x1="46.2116" y1="-130.163" x2="45.1073" y2="-117.937" gradientUnits="userSpaceOnUse">
<stop stop-color="#FEFEFE"/>
<stop offset="1" stop-color="#D3DEED"/>
</linearGradient>
<linearGradient id="paint12_linear_928_529" x1="54.456" y1="27.1474" x2="54.456" y2="61.3865" gradientUnits="userSpaceOnUse">
<stop stop-color="#EAB02B"/>
<stop offset="1" stop-color="#E9B128"/>
</linearGradient>
<linearGradient id="paint13_linear_928_529" x1="16.5444" y1="50.1639" x2="16.5444" y2="27.0272" gradientUnits="userSpaceOnUse">
<stop stop-color="#EAB02B"/>
<stop offset="1" stop-color="#E9B128"/>
</linearGradient>
<linearGradient id="paint14_linear_928_529" x1="15.1174" y1="22.7825" x2="22.5972" y2="2.20248" gradientUnits="userSpaceOnUse">
<stop stop-color="#EAB02B"/>
<stop offset="1" stop-color="#E9B128"/>
</linearGradient>
<linearGradient id="paint15_linear_928_529" x1="53.4196" y1="22.403" x2="47.099" y2="4.47753" gradientUnits="userSpaceOnUse">
<stop stop-color="#EAB02B"/>
<stop offset="1" stop-color="#E9B128"/>
</linearGradient>
<linearGradient id="paint16_linear_928_529" x1="33.4883" y1="-1.42201" x2="33.4883" y2="9.8686" gradientUnits="userSpaceOnUse">
<stop stop-color="#EAB02B"/>
<stop offset="1" stop-color="#E8922D"/>
</linearGradient>
<linearGradient id="paint17_linear_928_529" x1="38.1935" y1="10.8208" x2="48.7014" y2="-0.941387" gradientUnits="userSpaceOnUse">
<stop stop-color="#EAB02B"/>
<stop offset="1" stop-color="#E8922D"/>
</linearGradient>
<linearGradient id="paint18_linear_928_529" x1="53.5226" y1="7.81002" x2="48.585" y2="19.4669" gradientUnits="userSpaceOnUse">
<stop stop-color="#EAB02B"/>
<stop offset="1" stop-color="#E8922D"/>
</linearGradient>
<linearGradient id="paint19_linear_928_529" x1="28.4435" y1="14.9044" x2="16.3591" y2="11.4658" gradientUnits="userSpaceOnUse">
<stop stop-color="#EAB02B"/>
<stop offset="1" stop-color="#E8922D"/>
</linearGradient>
<linearGradient id="paint20_linear_928_529" x1="16.3721" y1="18.9537" x2="22.1217" y2="12.7397" gradientUnits="userSpaceOnUse">
<stop stop-color="#EAB02B"/>
<stop offset="1" stop-color="#E8922D"/>
</linearGradient>
<linearGradient id="paint21_linear_928_529" x1="-41.048" y1="246.063" x2="-41.048" y2="263.75" gradientUnits="userSpaceOnUse">
<stop stop-color="#FEFEFE"/>
<stop offset="1" stop-color="#D3DEED"/>
</linearGradient>
<linearGradient id="paint22_linear_928_529" x1="-20.8529" y1="243.006" x2="-20.8529" y2="259.895" gradientUnits="userSpaceOnUse">
<stop stop-color="#FEFEFE"/>
<stop offset="1" stop-color="#D3DEED"/>
</linearGradient>
<linearGradient id="paint23_linear_928_529" x1="29.7268" y1="-147.891" x2="28.6576" y2="-135.997" gradientUnits="userSpaceOnUse">
<stop stop-color="#FEFEFE"/>
<stop offset="1" stop-color="#D3DEED"/>
</linearGradient>
<linearGradient id="paint24_linear_928_529" x1="26.2345" y1="-128.42" x2="25.0227" y2="-115.008" gradientUnits="userSpaceOnUse">
<stop stop-color="#FEFEFE"/>
<stop offset="1" stop-color="#D3DEED"/>
</linearGradient>
</defs>
</svg>
