<svg width="55" height="72" viewBox="0 0 55 72" fill="none" xmlns="http://www.w3.org/2000/svg">
<path d="M25.5603 33.5881L8.0277 26.9453C7.62649 26.791 7.19646 26.726 6.76755 26.7546C6.57503 26.7684 6.38192 26.7715 6.18906 26.764C4.74803 26.7159 -0.128841 27.0453 0.0026069 31.3424C0.00524277 31.4477 0.0132107 31.5528 0.0264428 31.6573L0.637875 51.6618C0.67698 52.7464 1.03535 53.7953 1.6681 54.677C2.30085 55.5588 3.17981 56.2341 4.19479 56.6184L21.638 63.2287C22.2032 63.4481 22.824 63.4799 23.4088 63.3196C23.994 63.159 24.5824 63.0078 25.1758 62.8775C26.8412 62.5093 28.1816 61.8253 28.6549 61.1339C29.199 60.6204 29.5554 59.6134 29.5296 58.7616L28.9025 38.2459C28.8655 37.2268 28.5285 36.2413 27.934 35.4128C27.3395 34.5843 26.5138 33.9496 25.5603 33.5881Z" fill="url(#paint0_linear_928_574)"/>
<path d="M21.6332 62.0012C21.388 62.0012 21.145 61.9564 20.916 61.869L4.13241 55.5086C3.34306 55.206 2.65972 54.6786 2.16699 53.9916C1.67427 53.3047 1.39377 52.4884 1.36017 51.6437L0.770575 32.3815C0.756533 32.0493 0.825913 31.7188 0.972448 31.4203C1.11898 31.1217 1.33801 30.8647 1.60945 30.6725C1.88571 30.4779 2.20574 30.3544 2.54118 30.3132C2.87661 30.2719 3.21707 30.3142 3.53225 30.4362L20.3947 36.8261C21.13 37.1079 21.7667 37.599 22.2258 38.2388C22.685 38.8786 22.9464 39.639 22.978 40.4259L23.5763 59.9935C23.5897 60.3135 23.5226 60.6318 23.3813 60.9192C23.24 61.2067 23.029 61.4542 22.7675 61.6391C22.4365 61.8753 22.0398 62.0019 21.6332 62.0012ZM2.78193 30.7456C2.45456 30.7454 2.13539 30.8481 1.8696 31.0393C1.65865 31.1886 1.48859 31.3886 1.37499 31.6207C1.2614 31.8529 1.20792 32.1099 1.21946 32.3681L1.80777 51.6303C1.83816 52.3865 2.0896 53.1173 2.53097 53.7322C2.97234 54.3471 3.58432 54.8192 4.29114 55.09L21.0747 61.4498C21.3091 61.5428 21.563 61.5755 21.8133 61.5451C22.0636 61.5146 22.3023 61.4219 22.5075 61.2755C22.7085 61.1329 22.8707 60.9422 22.9791 60.7209C23.0875 60.4996 23.1388 60.2546 23.1282 60.0084L22.5295 40.4412C22.5014 39.7426 22.2691 39.0676 21.8613 38.4997C21.4535 37.9318 20.8882 37.496 20.2352 37.2461L3.37352 30.8556C3.18463 30.7833 2.98418 30.7461 2.78193 30.7456Z" fill="url(#paint1_linear_928_574)"/>
<path d="M1.7913 32.7516L2.36545 51.5348C2.38905 52.1895 2.60532 52.8225 2.98722 53.3547C3.36913 53.8869 3.89963 54.2946 4.51223 54.5265L20.9443 60.7528C21.1259 60.8252 21.3228 60.8512 21.517 60.8284C21.7112 60.8057 21.8966 60.7349 22.0566 60.6225C22.2165 60.51 22.346 60.3594 22.4331 60.1844C22.5202 60.0093 22.5623 59.8153 22.5556 59.6199L21.9738 40.5545C21.9521 39.9533 21.7534 39.372 21.4027 38.8833C21.0519 38.3946 20.5647 38.0203 20.0021 37.8075L3.49719 31.5533C3.305 31.4762 3.09663 31.4483 2.89095 31.4721C2.68527 31.496 2.48877 31.5709 2.31933 31.6899C2.14989 31.8089 2.01286 31.9684 1.92065 32.1538C1.82843 32.3391 1.78399 32.5446 1.7913 32.7516Z" fill="url(#paint2_linear_928_574)"/>
<path d="M27.4495 45.2823C27.7133 46.2719 27.3243 47.311 26.58 47.6026C25.8357 47.8942 25.0186 47.3284 24.7545 46.3378C24.4903 45.3471 24.88 44.3089 25.6232 44.0178C26.3664 43.7267 27.1855 44.2927 27.4495 45.2823Z" fill="url(#paint3_linear_928_574)"/>
<path d="M14.6503 44.0616C15.5277 46.2568 14.8891 48.6861 13.2226 49.4893C11.5561 50.2926 9.4944 49.1629 8.61699 46.969C7.73958 44.7751 8.37824 42.3448 10.0443 41.5426C11.7104 40.7405 13.7725 41.8679 14.6503 44.0616Z" fill="url(#paint4_linear_928_574)"/>
<path d="M18.0405 41.7279C18.4642 42.7875 18.1552 43.9599 17.3509 44.347C16.5466 44.7341 15.551 44.1908 15.1276 43.1309C14.7041 42.0709 15.0123 40.8985 15.8172 40.5114C16.6221 40.1244 17.6158 40.6683 18.0405 41.7279Z" fill="#2D7EF4"/>
<path d="M16.6042 49.1136C16.8259 49.6675 16.6646 50.2807 16.2435 50.4827C15.8225 50.6847 15.3032 50.4011 15.0812 49.8464C14.8592 49.2917 15.0212 48.6796 15.4414 48.4772C15.8615 48.2749 16.3824 48.5599 16.6042 49.1136Z" fill="url(#paint5_linear_928_574)"/>
<path d="M8.49558 40.5292C8.71775 41.0836 8.55627 41.6961 8.13538 41.8987C7.71449 42.1012 7.19436 41.8165 6.97328 41.2623C6.7522 40.7082 6.91328 40.0944 7.33326 39.8929C7.75324 39.6915 8.27432 39.9753 8.49558 40.5292Z" fill="url(#paint6_linear_928_574)"/>
<path d="M7.50968 46.869C7.8033 47.6035 7.58952 48.4173 7.03136 48.6858C6.47321 48.9544 5.7836 48.5767 5.4898 47.8417C5.196 47.1066 5.40996 46.2948 5.96811 46.0254C6.52627 45.7559 7.21606 46.1343 7.50968 46.869Z" fill="#2C7EFB"/>
<path d="M10.2471 50.8171C10.6709 51.8758 10.3618 53.0493 9.55788 53.4362C8.75392 53.8231 7.75794 53.2793 7.33396 52.2194C6.90998 51.1594 7.21924 49.9873 8.02484 49.5995C8.83044 49.2117 9.82274 49.7575 10.2471 50.8171Z" fill="#FF2558"/>
<path d="M19.2909 34.3997C19.2909 34.3997 20.7551 18.1763 25.5865 11.1735C30.4432 4.13225 36.1991 -1.00163 43.4562 3.54288C50.155 7.73831 56.8447 26.2932 49.5212 55.1504C47.5213 63.0282 41.6931 69.2979 33.7749 71.1314C28.7122 72.3028 20.4735 69.6535 15.6332 64.1623C15.6332 64.1623 30.8456 69.6022 36.5709 56.0834C41.2749 44.9749 44.6262 6.09475 28.0441 8.11484C28.0441 8.11484 27.0043 8.03138 25.1117 12.1261C23.219 16.2208 16.537 26.8264 19.2909 34.3997Z" fill="url(#paint7_linear_928_574)"/>
<path d="M7.52209 29.8272C7.52209 29.8272 9.1484 0.540922 27.2815 0.0536728C27.541 0.0465822 29.0632 -0.0521077 29.3091 0.0371608L39.9478 1.55165C39.9478 1.55165 29.2938 -0.468287 22.3139 18.7188C20.314 24.2167 19.2615 34.3726 19.2615 34.3726L7.52209 29.8272Z" fill="url(#paint8_linear_928_574)"/>
<path d="M32.9985 71.2314C32.9985 71.2314 23.4461 72.2417 20.1264 62.6478L8.38623 58.1025C8.38623 58.1025 15.9419 74.2616 32.9985 71.2314Z" fill="url(#paint9_linear_928_574)"/>
<path d="M51.3616 15.099C50.7529 12.6422 48.2969 4.44504 42.245 2.09788C39.0157 0.846307 35.3926 1.53662 31.4773 4.14795C28.7978 5.93477 26.4481 8.64881 24.494 12.2165C22.9447 15.0445 21.6373 18.4125 20.6079 22.2302C19.5704 26.1218 18.8747 30.0966 18.5287 34.1092L19.7179 34.0049C20.0655 30.1238 20.7451 26.2795 21.7494 22.5145C23.3221 16.6921 26.4001 8.94851 32.1308 5.12633C35.7082 2.74008 38.9668 2.09008 41.8199 3.19567C46.2084 4.89686 49.0357 10.6056 50.2195 15.3818C51.0887 18.8907 51.9613 26.3024 51.8234 34.2807C51.6998 41.4406 50.7066 51.7028 46.6783 59.94C44.4976 64.3973 40.8952 67.847 36.5332 69.6534C29.6903 72.4897 24.4465 70.2376 20.9396 62.9615L19.614 62.4492C19.5824 62.5236 19.5665 62.6038 19.5674 62.6847C19.5683 62.7655 19.586 62.8453 19.6194 62.919C21.7347 67.5626 24.568 70.4597 28.0418 71.5307C29.0725 71.8455 30.1446 72.0037 31.2222 71.9998C33.0338 71.9998 34.9617 71.5797 36.9839 70.741C41.6101 68.8235 45.4281 65.1713 47.7349 60.4571C55.2638 45.0671 53.0274 21.824 51.3616 15.099Z" fill="url(#paint10_linear_928_574)"/>
<path d="M51.9287 46.9957L52.4261 46.7425L52.923 46.4897C52.923 46.4897 54.9274 39.078 54.1764 30.9995L40.6758 26.2646L39.7378 26.7701L43.825 30.304" fill="url(#paint11_linear_928_574)"/>
<path d="M39.7109 26.7979L53.4837 31.8472C53.4837 31.8472 53.7308 39.9265 51.9287 46.9958L39.1656 41.9449C39.1656 41.9449 40.4158 33.3628 39.7109 26.7979Z" fill="url(#paint12_linear_928_574)"/>
<path d="M48.0138 35.7092C48.6159 37.2159 48.1774 38.8819 47.034 39.4341C45.8906 39.9862 44.4752 39.2094 43.8734 37.704C43.2716 36.1987 43.7098 34.5298 44.8534 33.9798C45.997 33.4298 47.4118 34.2038 48.0138 35.7092Z" fill="url(#paint13_linear_928_574)"/>
<defs>
<linearGradient id="paint0_linear_928_574" x1="-3.07121" y1="59.423" x2="33.1589" y2="40.2745" gradientUnits="userSpaceOnUse">
<stop offset="0.006" stop-color="#F5F5F5"/>
<stop offset="1" stop-color="#706F74"/>
</linearGradient>
<linearGradient id="paint1_linear_928_574" x1="30.9226" y1="34.3876" x2="22.1927" y2="64.1145" gradientUnits="userSpaceOnUse">
<stop offset="0.006" stop-color="#F5F5F5"/>
<stop offset="1" stop-color="#706F74"/>
</linearGradient>
<linearGradient id="paint2_linear_928_574" x1="5.21688" y1="59.4266" x2="23.9431" y2="41.5939" gradientUnits="userSpaceOnUse">
<stop stop-color="#29313C"/>
<stop offset="1" stop-color="#1C2228"/>
</linearGradient>
<linearGradient id="paint3_linear_928_574" x1="26.1019" y1="40.368" x2="26.1019" y2="53.088" gradientUnits="userSpaceOnUse">
<stop offset="0.006" stop-color="#F5F5F5"/>
<stop offset="1" stop-color="#706F74"/>
</linearGradient>
<linearGradient id="paint4_linear_928_574" x1="12.8477" y1="42.4014" x2="8.96138" y2="48.8644" gradientUnits="userSpaceOnUse">
<stop offset="0.006" stop-color="#FA8D0C"/>
<stop offset="1" stop-color="#F97310"/>
</linearGradient>
<linearGradient id="paint5_linear_928_574" x1="14.9817" y1="49.48" x2="16.7037" y2="49.48" gradientUnits="userSpaceOnUse">
<stop stop-color="#4DDBB6"/>
<stop offset="1" stop-color="#3CBC97"/>
</linearGradient>
<linearGradient id="paint6_linear_928_574" x1="100.813" y1="-122.185" x2="99.4798" y2="-118.821" gradientUnits="userSpaceOnUse">
<stop stop-color="#4DDBB6"/>
<stop offset="1" stop-color="#3CBC97"/>
</linearGradient>
<linearGradient id="paint7_linear_928_574" x1="32.9106" y1="69.2475" x2="46.0551" y2="8.56778" gradientUnits="userSpaceOnUse">
<stop offset="0.006" stop-color="#F5F5F5"/>
<stop offset="1" stop-color="#706F74"/>
</linearGradient>
<linearGradient id="paint8_linear_928_574" x1="14.2991" y1="31.0728" x2="29.7586" y2="2.2738" gradientUnits="userSpaceOnUse">
<stop offset="0.006" stop-color="#F5F5F5"/>
<stop offset="1" stop-color="#706F74"/>
</linearGradient>
<linearGradient id="paint9_linear_928_574" x1="18.6496" y1="70.8129" x2="19.9693" y2="57.6832" gradientUnits="userSpaceOnUse">
<stop offset="0.006" stop-color="#F5F5F5"/>
<stop offset="1" stop-color="#706F74"/>
</linearGradient>
<linearGradient id="paint10_linear_928_574" x1="7.52706" y1="36.746" x2="62.8111" y2="36.746" gradientUnits="userSpaceOnUse">
<stop offset="0.006" stop-color="#F5F5F5"/>
<stop offset="1" stop-color="#706F74"/>
</linearGradient>
<linearGradient id="paint11_linear_928_574" x1="47.9177" y1="23.2794" x2="43.9089" y2="43.0919" gradientUnits="userSpaceOnUse">
<stop offset="0.006" stop-color="#F5F5F5"/>
<stop offset="1" stop-color="#706F74"/>
</linearGradient>
<linearGradient id="paint12_linear_928_574" x1="49.8698" y1="28.0703" x2="36.2154" y2="43.0626" gradientUnits="userSpaceOnUse">
<stop offset="0.006" stop-color="#F5F5F5"/>
<stop offset="1" stop-color="#706F74"/>
</linearGradient>
<linearGradient id="paint13_linear_928_574" x1="49.1544" y1="17.6125" x2="42.8716" y2="41.8706" gradientUnits="userSpaceOnUse">
<stop offset="0.006" stop-color="#F5F5F5"/>
<stop offset="1" stop-color="#706F74"/>
</linearGradient>
</defs>
</svg>
