<svg width="72" height="67" viewBox="0 0 72 67" fill="none" xmlns="http://www.w3.org/2000/svg">
<path d="M55.3435 27.6056C54.376 28.6838 53.3032 29.6628 52.1412 30.5279C48.3561 33.4192 42.9606 36.1816 36.9479 38.3053C30.6465 40.5309 24.2706 41.8072 19.454 41.8072C18.674 41.8072 17.9438 41.7749 17.2633 41.7106C16.9166 41.1687 16.5932 40.606 16.293 40.0224C16.1616 39.7687 16.0375 39.5121 15.9187 39.2557C14.8984 37.0668 14.27 34.7158 14.0622 32.3097C14.053 32.2015 14.0436 32.0928 14.0367 31.9849C13.7416 27.8032 14.718 23.6299 16.8376 20.013C18.9572 16.3962 22.121 13.5049 25.9136 11.7186C29.7061 9.93233 33.9502 9.3346 38.0886 10.004C42.227 10.6734 46.0663 12.5785 49.1023 15.4693C49.5346 15.8806 49.9503 16.3127 50.3495 16.7657C51.0019 17.5057 51.6004 18.2917 52.1404 19.1174C52.5388 19.7276 52.9056 20.3578 53.2395 21.0056C54.3057 23.0721 55.017 25.3032 55.3435 27.6056Z" fill="url(#paint0_linear_928_556)"/>
<path d="M55.5454 30.3157C55.5504 30.8978 55.5313 31.4788 55.4887 32.0562C55.225 35.6024 54.0554 39.0215 52.092 41.9862C50.1286 44.9509 47.4371 47.3621 44.275 48.9887C44.029 49.1152 43.7803 49.2364 43.5293 49.3525C40.6298 50.7078 37.4551 51.3708 34.2555 51.289C30.3318 51.186 26.5163 49.9802 23.246 47.8097C20.8475 46.2172 18.8098 44.1394 17.2642 41.7105C17.9444 41.7751 18.6746 41.8074 19.4549 41.8071C24.2715 41.8071 30.6474 40.5308 36.9489 38.3052C42.9615 36.1815 48.357 33.4191 52.1421 30.5278C53.3041 29.6626 54.3768 28.6837 55.3444 27.6055C55.4706 28.5035 55.5377 29.4089 55.5454 30.3157Z" fill="url(#paint1_linear_928_556)"/>
<path d="M53.2398 21.0069C54.7273 23.886 55.5171 27.0746 55.5455 30.3152C53.5271 30.8071 51.2031 31.0352 48.6549 31.3122C42.8579 31.9414 33.2481 38.8885 28.4826 47.698C28.0832 48.4433 27.6276 49.1571 27.1197 49.8331C25.7603 49.2967 24.4612 48.6185 23.2439 47.8098C25.3674 42.2151 27.217 34.2284 29.819 29.9399C34.5953 22.067 45.9989 20.4356 49.5462 19.5521C51.1268 19.157 50.9883 17.9668 50.3478 16.7656C51.4833 18.0545 52.4547 19.4791 53.2398 21.0069Z" fill="url(#paint2_linear_928_556)"/>
<path d="M48.1652 14.7187C49.945 16.2339 51.4719 18.0231 52.6886 20.0188C54.5956 20.4489 55.8696 21.2512 56.2859 22.4304C57.685 26.3914 48.89 33.1092 36.6414 37.4359C24.3928 41.7626 13.3296 42.0591 11.9299 38.0983C11.4188 36.6533 12.2674 34.8413 14.1447 32.9119C13.9339 30.7457 14.0229 28.5606 14.4089 26.4186C4.58925 31.9824 -1.23941 38.0939 0.22361 42.2344C2.36128 48.2859 19.2645 47.8321 37.9788 41.2216C56.6931 34.6111 70.1311 24.3462 67.9936 18.2952C66.5813 14.2981 58.7268 13.1399 48.1652 14.7187Z" fill="url(#paint3_linear_928_556)"/>
<path d="M60.2457 28.8161C58.7155 29.9761 57.1276 31.0577 55.4878 32.0568C50.4762 35.1297 44.3352 37.9988 37.6715 40.3516C31.5099 42.529 25.3171 44.0961 19.781 44.916C17.114 45.329 14.4205 45.5477 11.7218 45.5702H11.7194C5.78344 45.5702 1.90919 44.2433 1.09285 41.9274C0.351613 39.8325 2.13789 37.2659 3.76588 35.4818C4.82049 34.3468 5.96092 33.2946 7.17705 32.3346C8.62127 31.1866 10.126 30.1168 11.6847 29.1298C11.6847 29.1298 11.6944 29.1245 11.7088 29.1149C12.0396 28.9036 12.3796 28.6922 12.7232 28.4832C13.1654 28.2082 13.6946 27.8821 14.1956 27.5817C13.9863 29.0396 13.9331 30.5156 14.0367 31.9848C13.6112 32.2679 13.2153 32.5929 12.8546 32.955C12.7197 33.1114 12.5926 33.2657 12.4733 33.4181C12.4556 33.4431 12.4367 33.4673 12.4165 33.4903C10.6916 35.7229 10.694 37.3671 11.0605 38.4069C11.7157 40.2634 13.8443 41.3883 17.2633 41.7106C17.9435 41.7752 18.6738 41.8075 19.454 41.8072C24.2706 41.8072 30.6465 40.5309 36.948 38.3053C42.9606 36.1816 48.3561 33.4192 52.1412 30.5279C53.3032 29.6627 54.376 28.6838 55.3436 27.6056C57.0985 25.5896 57.7218 23.7297 57.1554 22.1233C56.7322 20.927 55.7034 20.0364 54.0933 19.4649C53.4611 19.2613 52.8041 19.1444 52.1404 19.1175C51.6003 18.2919 51.0017 17.5059 50.3493 16.7659C49.9507 16.3131 49.535 15.8811 49.1021 15.4696C51.1246 15.1702 53.2079 15.0822 53.2079 15.0822L53.2093 15.0836C54.3536 15.0027 55.4532 14.96 56.4968 14.96C62.4328 14.96 66.3057 16.2878 67.1237 18.6033C68.0012 21.0848 65.4937 24.8069 60.2457 28.8161Z" fill="url(#paint4_linear_928_556)"/>
<path d="M53.9186 38.5693C53.6387 39.235 53.3248 39.8858 52.9781 40.5192C49.6385 44.1595 44.9023 47.0843 42.2287 48.217C40.0797 49.1257 41.6819 49.3403 43.5291 49.3528C40.6298 50.7088 37.4547 51.3717 34.255 51.2891C28.8987 47.078 42.1158 43.1763 50.8881 40.1104C51.969 39.7496 52.9903 39.2302 53.9186 38.5693Z" fill="url(#paint5_linear_928_556)"/>
<path d="M38.5345 12.4478C38.5345 12.4478 41.6468 14.3772 39.4046 14.8244C37.1624 15.2716 36.772 13.8251 32.6878 16.8689C28.6035 19.9126 24.8014 23.047 24.0353 21.5577C23.2692 20.0684 32.3634 9.14876 38.5345 12.4478Z" fill="url(#paint6_linear_928_556)"/>
<path d="M21.3669 31.5833C22.2756 33.8465 19.4902 37.9502 15.9182 39.2553C14.8983 37.0662 14.27 34.7153 14.0618 32.3092C14.4542 32.0202 14.801 31.674 15.0908 31.2821C16.8427 28.9679 20.1133 28.4617 21.3669 31.5833Z" fill="url(#paint7_linear_928_556)"/>
<path d="M50.7806 3.95898C50.7806 3.95898 50.5504 8.05676 53.6343 8.05676C53.6343 8.05676 50.8719 7.45807 50.8719 11.8778C50.8719 11.8778 50.5499 8.05676 47.8337 8.05676C47.8345 8.05676 50.7806 8.65513 50.7806 3.95898Z" fill="url(#paint8_linear_928_556)"/>
<path d="M44.5097 0C44.5097 0 44.2931 4.09801 47.3775 4.08807C47.3775 4.08807 44.6135 3.49867 44.6286 7.9184C44.6286 7.9184 44.2932 4.09824 41.5762 4.10776C41.5767 4.10761 44.5255 4.69615 44.5097 0Z" fill="url(#paint9_linear_928_556)"/>
<path d="M26.182 61.5472C26.1807 62.7913 25.7134 63.9896 24.8721 64.9062C24.0309 65.8227 22.8769 66.3909 21.6375 66.4986C20.3981 66.6064 19.1633 66.2458 18.1766 65.4882C17.1898 64.7306 16.5227 63.6307 16.3068 62.4056C16.0908 61.1804 16.3416 59.9188 17.0099 58.8694C17.6781 57.8201 18.7152 57.0591 19.9167 56.7365C21.1182 56.414 22.397 56.5533 23.5009 57.127C24.6048 57.7006 25.4537 58.667 25.8803 59.8357C25.9705 60.0816 26.0401 60.3346 26.0886 60.5921C26.151 60.9066 26.1823 61.2266 26.182 61.5472Z" fill="url(#paint10_linear_928_556)"/>
<path d="M25.8803 59.8366C25.4155 59.6427 24.7858 59.6149 23.9468 59.8241C20.8117 60.608 18.638 59.3708 17.4269 58.299C17.9934 57.6409 18.7221 57.1424 19.5407 56.8527C20.3593 56.5631 21.2394 56.4924 22.0938 56.6478C22.9481 56.8032 23.747 57.1793 24.4112 57.7386C25.0754 58.298 25.5818 59.0212 25.8803 59.8366Z" fill="url(#paint11_linear_928_556)"/>
<path d="M26.182 61.5471C26.1818 62.592 25.853 63.6103 25.2422 64.4581C24.6314 65.3058 23.7695 65.9402 22.7784 66.2712C21.7873 66.6023 20.7172 66.6134 19.7195 66.3029C18.7218 65.9923 17.847 65.376 17.2189 64.541C21.417 64.5752 22.8409 61.859 24.2662 60.9085C24.5336 60.7371 24.8326 60.6208 25.1455 60.5664C25.4584 60.5121 25.779 60.5208 26.0886 60.592C26.1509 60.9065 26.1822 61.2264 26.182 61.5471Z" fill="url(#paint12_linear_928_556)"/>
<path d="M72 50.3137C72.0004 52.4589 71.2948 54.5446 69.992 56.2489C68.6893 57.9532 66.8618 59.1812 64.7916 59.7437C62.7215 60.3062 60.5237 60.1718 58.5376 59.361C56.5515 58.5503 54.8875 57.1083 53.8023 55.2579C53.6186 54.9454 53.4522 54.6232 53.3039 54.2925C52.6586 52.844 52.3756 51.2603 52.4791 49.678C52.5826 48.0956 53.0696 46.5622 53.8981 45.2102C54.7266 43.8581 55.8717 42.7279 57.2345 41.9172C58.5973 41.1065 60.1369 40.6395 61.7204 40.5567C61.8894 40.548 62.0587 40.5439 62.2301 40.5439C64.7425 40.5434 67.1585 41.5108 68.9761 43.2454C70.7936 44.98 71.8729 47.3484 71.9896 49.8581C71.9966 50.0084 72 50.1602 72 50.3137Z" fill="url(#paint13_linear_928_556)"/>
<path d="M60.6975 44.1834C62.0462 50.7821 59.5082 55.5345 53.8022 55.2572C53.6185 54.9448 53.4521 54.6225 53.3038 54.2919C54.1155 53.8354 54.6785 52.9281 54.1207 51.1432C53.6133 49.5222 53.456 47.2467 53.9579 45.1129C54.7914 43.7864 55.9318 42.68 57.2828 41.8868C58.6338 41.0936 60.1558 40.637 61.7204 40.5557C60.8292 41.1521 60.3015 42.2465 60.6975 44.1834Z" fill="url(#paint14_linear_928_556)"/>
<path d="M71.9895 49.8578C70.5982 50.8501 69.1997 52.7217 68.2962 55.2309C67.3269 57.9217 65.4524 59.2971 63.6053 59.987C62.5067 60.1428 61.3896 60.1113 60.3015 59.8938C65.715 57.2167 66.7948 51.7377 65.9976 47.3121C65.4865 44.4713 66.1892 42.8173 67.1264 41.8584C68.5421 42.6777 69.7294 43.8396 70.5792 45.2373C71.4289 46.635 71.9138 48.2238 71.9895 49.8578Z" fill="url(#paint15_linear_928_556)"/>
<defs>
<linearGradient id="paint0_linear_928_556" x1="38.8415" y1="12.7198" x2="30.1571" y2="64.4738" gradientUnits="userSpaceOnUse">
<stop stop-color="#F6D76D"/>
<stop offset="1" stop-color="#E0982F"/>
</linearGradient>
<linearGradient id="paint1_linear_928_556" x1="36.3669" y1="34.9021" x2="36.8512" y2="54.0162" gradientUnits="userSpaceOnUse">
<stop stop-color="#F6D76D"/>
<stop offset="1" stop-color="#E0982F"/>
</linearGradient>
<linearGradient id="paint2_linear_928_556" x1="39.8146" y1="52.1148" x2="38.7314" y2="19.115" gradientUnits="userSpaceOnUse">
<stop stop-color="#F6D76D"/>
<stop offset="1" stop-color="#E0982F"/>
</linearGradient>
<linearGradient id="paint3_linear_928_556" x1="0" y1="30.2651" x2="68.2171" y2="30.2651" gradientUnits="userSpaceOnUse">
<stop stop-color="#BF791D"/>
<stop offset="0.085" stop-color="#AD6919"/>
<stop offset="0.196" stop-color="#9E5D16"/>
<stop offset="0.326" stop-color="#955514"/>
<stop offset="0.522" stop-color="#935314"/>
<stop offset="0.673" stop-color="#965614"/>
<stop offset="0.81" stop-color="#A15F16"/>
<stop offset="0.941" stop-color="#B36F1A"/>
<stop offset="1" stop-color="#BF791D"/>
</linearGradient>
<linearGradient id="paint4_linear_928_556" x1="49.3743" y1="22.6125" x2="29.5913" y2="69.7002" gradientUnits="userSpaceOnUse">
<stop stop-color="#F6D76D" stop-opacity="0"/>
<stop offset="1" stop-color="#E0982F"/>
</linearGradient>
<linearGradient id="paint5_linear_928_556" x1="326.362" y1="-384.77" x2="324.314" y2="-376.222" gradientUnits="userSpaceOnUse">
<stop stop-color="#F6D76D"/>
<stop offset="1" stop-color="#E0982F"/>
</linearGradient>
<linearGradient id="paint6_linear_928_556" x1="32.7523" y1="23.0926" x2="31.88" y2="4.70845" gradientUnits="userSpaceOnUse">
<stop stop-color="#F6D76D"/>
<stop offset="1" stop-color="#E0982F"/>
</linearGradient>
<linearGradient id="paint7_linear_928_556" x1="19.2445" y1="46.5924" x2="16.2789" y2="29.7496" gradientUnits="userSpaceOnUse">
<stop stop-color="#F6D76D"/>
<stop offset="1" stop-color="#E0982F"/>
</linearGradient>
<linearGradient id="paint8_linear_928_556" x1="48.118" y1="7.11067" x2="53.5571" y2="7.97868" gradientUnits="userSpaceOnUse">
<stop stop-color="#F6D76D"/>
<stop offset="1" stop-color="#E0982F"/>
</linearGradient>
<linearGradient id="paint9_linear_928_556" x1="42.661" y1="0.704737" x2="48.1009" y2="1.57303" gradientUnits="userSpaceOnUse">
<stop stop-color="#F6D76D"/>
<stop offset="1" stop-color="#E0982F"/>
</linearGradient>
<linearGradient id="paint10_linear_928_556" x1="28.1821" y1="59.7109" x2="16.7884" y2="62.7061" gradientUnits="userSpaceOnUse">
<stop stop-color="#E26A6B"/>
<stop offset="1" stop-color="#D3444B"/>
</linearGradient>
<linearGradient id="paint11_linear_928_556" x1="26.5566" y1="58.3193" x2="26.0325" y2="58.3193" gradientUnits="userSpaceOnUse">
<stop stop-color="#E26A6B"/>
<stop offset="1" stop-color="#D3444B"/>
</linearGradient>
<linearGradient id="paint12_linear_928_556" x1="26.5584" y1="63.5296" x2="26.0386" y2="63.5296" gradientUnits="userSpaceOnUse">
<stop stop-color="#E26A6B"/>
<stop offset="1" stop-color="#D3444B"/>
</linearGradient>
<linearGradient id="paint13_linear_928_556" x1="62.6395" y1="46.1328" x2="61.1544" y2="61.2385" gradientUnits="userSpaceOnUse">
<stop stop-color="#E26A6B"/>
<stop offset="1" stop-color="#D3444B"/>
</linearGradient>
<linearGradient id="paint14_linear_928_556" x1="53.4132" y1="45.9259" x2="58.874" y2="46.7409" gradientUnits="userSpaceOnUse">
<stop stop-color="#E26A6B"/>
<stop offset="1" stop-color="#D3444B"/>
</linearGradient>
<linearGradient id="paint15_linear_928_556" x1="62.7326" y1="65.1147" x2="71.9713" y2="53.7126" gradientUnits="userSpaceOnUse">
<stop stop-color="#E26A6B"/>
<stop offset="1" stop-color="#D3444B"/>
</linearGradient>
</defs>
</svg>
