<svg width="69" height="72" viewBox="0 0 69 72" fill="none" xmlns="http://www.w3.org/2000/svg">
<path d="M9.22168 2.06414L10.4144 0.388406C10.9728 0.143601 11.5741 0.0118449 12.1836 0.000762573C12.7931 -0.0103197 13.3988 0.0994878 13.9656 0.323836L62.3799 19.477C63.0217 19.7308 63.5725 20.1717 63.9606 20.7424C64.3487 21.3132 64.5561 21.9875 64.5561 22.6777V56.4646C64.5563 57.3607 64.2957 58.2374 63.806 58.9879C63.3164 59.7384 62.619 60.3302 61.7988 60.6911L60.0363 61.4665L26.5659 30.1217L9.22168 2.06414Z" fill="url(#paint0_linear_928_593)"/>
<path d="M59.361 60.822L11.2826 41.0846C10.3909 40.7185 9.62827 40.0956 9.09152 39.295C8.55477 38.4945 8.26818 37.5524 8.26819 36.5885V2.859C8.26819 2.43194 8.37333 2.01145 8.57434 1.63466C8.77535 1.25787 9.06604 0.936363 9.42074 0.69853C9.77544 0.460697 10.1832 0.313855 10.6081 0.270965C11.033 0.228076 11.462 0.290452 11.857 0.452603L59.9356 20.1907C60.8273 20.5565 61.59 21.1793 62.1268 21.9799C62.6635 22.7804 62.95 23.7225 62.9499 24.6863V58.4158C62.9499 58.8429 62.8448 59.2634 62.6438 59.6402C62.4428 60.017 62.1521 60.3385 61.7974 60.5764C61.4427 60.8142 61.0348 60.961 60.6099 61.0039C60.185 61.0467 59.7561 60.9843 59.361 60.822Z" fill="url(#paint1_linear_928_593)"/>
<path d="M17.6725 12.609L28.9259 17.2977C29.2926 17.4503 29.6058 17.7081 29.8261 18.0386C30.0464 18.369 30.1639 18.7573 30.1638 19.1544V35.9939C30.1637 36.1669 30.121 36.3371 30.0393 36.4896C29.9576 36.642 29.8396 36.7719 29.6956 36.8678C29.5517 36.9636 29.3863 37.0225 29.2142 37.0391C29.042 37.0557 28.8685 37.0295 28.7088 36.9629L17.4561 32.2744C17.0896 32.1217 16.7764 31.8638 16.5562 31.5334C16.336 31.2029 16.2186 30.8147 16.2188 30.4176V13.5786C16.2187 13.4057 16.2614 13.2355 16.3429 13.0831C16.4245 12.9307 16.5424 12.8007 16.6862 12.7048C16.83 12.6089 16.9953 12.55 17.1673 12.5332C17.3393 12.5165 17.5129 12.5425 17.6725 12.609Z" fill="url(#paint2_linear_928_593)"/>
<path d="M40.3871 41.4964L40.8011 38.927C41.2323 38.7378 41.6968 38.636 42.1677 38.6275C42.6386 38.6191 43.1064 38.7041 43.5442 38.8777L66.6917 48.7572C67.1874 48.9533 67.6126 49.294 67.9123 49.7348C68.212 50.1757 68.3722 50.6965 68.3722 51.2296V67.9927C68.3722 68.6847 68.171 69.3619 67.7928 69.9415C67.4147 70.5211 66.876 70.9782 66.2425 71.2569L63.9201 71.3897L64.4423 59.3793L40.3871 41.4964Z" fill="url(#paint3_linear_928_593)"/>
<path d="M64.0137 71.8495L41.1252 61.5178C40.4366 61.235 39.8475 60.7538 39.433 60.1354C39.0185 59.517 38.7971 58.7894 38.7971 58.0449V41.3274C38.7972 40.9976 38.8785 40.6729 39.0338 40.3819C39.1891 40.0909 39.4137 39.8426 39.6877 39.6589C39.9616 39.4752 40.2766 39.3617 40.6047 39.3286C40.9329 39.2954 41.2642 39.3435 41.5694 39.4686L64.4573 49.8008C65.1459 50.0836 65.7349 50.5647 66.1494 51.1831C66.5639 51.8014 66.7852 52.529 66.7851 53.2735V69.9911C66.7852 70.3209 66.704 70.6457 66.5488 70.9367C66.3936 71.2277 66.1691 71.476 65.8952 71.6597C65.6213 71.8434 65.3064 71.9568 64.9782 71.9899C64.6501 72.023 64.3188 71.9747 64.0137 71.8495Z" fill="url(#paint4_linear_928_593)"/>
<path d="M62.5602 60.2872C62.6309 61.124 62.1225 61.8498 61.4262 61.9085C60.7298 61.9672 60.1066 61.338 60.0356 60.5011C59.9645 59.6643 60.4719 58.939 61.1696 58.8798C61.8673 58.8206 62.4893 59.4508 62.5602 60.2872Z" fill="url(#paint5_linear_928_593)"/>
<path d="M49.2909 30.0489C49.1949 30.0492 49.1001 30.0275 49.0137 29.9856L35.8067 23.5893C35.6585 23.5137 35.5459 23.3831 35.4929 23.2254C35.4399 23.0677 35.4507 22.8955 35.5232 22.7457C35.5956 22.596 35.7239 22.4806 35.8804 22.4243C36.037 22.3679 36.2093 22.3752 36.3606 22.4445L49.5676 28.8408C49.6972 28.9034 49.8018 29.0082 49.8641 29.138C49.9264 29.2679 49.9428 29.415 49.9106 29.5554C49.8784 29.6957 49.7995 29.821 49.6868 29.9106C49.5741 30.0003 49.4343 30.049 49.2903 30.0489H49.2909Z" fill="url(#paint6_linear_928_593)"/>
<path d="M49.2909 35.7735C49.1948 35.7735 49.0999 35.7513 49.0137 35.7087L35.8067 29.3125C35.7306 29.2767 35.6624 29.2261 35.606 29.1638C35.5496 29.1015 35.5061 29.0286 35.4781 28.9493C35.45 28.8701 35.438 28.786 35.4426 28.7021C35.4473 28.6182 35.4685 28.536 35.5052 28.4603C35.5418 28.3846 35.5931 28.317 35.656 28.2613C35.719 28.2055 35.7924 28.1629 35.8719 28.1357C35.9515 28.1085 36.0356 28.0974 36.1195 28.103C36.2034 28.1085 36.2853 28.1307 36.3606 28.1681L49.5676 34.5644C49.6972 34.6272 49.8017 34.7321 49.864 34.8619C49.9263 34.9918 49.9427 35.139 49.9105 35.2793C49.8783 35.4197 49.7994 35.545 49.6868 35.6348C49.5741 35.7245 49.4343 35.7734 49.2903 35.7735H49.2909Z" fill="url(#paint7_linear_928_593)"/>
<path d="M58.1953 54.2179C58.1032 54.2179 58.0122 54.1977 57.9288 54.1587L52.354 51.5792C52.2772 51.5448 52.2079 51.4955 52.1503 51.4342C52.0927 51.3728 52.0479 51.3007 52.0184 51.2218C51.9888 51.143 51.9753 51.0591 51.9785 50.975C51.9817 50.8909 52.0015 50.8083 52.0368 50.7319C52.0722 50.6555 52.1224 50.5869 52.1844 50.5301C52.2465 50.4733 52.3193 50.4293 52.3985 50.4008C52.4776 50.3723 52.5617 50.3598 52.6458 50.3641C52.7298 50.3683 52.8122 50.3892 52.8881 50.4255L58.4626 53.0051C58.5942 53.0659 58.7012 53.1698 58.7657 53.2997C58.8302 53.4296 58.8483 53.5777 58.8171 53.7193C58.7859 53.861 58.7072 53.9877 58.5941 54.0785C58.481 54.1693 58.3403 54.2187 58.1953 54.2186V54.2179Z" fill="url(#paint8_linear_928_593)"/>
<path d="M58.1952 58.0339C58.103 58.0338 58.012 58.0134 57.9287 57.9741L52.3539 55.3946C52.2781 55.3595 52.21 55.3099 52.1534 55.2485C52.0968 55.1871 52.0529 55.1151 52.0241 55.0367C51.9953 54.9583 51.9822 54.8751 51.9856 54.7916C51.989 54.7082 52.0088 54.6262 52.0439 54.5505C52.079 54.4747 52.1286 54.4065 52.19 54.3499C52.2514 54.2934 52.3234 54.2494 52.4017 54.2206C52.4801 54.1918 52.5634 54.1788 52.6468 54.1822C52.7303 54.1856 52.8122 54.2054 52.888 54.2404L58.4625 56.8199C58.5941 56.8808 58.7011 56.9848 58.7655 57.1148C58.83 57.2447 58.8482 57.3927 58.817 57.5344C58.7858 57.6761 58.7071 57.8028 58.594 57.8937C58.481 57.9845 58.3402 58.034 58.1952 58.0339Z" fill="url(#paint9_linear_928_593)"/>
<path d="M0.317749 6.51622L1.44024 5.09685C1.72727 4.72014 2.09302 4.41058 2.512 4.18976C2.93097 3.96894 3.39307 3.84219 3.86607 3.81833C4.49199 3.80028 5.11505 3.90968 5.69737 4.13989L16.5869 8.66466C17.2285 8.91846 17.7791 9.35926 18.167 9.92987C18.555 10.5005 18.7625 11.1745 18.7626 11.8645V45.0172C18.7626 45.9132 18.5019 46.7899 18.0123 47.5404C17.5227 48.2909 16.8253 48.8827 16.0052 49.2436L14.2427 50.0191L13.6743 33.8647L0.317749 6.51622Z" fill="url(#paint10_linear_928_593)"/>
<path d="M13.567 50.0098L3.01391 45.5367C2.12241 45.1706 1.35991 44.5477 0.823254 43.7472C0.286597 42.9467 3.07102e-05 42.0048 5.60329e-08 41.041V7.31154C-8.85797e-05 6.88444 0.10498 6.46389 0.305958 6.08703C0.506935 5.71018 0.797634 5.38862 1.15235 5.15074C1.50707 4.91286 1.91493 4.766 2.33987 4.72311C2.76481 4.68022 3.19375 4.74263 3.58885 4.90483L14.1419 9.37785C15.0336 9.74395 15.7963 10.3669 16.3331 11.1676C16.8698 11.9682 17.1564 12.9104 17.1564 13.8743V47.6036C17.1563 48.0307 17.0511 48.4512 16.85 48.828C16.649 49.2048 16.3582 49.5263 16.0035 49.7642C15.6487 50.002 15.2409 50.1488 14.816 50.1916C14.391 50.2345 13.9621 50.1721 13.567 50.0098Z" fill="url(#paint11_linear_928_593)"/>
<path d="M9.77017 42.4796C9.84106 43.3156 9.33323 44.0419 8.63597 44.101C7.93871 44.1602 7.31676 43.5294 7.24523 42.6937C7.1737 41.858 7.68249 41.1311 8.37927 41.0713C9.07606 41.0115 9.69895 41.6426 9.77017 42.4796Z" fill="url(#paint12_linear_928_593)"/>
<path d="M59.9782 39.9514C60.049 40.7878 59.5418 41.514 58.8439 41.5732C58.146 41.6324 57.5247 41.0019 57.454 40.1647C57.3832 39.3276 57.8908 38.6026 58.5874 38.543C59.284 38.4833 59.9072 39.1146 59.9782 39.9514Z" fill="url(#paint13_linear_928_593)"/>
<path d="M5.89288 11.6397C5.79994 11.6395 5.70815 11.6192 5.62385 11.58L2.74158 10.2363C2.5895 10.1644 2.47209 10.0352 2.41499 9.87696C2.35788 9.71873 2.36575 9.54433 2.43685 9.39187C2.50796 9.23942 2.6365 9.12131 2.79443 9.06337C2.95236 9.00542 3.12683 9.01235 3.27966 9.08264L6.1619 10.4267C6.29315 10.4879 6.3996 10.5921 6.46364 10.722C6.52768 10.8519 6.54546 10.9997 6.5141 11.1411C6.48274 11.2825 6.40409 11.409 6.29113 11.4996C6.17818 11.5903 6.03771 11.6397 5.89288 11.6397Z" fill="url(#paint14_linear_928_593)"/>
<path d="M5.89283 14.8204C5.79986 14.8205 5.70802 14.8001 5.62381 14.7607L2.74153 13.4165C2.58867 13.3452 2.47041 13.216 2.41278 13.0575C2.35514 12.8989 2.36287 12.724 2.43422 12.5711C2.50557 12.4183 2.63472 12.3 2.79326 12.2424C2.95181 12.1847 3.12675 12.1924 3.27961 12.2638L6.16185 13.608C6.29318 13.6691 6.39972 13.7732 6.46383 13.9031C6.52794 14.033 6.54574 14.1809 6.51437 14.3223C6.48299 14.4637 6.40427 14.5901 6.29124 14.6807C6.17822 14.7713 6.03767 14.8205 5.89283 14.8204Z" fill="url(#paint15_linear_928_593)"/>
<path d="M9.85772 36.4093C9.76439 36.4092 9.67223 36.3884 9.58788 36.3485L2.74079 33.1328C2.66517 33.0973 2.59728 33.0473 2.541 32.9855C2.48473 32.9238 2.44118 32.8516 2.41281 32.773C2.38444 32.6944 2.37182 32.6111 2.37568 32.5276C2.37954 32.4442 2.39976 32.3623 2.43525 32.2867C2.47075 32.2111 2.5208 32.1432 2.58254 32.0869C2.64427 32.0306 2.71647 31.9871 2.79503 31.9587C2.8736 31.9303 2.957 31.9177 3.04045 31.9216C3.12389 31.9254 3.20577 31.9457 3.28138 31.9812L10.1285 35.1974C10.2595 35.2588 10.3657 35.3631 10.4295 35.493C10.4933 35.6229 10.5108 35.7707 10.4793 35.9119C10.4477 36.0532 10.3689 36.1794 10.2559 36.2698C10.1429 36.3603 10.0024 36.4094 9.85772 36.4093Z" fill="#CECECE"/>
<path d="M3.65851 17.6596L9.81723 20.2259C10.0179 20.3094 10.1894 20.4505 10.3099 20.6313C10.4305 20.8121 10.4949 21.0247 10.4949 21.242V30.4583C10.4949 30.553 10.4714 30.6461 10.4267 30.7296C10.3821 30.813 10.3175 30.8841 10.2387 30.9366C10.16 30.9891 10.0695 31.0213 9.97528 31.0305C9.88108 31.0396 9.7861 31.0253 9.69873 30.989L3.53997 28.4221C3.3393 28.3387 3.16784 28.1977 3.04721 28.0169C2.92658 27.8362 2.8622 27.6237 2.86218 27.4064V18.1898C2.86222 18.0951 2.88563 18.002 2.93034 17.9185C2.97504 17.8351 3.03967 17.764 3.11845 17.7116C3.19724 17.6591 3.28777 17.6269 3.38199 17.6179C3.47621 17.6088 3.57117 17.6232 3.65851 17.6596Z" fill="url(#paint16_linear_928_593)"/>
<path d="M42.4553 44.3736L48.6142 46.9395C48.8148 47.0231 48.9861 47.1642 49.1066 47.345C49.2271 47.5258 49.2914 47.7383 49.2913 47.9556V57.1718C49.2914 57.2664 49.2681 57.3595 49.2235 57.443C49.1789 57.5264 49.1143 57.5976 49.0356 57.6501C48.9569 57.7026 48.8665 57.7349 48.7723 57.744C48.6781 57.7532 48.5832 57.7389 48.4958 57.7025L42.3366 55.1362C42.136 55.0525 41.9647 54.9114 41.8441 54.7306C41.7236 54.5498 41.6593 54.3373 41.6593 54.12V44.9034C41.6593 44.8088 41.6827 44.7156 41.7274 44.6322C41.7721 44.5488 41.8367 44.4778 41.9155 44.4254C41.9942 44.3729 42.0847 44.3408 42.1789 44.3317C42.2731 44.3227 42.368 44.3371 42.4553 44.3736Z" fill="url(#paint17_linear_928_593)"/>
<defs>
<linearGradient id="paint0_linear_928_593" x1="36.8889" y1="23.1729" x2="36.8889" y2="67.6131" gradientUnits="userSpaceOnUse">
<stop stop-color="#D5D5D4"/>
<stop offset="1" stop-color="#BABABA"/>
</linearGradient>
<linearGradient id="paint1_linear_928_593" x1="35.609" y1="17.4527" x2="35.609" y2="72.379" gradientUnits="userSpaceOnUse">
<stop stop-color="#FEFEFE"/>
<stop offset="1" stop-color="#D3DEED"/>
</linearGradient>
<linearGradient id="paint2_linear_928_593" x1="23.1913" y1="8.45873" x2="23.1913" y2="37.7794" gradientUnits="userSpaceOnUse">
<stop stop-color="#FFC200"/>
<stop offset="1" stop-color="#FFA300"/>
</linearGradient>
<linearGradient id="paint3_linear_928_593" x1="54.3796" y1="49.1438" x2="54.3796" y2="70.931" gradientUnits="userSpaceOnUse">
<stop stop-color="#D5D5D4"/>
<stop offset="1" stop-color="#BABABA"/>
</linearGradient>
<linearGradient id="paint4_linear_928_593" x1="52.7911" y1="47.6522" x2="52.7911" y2="95.3674" gradientUnits="userSpaceOnUse">
<stop stop-color="#FEFEFE"/>
<stop offset="1" stop-color="#D3DEED"/>
</linearGradient>
<linearGradient id="paint5_linear_928_593" x1="60.9654" y1="56.699" x2="62.1727" y2="66.0743" gradientUnits="userSpaceOnUse">
<stop stop-color="#D5D5D4"/>
<stop offset="1" stop-color="#BABABA"/>
</linearGradient>
<linearGradient id="paint6_linear_928_593" x1="37.3404" y1="23.8195" x2="43.7171" y2="33.998" gradientUnits="userSpaceOnUse">
<stop stop-color="#012E41"/>
<stop offset="1" stop-color="#012430"/>
</linearGradient>
<linearGradient id="paint7_linear_928_593" x1="35.1809" y1="28.5849" x2="41.582" y2="38.7776" gradientUnits="userSpaceOnUse">
<stop stop-color="#012E41"/>
<stop offset="1" stop-color="#012430"/>
</linearGradient>
<linearGradient id="paint8_linear_928_593" x1="60.6894" y1="53.9487" x2="54.0987" y2="47.4097" gradientUnits="userSpaceOnUse">
<stop stop-color="#012E41"/>
<stop offset="1" stop-color="#012430"/>
</linearGradient>
<linearGradient id="paint9_linear_928_593" x1="59.5987" y1="57.4214" x2="53.0063" y2="50.887" gradientUnits="userSpaceOnUse">
<stop stop-color="#012E41"/>
<stop offset="1" stop-color="#012430"/>
</linearGradient>
<linearGradient id="paint10_linear_928_593" x1="9.54016" y1="13.4266" x2="9.54016" y2="58.5204" gradientUnits="userSpaceOnUse">
<stop stop-color="#D5D5D4"/>
<stop offset="1" stop-color="#BABABA"/>
</linearGradient>
<linearGradient id="paint11_linear_928_593" x1="21.7371" y1="20.4057" x2="-35.5374" y2="24.7709" gradientUnits="userSpaceOnUse">
<stop stop-color="#FEFEFE"/>
<stop offset="1" stop-color="#D3DEED"/>
</linearGradient>
<linearGradient id="paint12_linear_928_593" x1="8.40612" y1="40.1106" x2="9.07064" y2="51.5352" gradientUnits="userSpaceOnUse">
<stop stop-color="#D5D5D4"/>
<stop offset="1" stop-color="#BABABA"/>
</linearGradient>
<linearGradient id="paint13_linear_928_593" x1="58.9191" y1="38.0287" x2="57.708" y2="46.4772" gradientUnits="userSpaceOnUse">
<stop stop-color="#D5D5D4"/>
<stop offset="1" stop-color="#BABABA"/>
</linearGradient>
<linearGradient id="paint14_linear_928_593" x1="10.3324" y1="14.166" x2="5.85885" y2="6.81287" gradientUnits="userSpaceOnUse">
<stop stop-color="#012E41"/>
<stop offset="1" stop-color="#012430"/>
</linearGradient>
<linearGradient id="paint15_linear_928_593" x1="8.88118" y1="16.4006" x2="4.40657" y2="9.04331" gradientUnits="userSpaceOnUse">
<stop stop-color="#012E41"/>
<stop offset="1" stop-color="#012430"/>
</linearGradient>
<linearGradient id="paint16_linear_928_593" x1="6.67854" y1="21.5601" x2="6.67854" y2="41.1502" gradientUnits="userSpaceOnUse">
<stop stop-color="#FFC200"/>
<stop offset="1" stop-color="#FFA300"/>
</linearGradient>
<linearGradient id="paint17_linear_928_593" x1="45.4753" y1="44.0473" x2="45.4753" y2="65.6228" gradientUnits="userSpaceOnUse">
<stop stop-color="#FFC200"/>
<stop offset="1" stop-color="#FFA300"/>
</linearGradient>
</defs>
</svg>
