<?xml version="1.0" encoding="UTF-8"?>
<svg xmlns="http://www.w3.org/2000/svg" xmlns:xlink="http://www.w3.org/1999/xlink" viewBox="0 0 40 40">
  <defs>
    <style>
      .cls-1 {
        fill: url(#radial-gradient-7);
      }

      .cls-2 {
        fill: url(#radial-gradient-6);
      }

      .cls-3 {
        fill: url(#radial-gradient-5);
      }

      .cls-4 {
        fill: url(#radial-gradient-4);
      }

      .cls-5 {
        fill: url(#radial-gradient-9);
      }

      .cls-6 {
        fill: url(#radial-gradient-8);
      }

      .cls-7 {
        fill: url(#radial-gradient-3);
      }

      .cls-8 {
        fill: url(#radial-gradient-2);
      }

      .cls-9 {
        fill: #a898ab;
        mix-blend-mode: multiply;
      }

      .cls-9, .cls-10 {
        opacity: .6;
      }

      .cls-11 {
        fill: url(#radial-gradient);
      }

      .cls-12 {
        isolation: isolate;
      }

      .cls-13 {
        fill: url(#radial-gradient-12);
      }

      .cls-14 {
        fill: url(#radial-gradient-14);
      }

      .cls-15 {
        fill: url(#radial-gradient-13);
      }

      .cls-16 {
        fill: url(#radial-gradient-10);
      }

      .cls-17 {
        fill: url(#radial-gradient-11);
      }

      .cls-18 {
        fill: url(#radial-gradient-15);
      }

      .cls-10 {
        fill: #4a5ca9;
        mix-blend-mode: color-dodge;
      }
    </style>
    <radialGradient id="radial-gradient" cx="4.65" cy="-4.13" fx="4.65" fy="-4.13" r="49.05" gradientTransform="translate(2.19) scale(.89 1)" gradientUnits="userSpaceOnUse">
      <stop offset=".41" stop-color="#6487a9"/>
      <stop offset=".91" stop-color="#a06d7e"/>
    </radialGradient>
    <radialGradient id="radial-gradient-2" cx="45.74" cy="19.77" fx="45.74" fy="19.77" r="64.64" gradientTransform="translate(2.19) scale(.89 1)" gradientUnits="userSpaceOnUse">
      <stop offset=".41" stop-color="#32485d"/>
      <stop offset=".91" stop-color="#a06d7e"/>
    </radialGradient>
    <radialGradient id="radial-gradient-3" cx="45.74" cy="19.77" fx="45.74" fy="19.77" r="64.64" xlink:href="#radial-gradient-2"/>
    <radialGradient id="radial-gradient-4" cx="45.74" cy="19.77" fx="45.74" fy="19.77" r="64.64" xlink:href="#radial-gradient-2"/>
    <radialGradient id="radial-gradient-5" cx="45.74" cy="19.77" fx="45.74" fy="19.77" r="64.64" xlink:href="#radial-gradient-2"/>
    <radialGradient id="radial-gradient-6" cx="45.74" cy="19.77" fx="45.74" fy="19.77" r="64.64" xlink:href="#radial-gradient-2"/>
    <radialGradient id="radial-gradient-7" cx="45.74" cy="19.77" fx="45.74" fy="19.77" r="64.64" xlink:href="#radial-gradient-2"/>
    <radialGradient id="radial-gradient-8" cx="45.74" cy="19.77" fx="45.74" fy="19.77" r="64.64" xlink:href="#radial-gradient-2"/>
    <radialGradient id="radial-gradient-9" cx="45.75" cy="19.77" fx="45.75" fy="19.77" r="64.64" xlink:href="#radial-gradient-2"/>
    <radialGradient id="radial-gradient-10" cx="45.74" cy="19.77" fx="45.74" fy="19.77" r="64.63" xlink:href="#radial-gradient-2"/>
    <radialGradient id="radial-gradient-11" cx="45.74" cy="19.77" fx="45.74" fy="19.77" r="64.64" xlink:href="#radial-gradient-2"/>
    <radialGradient id="radial-gradient-12" cx="45.74" cy="19.77" fx="45.74" fy="19.77" r="64.64" xlink:href="#radial-gradient-2"/>
    <radialGradient id="radial-gradient-13" cx="45.74" cy="19.77" fx="45.74" fy="19.77" r="64.64" xlink:href="#radial-gradient-2"/>
    <radialGradient id="radial-gradient-14" cx="45.75" cy="19.77" fx="45.75" fy="19.77" r="64.66" xlink:href="#radial-gradient-2"/>
    <radialGradient id="radial-gradient-15" cx="45.75" cy="19.77" fx="45.75" fy="19.77" r="64.65" xlink:href="#radial-gradient-2"/>
  </defs>
  <g class="cls-12">
    <g id="Layer_2">
      <g id="Layer_1-2" data-name="Layer_1">
        <g>
          <path class="cls-11" d="M39.51,20.33c.06-2.81.93-5.69.19-8.47-.62-2.33-2.34-4.2-4.17-5.37-2.14-1.37-4.65-1.17-6.82-2.41-1.03-.59-1.79-1.62-2.73-2.36-.96-.75-1.96-1.27-3.11-1.54-1.94-.45-4.12.01-5.89.94-1.03.54-2.04,1.14-3.11,1.59-1.06.44-2.19.62-3.26,1.05-1.75.7-3.28,2.05-4.42,3.68-.52.74-.62,1.74-.74,2.64-.02.17-.05.34-.09.51-1.13,1.92-2.74,3.4-3.92,5.33C.06,18.21-.16,21.09.09,23.78c.26,2.75,1.95,5.18,3.59,7.13.9,1.06,1.7,2.21,2.65,3.22.9.96,1.37,2.3,2.03,3.45,1.28,2.22,3.39,2.83,5.61,2.17,1.15-.35,2.23-.92,3.36-1.34,1.53-.56,3.03-.32,4.57.04,2.65.64,5.16.67,7.81-.02,2.16-.56,4.47-1.4,6.35-2.76,4.47-3.26,3.34-10.3,3.45-15.35Z"/>
          <path class="cls-9" d="M39.51,20.33c.06-2.81.93-5.69.19-8.47-.62-2.33-2.34-4.2-4.17-5.37-2.14-1.37-4.65-1.17-6.82-2.41-1.03-.59-1.79-1.62-2.73-2.36-.96-.75-1.96-1.27-3.11-1.54-1.94-.45-4.12.01-5.89.94-1.03.54-2.04,1.14-3.11,1.59-1.06.44-2.19.62-3.26,1.05-1.75.7-3.28,2.05-4.42,3.68-.52.74-.62,1.74-.74,2.64-.02.17-.05.34-.09.51-1.13,1.92-2.74,3.4-3.92,5.33C.06,18.21-.16,21.09.09,23.78c.26,2.75,1.95,5.18,3.59,7.13.9,1.06,1.7,2.21,2.65,3.22.9.96,1.37,2.3,2.03,3.45,1.28,2.22,3.39,2.83,5.61,2.17,1.15-.35,2.23-.92,3.36-1.34,1.53-.56,3.03-.32,4.57.04,2.65.64,5.16.67,7.81-.02,2.16-.56,4.47-1.4,6.35-2.76,4.47-3.26,3.34-10.3,3.45-15.35ZM30.73,11.2c-.33.62-.97.91-1.54,1.19-.84.42-1.51.91-2.03,1.8-.52.89-.92,1.87-1.38,2.81-.35.71-.7,1.57-1.32,2.05-.38.3-.81.47-1.19.75-.55.41-.57.95-.7,1.6-.15.73-.51,1.06-1.16,1.22-1.82.45-3.57,1.66-4.28,3.65,1.22-.62,2.52-1.35,3.86-.87.14.05.14.27,0,.32-1.63.58-3.2,2.73-3.61,4.56-.18.8-.22,3.13-1.4,3.03-.71-.06-1.32-.56-1.98-.79-.91-.32-1.92-.47-2.83-.04-.45.21-.91.79-1.43.71-.67-.11-.7-1.27-1.48-1.24-.57.02-1.08.2-1.58-.23-.49-.42-.89-.94-1.32-1.42-1.1-1.24-2.4-2.4-3.34-3.81-1.22-1.84-1.51-4.37-1.23-6.59.08-.64.21-1.29.4-1.9.45-1.49,1.35-2.75,2.34-3.84.52-.57,1.17-.95,1.76-1.41.9-.7.77-1.6.76-2.7,0-.13.17-.23.25-.12.43.6.57,1.32.73,2.05.22-1.35.49-2.94,1.65-3.58.33-.18,1.03-.66,1.4-.5.48.22.78.72,1.15,1.11-.2-.73-.46-1.43-.64-2.16-.02-.09.03-.17.1-.2.63-.26.87-1.16,1.51-1.36.25-.08.5-.09.76-.08-.12-.16-.25-.32-.4-.46-.09-.09-.03-.23.06-.27.41-.18.87-.32,1.24-.6-.26-.02-.52,0-.78.01-.18,0-.18-.26-.04-.32,2.33-1.09,4.44-2.74,7.03-2.9.88-.06,2,.04,2.52.96.36.64.03,2.02-.19,2.65-.05.13-.25.18-.28,0-.08-.48-.11-.97-.14-1.46-.1.49-.22.97-.41,1.43-.03.08-.14.1-.2.06-.5-.32-.99-.64-1.48-.98.05.13.1.25.14.38.05.13-.07.33-.2.22-.5-.41-1.86-1.01-2.37-.3-.46.65.47,1.61.68,2.2.02.06-.01.16-.07.18-.88.49-2.2.62-2.72,1.65.97.37,2.15.12,3.12-.07.46-.09.92-.19,1.38-.29.22-.05.54-.17.76-.02.56.37.12,1.43-.12,1.86-.35.64-.73,1.25-1,1.9,0,.05-.01.1,0,.15,1.07-.44,1.66-1.69,2.57-2.41.08-.06.19,0,.21.1.08.27.07.57.09.85.01.2.01.42.05.62.06.32.31.25.4-.03.18-.58.22-1.25.49-1.8.14-.28.35-.57.67-.41.5.25.78.72,1.32.79-.1-.33-.28-.6-.5-.88-.12-.16.06-.37.21-.23.92.9,1.97,1.65,3.14,2.06.86.3,1.78.52,2.53,1.12.06.05.1.14.05.22Z"/>
          <path class="cls-10" d="M6.13,12.29c-.67.57-1.19,1.3-1.87,1.87-.56.47-1.07.99-1.53,1.58-1.06,1.36-1.58,3.02-1.72,4.8-.15,1.9.32,3.75,1.22,5.34.5.88,1.14,1.6,1.77,2.36.5.59.94,1.27,1.55,1.72.05.03.15-.07.1-.12-2.07-2.53-4.15-5.1-4.27-8.71-.07-1.95.52-3.74,1.58-5.25.46-.66,1.06-1.19,1.63-1.72.58-.55.99-1.25,1.57-1.8.05-.04,0-.09-.04-.05Z"/>
          <path class="cls-8" d="M13.11,3.92c-.14.06-.62,0-.95.08-.11-.25-.63-.03-.81.04-.97.4-1.91.8-2.78,1.43-.42.3-.75.62-1.05.99-.5.48-1.03,1.11-1.05,1.71,0,0,0,0,0,0-.02.13,0,.27.01.4.02.19-.04.38,0,.57.02.08.13-.02.13-.08.01-.18.08-.37.13-.54.01-.05.02-.1.02-.15.18-.01.41-.09.59-.17,0,.06.02.12.03.18.04.19.05.38.07.58.02.18.09.46.04.64-.03.11.11.05.14,0,.11-.26.08-.61.11-.89.02-.18.02-.35,0-.53,0-.05,0-.1,0-.16.6-.28,1.18-.69,1.73-1.12.01.02.03.04.04.06.08.16.17.31.24.47.03.07.14-.02.12-.08-.05-.16-.11-.32-.18-.48-.02-.04-.03-.08-.05-.12.03-.03.07-.05.1-.08.07.14.15.27.2.39.14.33.27.67.46.96.04.05.13-.04.12-.1-.1-.36-.15-.73-.27-1.08-.04-.13-.1-.31-.17-.47.13-.11.25-.22.38-.32.11-.1.22-.2.32-.3.31-.26.61-.53.89-.83.02-.02.04-.05.06-.08.08.02.17.02.25.03.19.04.37.11.55.16.05.01.15-.11.08-.14-.19-.1-.46-.3-.7-.34.01-.01.02-.03.03-.04.03,0,.06,0,.08,0,.13-.02.27.04.4.06.03,0,.08-.06.04-.08-.12-.04-.24-.11-.36-.14.33-.1.71-.13,1-.33.05-.03.07-.15-.01-.11ZM11.76,4.37s-.06.04-.05.07c-.08-.16-2.75,1.55-2.94,1.69-.59.46-1.28.95-1.79,1.55,0-.08,0-.18,0-.29,0,0,.01-.02.02-.02.87-1.13,1.87-1.96,3.12-2.53.43-.2.87-.38,1.31-.56.35-.15.41-.07.31.1Z"/>
          <path class="cls-7" d="M14.25,36.45c-.23-1.17-1.63-2.34-2.68-2.03,0,0,0,0-.02,0-.51-.06-1.02.04-1.06.58-.09,1.18,1.61,2.14,2.43,2.4.79.25,1.53.1,1.33-.95Z"/>
          <path class="cls-4" d="M33.8,16.22c-1.52.7-3.19,2.24-3.36,4.19-.05-.1-.11-.18-.18-.26.02-.52.05-1.03.18-1.54.02-.06-.07-.02-.08.01-.14.43-.23.89-.28,1.35-.31-.24-.69-.31-1.14-.29-.32-.03-.63,0-.94.07-.07-.31-.12-.62-.12-.98,0-.51.09-1.48.41-1.88.05-.06-.02-.09-.06-.05-.43.4-.54,1.24-.62,1.83-.03.24-.07.76-.01,1.2-.48.17-.94.43-1.4.74-.61.41-1.19.86-1.73,1.37-.03-.04-.07-.07-.1-.11-.1-.12-.21-.24-.31-.37-.1-.13-.2-.24-.32-.34-.11-.09-.23-.15-.32-.26-.04-.04-.13.05-.1.1.07.1.16.16.23.24.12.14.23.27.34.43.1.15.21.29.31.43.02.03.04.06.06.08-.06.05-.11.11-.16.17-.04-.03-.07-.07-.1-.11-.09-.1-.17-.21-.28-.3-.03-.03-.11.06-.08.09.1.1.17.23.26.35.02.03.05.07.07.1-.21.23-.42.46-.61.71-.39-.16-.93-.12-1.26-.1-.88.04-1.57.3-2.33.74-.03.02-.04.09,0,.07.83-.37,1.57-.55,2.47-.52.29.01.58.06.86.16-.01.02-.03.03-.04.05-.51.73-.95,1.66-1.1,2.61-.45.11-.95.4-1.24.67-.3.28-.55.58-.78.92-.18.27-.26.77-.47.99-.02.02-.03.08.02.06.31-.14.55-.84.75-1.1.47-.62,1.04-.93,1.68-1.17,0,.13-.01.26,0,.39,0,.26.06.49.15.69-.13.06-.26.19-.33.28-.17.2-.29.43-.45.64-.05.07.02.11.07.06.13-.14.23-.29.35-.43.07-.08.14-.16.22-.23.07-.07.16-.09.24-.14.11.17.25.31.4.43-.1.06-.2.18-.24.29-.02.05-.05.1-.08.14-.02.03-.05.06-.03.1,0,0,0,0,0,0,0,.01.02.01.03.01.07-.02.12-.11.16-.17.08-.12.17-.2.27-.3.44.27,1,.38,1.49.38.94,0,1.99-.12,2.98-.44.02.14.08.28.15.41.1.2.16.41.3.58.04.04.14-.04.11-.09-.09-.18-.11-.39-.15-.59-.02-.11-.07-.22-.1-.33,0-.03-.01-.05-.02-.08,1.26-.48,2.36-1.31,2.89-2.7.28-.74.43-1.54.47-2.34.05-.03.11-.07.17-.09.09-.03.18-.05.26-.08.05-.01.12-.14.03-.12-.16.03-.32.04-.46.12,0-.26,0-.52-.02-.78h0c.13-.14.32-.23.49-.31.12-.05.23-.12.35-.18.06-.03.12-.06.18-.08-.05.02.41-.15.19-.02-.01,0-.02.03,0,.03.1-.05.07-.03.17-.09.01,0,.03-.04.01-.05-.29-.2-.78.1-1.05.22-.09.04-.22.11-.36.2-.02-.24-.06-.47-.1-.71-.01-.06-.02-.11-.03-.16.26-.95.42-1.86.96-2.69.58-.9,1.4-1.4,2.21-1.99.04-.03.07-.15-.01-.11ZM30.02,25.2c-.71,2.5-3.42,2.86-5.42,3.06-1.06.11-2.16-.25-2.3-1.55.02.01.03.03.05.04.43.57,1.62.64,2.15.67.93.05,1.84-.55,2.6-1.07.74-.5,1.81-1.15,2.29-1.99.32-.55.44-1.15.57-1.79.1-.49.08-1.05.14-1.55.05.17.1.33.13.47.29,1.22.12,2.53-.21,3.71Z"/>
          <path class="cls-3" d="M37.7,10.85c.01-.48-.4-1.08-.58-1.42-.52-1-1.26-1.87-2.19-2.4-.36-.21-1.08-.49-1.54-.29-.35,0-.75.16-1.08.21-.54.08-1.1-.03-1.63-.08-.02,0-.08.05-.05.07.6.53,1.58.35,2.36.11-.09.16-.08.35-.04.55-.37.11-.73.33-1.1.39-.03,0-.08.08-.03.08.4,0,.8-.15,1.19-.25.13.35.36.71.49.91.13.21.28.42.44.61-.03.03-.06.06-.09.09-.01.01-.03.03-.05.03,0,0-.04.03-.02.02-.02,0-.03.03-.03.05.01.06.14-.02.25-.11.03.03.06.06.08.1-.07.06-.14.11-.21.15-.05.02-.08.14,0,.1.1-.05.19-.11.28-.18.07.08.14.16.22.23-.17.11-.33.23-.48.35-.15.11-.28.24-.42.37-.12.12-.25.34-.4.42-.01,0-.04.06,0,.06.06,0,.07-.02.12-.07.18-.18.36-.35.55-.51.23-.21.5-.34.75-.5.16.15.32.29.49.43-.02.03-.05.06-.07.08-.24.29-.44.63-.64.95-.04.06.03.08.06.03.19-.27.38-.55.59-.8.05-.07.11-.12.17-.18.19.15.39.29.59.42-.13.24-.22.54-.33.77-.03.07.05.05.08,0,.09-.16.17-.33.25-.5.04-.07.08-.14.12-.21.11.07.23.14.34.2.16.09.37.19.59.25-.31.38-.45,1.01-.52,1.5,0,.07.1,0,.11-.03.08-.28.18-.55.31-.82.09-.19.23-.4.27-.61.11.02.22.02.32,0-.19.64-.19,1.42-.16,2.02,0,.08.11,0,.12-.05.06-.88.32-1.65.5-2.49,0-.03,0-.05,0-.07ZM37.06,11.05s.02-.07.02-.09c0-.03,0-.06-.02-.08,0,0-.01,0-.02,0,.03-.51-1.43-2.16-1.58-2.29-.23-.21-1.68-1.38-2.05-1.13,0-.25.1-.43.5-.35.6.12,1.11.44,1.58.85.76.67,1.34,1.66,1.75,2.62.16.38.04.48-.18.47Z"/>
          <path class="cls-2" d="M26.95,7.66c-.86-.36-1.7-.76-2.57-1.07.04-.2-.07-.4-.23-.58.05-.02.1-.03.15-.05.66-.17,1.34-.26,1.98-.5.04-.02.09-.13.02-.11-.56.16-1.15.22-1.73.32-.22.04-.43.09-.64.13-.2-.17-.41-.31-.53-.39.08-.07.16-.14.21-.18.22-.17.47-.31.66-.53.04-.05,0-.1-.04-.05-.29.28-.67.42-.99.66-.06-.03-.12-.05-.18-.08.01-.02.02-.04.04-.05.08-.11.17-.22.24-.33.05-.08-.04-.1-.08-.04-.09.13-.2.26-.3.39-.08-.03-.15-.05-.23-.07-.2-.1-.42-.17-.65-.23,0-.27-.04-.55-.05-.78-.03-.53.04-1.09-.09-1.61-.01-.05-.09.02-.08.06.07.47,0,.98-.04,1.45-.02.27,0,.54-.02.82-.16-.03-.32-.05-.48-.06-.04-.21-.17-.41-.23-.6-.02-.06-.12.02-.11.08.03.11.07.21.1.32.02.06.04.13.06.2-.34-.01-.66.01-.9.07-.06-.05-.12-.1-.19-.15-.24-.19-.62-.35-.75-.66-.03-.06-.12.02-.11.08.08.3.4.55.61.74.04.03.07.07.11.12-.09.05-.17.1-.22.15-.14-.05-.3-.06-.44-.09-.32-.07-.63-.09-.94-.19-.03,0-.09.06-.05.07.24.09.48.16.72.21.19.04.39.13.59.17-.09.25.13.53.42.77-.04.02-.07.03-.11.05-.13.07-.29.12-.39.24-.04.05,0,.09.05.06.19-.11.4-.17.61-.23.04.03.09.06.13.09-.26.12-.51.25-.77.36-.53.23-1.14.61-1.69.74-.04,0-.1.11-.03.1.43-.06.86-.31,1.28-.46.49-.18.99-.36,1.47-.58.06.03.12.06.17.09.32.15.65.27.98.35-.04.13-.07.25-.1.39-.08.37-.17.73-.22,1.11-.01.09.13.02.14-.04.09-.48.27-.94.41-1.4.31.06.63.09.95.1.05.09.11.18.16.27.02.04.11-.04.09-.08-.02-.06-.05-.13-.08-.19.02,0,.05,0,.07,0,.03,0,.07,0,.12,0,.04.04.08.08.12.12.13.14.27.28.4.41.05.05.16-.06.12-.12-.1-.14-.21-.28-.31-.42.18,0,.37-.02.52-.08.33.08.66.15.99.25.61.19,1.2.45,1.81.62.04.01.12-.09.07-.11Z"/>
          <path class="cls-1" d="M34.04,33.72c-.58.25-1.15.54-1.71.85-.57.32-1.2.66-1.74,1.1-.44.22-.88.59-1.08,1-.34.7.69.64,1.04.59,1.12-.14,2.25-.7,3.23-1.29.74-.45,1.86-1.2,2.28-2.04.69-1.37-1.66-.37-2.02-.21Z"/>
          <g>
            <path class="cls-6" d="M9.7,18.35c-.73.22-1.62.45-2.38.42-.53-.02-1.02-.08-1.54-.06-.03-.64-.14-1.25-.36-1.79.2-.06.4-.08.6-.11.25-.03.5-.13.74-.2.05-.01.11-.14.03-.12-.27.05-.54.12-.81.15-.22.03-.43.02-.63.15-.01-.03-.03-.06-.04-.09.06-.01.13-.02.19-.03.1-.03.2-.07.29-.12.06-.04.05-.14-.03-.09-.12.07-.26.1-.39.1-.05,0-.09,0-.13.02-.04-.07-.09-.15-.14-.21.05,0,.11,0,.16-.01.25-.05.49-.24.71-.36.35-.19.73-.49.88-.9.02-.05-.05-.03-.07,0-.27.43-1.16.83-1.61.78-.28-.03-.5.02-.68.21-.13.02-.26.1-.38.24-.31.39-.51.83-.64,1.29-.85,1.67-1.15,4.09-.86,5.8.07.43.27,1.35.79,1.37.2.15.53.27.62.31.3.14.59.3.87.47.42.25.57.63.86,1.01.03.04.11-.03.09-.08-.08-.31-.19-.6-.34-.87-.13-.23-.51-.39-.71-.5-.29-.16-.59-.29-.9-.41-.02,0-.06-.02-.11-.03.33-.18.6-.56.8-.96.12.04.24.08.35.12.26.1.46.27.7.42.05.03.13-.07.08-.11-.23-.16-.4-.35-.66-.47-.12-.06-.24-.12-.36-.18.09-.18.16-.36.23-.51.02-.06.05-.12.07-.17.15.04.3.08.45.11.46.11.93.27,1.39.33.06,0,.15-.12.07-.14-.24-.06-.46-.2-.7-.29-.21-.07-.42-.12-.63-.18-.14-.04-.3-.11-.46-.16.19-.53.36-1.12.47-1.74.03-.02.08-.09.03-.11,0,0,0,0-.01,0,.06-.32.1-.65.12-.97.13,0,.25,0,.38.02.24.03.48.1.73.11.05,0,.13-.11.06-.12-.24-.03-.46-.13-.7-.18-.15-.03-.3-.04-.46-.04,0-.12.01-.24.01-.36.09.02.19.01.32.02.42.03.84.1,1.26.09.73-.02,1.65-.44,2.32-.74.04-.02.09-.13.02-.11ZM5.19,17.16c-.44,1.12-1.01,2.11-1.25,3.33-.22,1.08-.06,2.39.17,3.45-.3.34-.65.45-.91-.2-.18-.46-.2-1-.21-1.5.01,0,.03,0,.04-.02,0,0,0,0,0,0,.12,0,.26-.02.33-.04.05-.01.09-.05.11-.11,0-.03,0-.06-.02-.07,0,0,0,0,0,0-.14-.04-.32,0-.45-.1,0,0,0,0-.01,0,0-.18,0-.36,0-.55.11-.03.22-.07.32-.12.06-.03.11-.18,0-.14-.1.04-.21.07-.32.07.02-.59.08-1.22.19-1.84,0,.03.06,0,.07-.03.18-.75.41-1.45.69-2.17.39-1.02.95-.57,1.27,0-.02.01-.03.03-.03.04Z"/>
            <path class="cls-5" d="M3.51,20.23c-.06,0-.12,0-.17,0-.07,0-.1-.04-.16-.07-.04-.02-.09.03-.1.07-.06.21.29.14.38.13.05,0,.12-.13.05-.13Z"/>
          </g>
          <path class="cls-16" d="M17.6,35.74s0,0,0,0c-.04-.56-.84-.92-1.16-.38-.13.22-.07.42.07.56.09.18.25.33.41.41.26.13.57-.06.66-.36.02-.05.02-.11.03-.16.02-.02.03-.05,0-.07Z"/>
          <path class="cls-17" d="M9.19,33.93c-.27-.32-.53-.72-.97-.58-.28.09-.38.38-.31.65,0,.06,0,.12.03.18.22.42.97.97,1.38.59.29-.27.06-.62-.13-.84Z"/>
          <path class="cls-13" d="M34.6,26.13c-.16.01-.32.15-.44.27-.12.13-.23.29-.25.49,0,.05.02.11.06.13.15.05.28,0,.41-.08.11-.08.31-.28.28-.45.03-.06.05-.12.06-.18.03-.11-.03-.17-.13-.17Z"/>
          <path class="cls-15" d="M38.05,20.24c-.21-.39-.66-.33-.93-.06-.23.24-.36.52-.48.83-.23.4-.38.87-.41,1.15-.02.21,0,.48.06.72,0,.04,0,.08.02.12.08.45.53.75.88.48.29-.06.54-.26.74-.53.52-.71.53-1.95.11-2.71Z"/>
          <path class="cls-14" d="M37.16,17.66c-.04-.07-.11-.06-.17-.05-.1.03-.21.13-.2.26-.01.04-.02.08-.02.12,0,.06.05.09.1.08.07-.01.12-.07.15-.13,0,0,0-.02.01-.03.01,0,.02-.01.04-.02.06-.05.14-.15.09-.24Z"/>
          <path class="cls-18" d="M29.54,8.17c-.17-.21-.48-.25-.67-.05-.03,0-.08.05-.07.08,0,0,0,0,0,.01-.05.1-.05.21.05.28.04.03.07.04.11.06.09.11.21.18.35.18.26,0,.4-.34.23-.56Z"/>
          <path class="cls-10" d="M21.78,1.24c-2.56-.68-5.2.65-7.43,2-.05.03-.06.13.01.1,1.17-.43,2.28-1.05,3.45-1.48,1.31-.48,2.56-.67,3.92-.53.04,0,.1-.08.04-.09Z"/>
        </g>
      </g>
    </g>
  </g>
</svg>