<?xml version="1.0" encoding="UTF-8"?>
<svg xmlns="http://www.w3.org/2000/svg" xmlns:xlink="http://www.w3.org/1999/xlink" viewBox="0 0 48 40">
  <defs>
    <style>
      .cls-1 {
        fill: #576065;
        mix-blend-mode: multiply;
        opacity: .2;
      }

      .cls-2 {
        fill: url(#radial-gradient-3);
      }

      .cls-3 {
        fill: url(#radial-gradient-2);
      }

      .cls-4, .cls-5 {
        fill: #b3e4fa;
      }

      .cls-6 {
        fill: #22292c;
      }

      .cls-7 {
        fill: #668392;
      }

      .cls-7, .cls-8, .cls-5, .cls-9 {
        mix-blend-mode: screen;
      }

      .cls-7, .cls-5 {
        opacity: .6;
      }

      .cls-10 {
        fill: url(#radial-gradient);
      }

      .cls-8 {
        opacity: .5;
      }

      .cls-8, .cls-9 {
        fill: #8f9194;
      }

      .cls-11 {
        isolation: isolate;
      }

      .cls-12 {
        fill: #323a3d;
      }
    </style>
    <radialGradient id="radial-gradient" cx="46.04" cy="-23.16" fx="46.04" fy="-23.16" r="64.34" gradientTransform="translate(-27.52) scale(.91 1)" gradientUnits="userSpaceOnUse">
      <stop offset="0" stop-color="#e3f3fc"/>
      <stop offset=".22" stop-color="#aeb7bd"/>
      <stop offset=".61" stop-color="#8ca4af"/>
      <stop offset="1" stop-color="#393b3d"/>
    </radialGradient>
    <radialGradient id="radial-gradient-2" cx="72.05" cy="29.73" fx="72.05" fy="29.73" r="33.47" xlink:href="#radial-gradient"/>
    <radialGradient id="radial-gradient-3" cx="44.72" cy="35.95" fx="44.72" fy="35.95" r="11.43" xlink:href="#radial-gradient"/>
  </defs>
  <g class="cls-11">
    <g id="Layer_2">
      <g id="Layer_1-2" data-name="Layer_1">
        <g>
          <path class="cls-10" d="M2.21,21.59c-.29.27-.57.55-.84.85-.49.67-.93,1.4-1.16,2.21-.37,1.31-.21,2.61.26,3.87.49,1.3,1.04,2.51,1.2,3.93.17,1.44.13,3.06.86,4.33,1.17,2.02,3.31,2.62,5.37,2.56,1.94-.06,3.75-.66,5.65-1.02,2.05-.39,4.13-.56,6.21-.42,2.23.15,4.44.52,6.63.97,2.29.47,4.59,1.09,6.93,1.13,2.43.05,4.81-.54,6.76-2.19,1.84-1.55,3.38-3.48,4.97-5.32.61-.71,1.3-1.39,1.82-2.19.2-.45.38-.91.55-1.35.19-.5.34-.99.45-1.49.05-.34.08-.68.09-1.02.05-1.39-.03-2.77.03-4.15-.11-.8-.27-1.6-.45-2.4-.41-1.8-.93-3.58-1.33-5.32-.95-4.17-1.52-6.22-5.39-7.83-2-.83-3.91-1.94-5.7-3.22-1.56-1.13-3-2.61-4.84-3.16-1.77-.54-3.85-.3-5.66-.13-1.95.19-3.9.61-5.8,1.18-1.71.51-3.35,1.23-4.9,2.18-1.63,1-2.95,2.42-4.25,3.88-1.78,1.99-1.85,4.67-2.47,7.21-.74,3.03-2.87,4.96-5,6.93Z"/>
          <path class="cls-1" d="M48,22.27c-.11-.8-.27-1.6-.45-2.4-.41-1.8-.93-3.58-1.33-5.32-.95-4.17-1.52-6.22-5.39-7.83-2-.83-3.91-1.94-5.7-3.22-1.56-1.13-3-2.61-4.84-3.16-1.77-.54-3.85-.3-5.66-.13-1.95.19-3.9.61-5.8,1.18-1.71.51-3.35,1.23-4.9,2.18-1.63,1-2.95,2.42-4.25,3.88-1.78,1.99-1.85,4.67-2.47,7.21-.74,3.03-2.87,4.96-5,6.93-.29.27-.57.55-.84.85-.49.67-.93,1.4-1.16,2.21-.37,1.31-.21,2.61.26,3.87.49,1.3,1.04,2.51,1.2,3.93.17,1.44.13,3.06.86,4.33,1.17,2.02,3.31,2.62,5.37,2.56,1.94-.06,3.75-.66,5.65-1.02,2.05-.39,4.13-.56,6.21-.42,2.23.15,4.44.52,6.63.97,2.29.47,4.59,1.09,6.93,1.13,2.43.05,4.81-.54,6.76-2.19,1.84-1.55,3.38-3.48,4.97-5.32.61-.71,1.3-1.39,1.82-2.19.2-.45.38-.91.55-1.35.19-.5.34-.99.45-1.49.05-.34.08-.68.09-1.02.05-1.39-.03-2.77.03-4.15ZM45.13,18.61c-.34.05-1.36-.27-1.45.35-.06.37-.06.73-.05,1.1.03.96-.13,1.97-.24,2.92-.02.18-.2.23-.3.09-.37-.53-.62-1.12-.94-1.69.08.57.3,1.12.34,1.71,0,.09-.08.19-.16.18-1.03-.1-2.06-.67-3.1-.55-.79.09-.22,2.17-.23,2.7,0,1.86-1.87,2.66-2.53,4.23-.07.16-.31.08-.3-.09.04-1.62.66-3.07,1.41-4.43-1,.4-1.66,1.48-2.38,2.3-.09.1-.22.04-.27-.08-.21-.56-.25-1.15-.28-1.74-.3.62-.54,1.27-.93,1.84-.08.11-.2.12-.28,0-.24-.36-.36-.76-.48-1.18-.29.33-.56.71-.86,1-.31.3-.09.63-.06.99.03.56-.46.89-.85,1.17-.58.42-.98.62-1.66.32-.32-.14-.59-.39-.79-.69,0,.08,0,.16,0,.23,0,.11-.1.21-.2.17-.12-.05-.24-.08-.37-.11.1.7.29,1.37.32,2.08,0,.09-.08.18-.16.18-.66-.03-1.3-.22-1.95-.35.8.49,1.83,1.16,1.54,2.03-.12.37-.41.64-.57.98-.14.29-.24.67-.44.93-.36.46-.95.51-1.47.44-1.79-.22-3.66-.86-5.37-1.45-1.02-.35-2.04-.72-3.08-.99-.36-.09-.93-.15-1.1-.59-.28-.71-.11-1.27.01-2,.07-.43.2-1.06-.37-1.23-.14-.04-.3-.08-.43-.15-.22-.12-.42-.25-.6-.43-.68-.71.77-1.42.85-2.02.11-.9-1.18-1.42-1.27-2.31-.02-.21-.03-.38,0-.59.04-.3.2-.61,0-.59-.29.02-.57.04-.86.05-.29.01-.99.16-1.23-.11-.29-.31-.18-.73-.24-1.09-.25-.04-.5-.03-.78.04-1.61.41-2.78,1.28-3.66,2.82-.41.72-.74.97-1.45,1.02.21.88.14,1.83.53,2.65.03.07.03.16-.03.21-.22.23-.48.43-.69.69-.15.19-.2.35-.18.48.3.34,1.04.46,1.4.61.09.04.16.08.24.13.21.05.4.12.6.23.18-.01.35-.08.54-.13.09-.02.21.05.2.17-.02.14-.03.29-.02.43.44-.06.88-.08,1.32-.2.13-.04.22.09.2.22-.15,1.04-.6,2.05-1.26,2.81-.61.71-1.06,1.7-1.81,2.23-.08.06-.22,0-.24-.11-.22-1.49-.45-3.1-1.28-4.35-.43-.64-1.55-2.05-2.3-1.07-.31.41-.49.9-.72,1.36-.05.11-.23.12-.28,0-.26-.58-.35-1.21-.43-1.85-.11-.95-.31-1.86-.5-2.79-.25-1.28-.44-2.68.34-3.79.2-.28.42-.54.66-.8.37-.45.82-.84,1.26-1.19.14-.12.28-.24.42-.36.26-.23.62-.58.99-.8.79-.74,1.47-1.64,2.01-2.62.45-1.1.81-2.24,1.08-3.44.42-1.83.68-4.06,1.68-5.66.63-1.21,1.64-2.19,2.65-2.99,1.66-1.31,3.47-2.38,5.44-3.01,1.97-.62,4.14-1.48,6.21-1.29.19.02.21.27.04.35-1.07.48-2.22.82-3.24,1.45-1.18.72-2.07,1.75-2.8,2.99-.32.55-.58,1.12-.86,1.69-.08.17-.26.61-.46.67-.4.12-.61.17-.86.59-.09.15-.17.32-.27.46-.39.54-1.38,1.69-.23,2.13.47.18,1.1.42,1.11,1.09,0,.47-.12.91-.2,1.37-.1.52-.05.97,0,1.49.05.73.07,1.45-.54,1.91-.67.5-1.64.68-2.18,1.36.65.29,1.33.46,2,.68.89.17,1.79.25,2.68.44.08.02.14.13.11.22-.18.57.87.52,1.06,1.01.15.37,0,.75-.1,1.13.9-.22,1.97-.5,2.1.88.04.46,0,.92.02,1.38,0,.12,0,1.03.35.59.1-.12.19-.26.25-.41.2-.49.3-1.04.69-1.39.37-.33.96-.17,1.38-.1.32.06.8-.04,1.06.23.89.93.25,2.81.34,4.06.97-.94,1.3-2.41,1.98-3.58,0-.01.01-.02.02-.03.29-.8.73-1.24,1.4-1.69.85-.57,1.8-1.6,2.79-1.83.9-.21,1.69.22,2.44.73-.01-.46-.13-.92-.16-1.38,0-.11.11-.2.2-.17.52.17,2.75,1,2.89.03.08-.51.17-1.45-.23-1.84-.29-.29-.66-.43-.95-.7-1-.97.48-3.12.78-4.16.02-.07.08-.13.16-.13.71.04,1.29-.1,1.69-.78.27-.46.52-.94.82-1.38.14-.21.34-.4.46-.63.2-.38-.55-.47-.73-.53-.43-.13-.88-.27-1.28-.49-1.76-1,.89-2.06,1.82-2,.3.02.6.23.82.43.45.4.87.78,1.37,1.11.8.52,1.69,1.01,2.27,1.83.61.85.42,2.12.51,3.12.14,1.53.75,2.96.85,4.5,0,.11-.08.17-.16.18Z"/>
          <g>
            <path class="cls-3" d="M37.64,10.95c-.56-.51-1.24-.83-1.9-1.17-.37-.19-.76-.36-1.13-.54-.33-.15-.47-1.32-.61-1.66-.12-.28-.44-.52-.64-.73-.57-.59.13-1.77.46-2.27.23-.34.54-.69.58-1.13.01-.1-.1-.11-.16-.09-.77.32-2.12,1.91-2.91,1.43-.57-.35-1.06-.59-1.69-.78-.6-.18-1.21-.26-1.37-1.01-.11-.54-.59-.2-.73.12-.02.04-.19.43-.23.53,0,0-.01,0-.02,0-.11-.24-.15-.52-.21-.78-.08-.35.02-.84-.33-1.03-.05-.03-.11,0-.15.03-.25.17-.34.45-.44.74-.09.26-.14.54-.21.81-.03.11-.1.2-.21.27-.68.06-1.36.17-2.02.31h0c-.52-.02-.89-.16-1.34.18-.32.23-.55-.39-.89-.47-.06-.01-.14.05-.18.1-.22.3-.32.68-.4,1.07-.09.04-.18.09-.27.13-.11-.1-.21-.2-.31-.3-.16-.22-.58-.56-.58-.57,0,0-.01-.01-.02-.02-.1-.09-.27.08-.24.2.08.39.2.79.32,1.18-1,.69-1.82,1.63-2.36,2.89-.28.66-.47,1.36-.58,2.08-.82,0-1.89-.01-2.16.17-.08.06,1.36,1,1.96,1.56.03.03.06.06.08.09,0,.49.05.98.12,1.47-.1.43-.22.86-.15,1.21.07.35.62.51.14.94-.14.13-.33.31-.38.51-.13.46.25.73.6.88-.74.61-1.81.96-2.3,1.8-.36.63,3.41.8,4.11.69.72-.1.41.3.48.68.03.19.42.14.52.14.23,0-.17.82-.19.99,0,.04.02.09.06.11.33.17.71-.03,1.03-.13.53-.17.54.08.66.63.08.34.09.69.2,1.03.04.11.16.07.23.03.51-.31.9-.74,1.27-1.2.94.24,1.91.24,2.87.1.04.33.05.66.06.76.06.53.1,1.06.17,1.58.03.21.32-.03.35-.11.28-.58.41-1.24.57-1.87.07-.29.22-.51.42-.7.44-.12.88-.27,1.3-.42.39-.14.76-.31,1.13-.51.06-.02.12-.03.18-.05.46-.14,1.02-.36,1.34-.78.13-.17.22-.32.3-.5.09-.09.18-.18.27-.27.31.06.86.6,1.02.72.13.1.36-.17.32-.31-.13-.46-.3-.92-.41-1.4.94.39,1.83.92,2.74,1.37.12.06.39-.15.32-.31-.26-.56-.85-1.11-1.31-1.47-.33-.26-.65-.51-.92-.84-.03-.03-.04-.08-.05-.13.03-.06.07-.12.1-.19.11-.22.19-.43.27-.65.17-.37.32-.75.43-1.14.25-.47.75-1.03.66-1.57,0-.05-.21-.23-.35-.36,0-.07,0-.15,0-.22.41-.13.92-.09,1.33-.13.1-.01.34-.23.22-.35-.4-.41-.93-.77-1.45-1.06.77-.06,1.51.02,2.3.04.1,0,.39-.21.25-.34Z"/>
            <path class="cls-5" d="M33.33,3.97c-.29.22-.58.44-.89.62-.15.09-.31.17-.48.22-.17.06-.34.06-.51,0l-.12-.05-.12-.07-.23-.14c-.16-.09-.32-.17-.48-.25-.17-.07-.33-.15-.5-.21-.17-.06-.34-.12-.51-.17-.17-.05-.34-.1-.5-.16-.16-.07-.32-.15-.44-.28-.12-.13-.2-.29-.24-.47-.02-.05-.02-.09-.04-.14-.02-.05-.05-.1-.09-.14-.08-.08-.21-.08-.3-.05-.18.08-.32.23-.41.42l-.18.41s-.03-.08-.04-.13c-.02-.08-.04-.17-.06-.25l-.05-.26c-.01-.08-.03-.17-.03-.25,0-.08-.01-.17-.02-.26,0-.05-.01-.09-.02-.14,0-.05-.02-.09-.04-.14-.02-.05-.03-.09-.06-.13-.03-.04-.05-.08-.09-.11l-.06-.04-.03-.02h0s0,0,0,0c0,0,.01,0-.01,0h0s0,0,0,0h-.01s-.07-.01-.09,0c-.03,0-.05.02-.07.03-.05.03-.07.05-.1.08-.03.03-.07.07-.09.11-.06.07-.1.15-.14.23-.04.08-.07.17-.1.25-.01.04-.03.08-.04.13l-.04.13c-.05.17-.1.34-.13.51l-.03.13v.03s-.01.01-.02.02c0,.02-.01.05-.02.06-.02.04-.08.09-.13.13l-1,.12-1,.18h-.22s-.23-.03-.23-.03c-.08,0-.16,0-.24,0-.08,0-.16,0-.24.03-.08.01-.16.05-.24.08-.07.03-.15.09-.21.12l-.05.03s-.02,0-.03,0c-.02,0-.05,0-.07-.01-.05-.02-.11-.07-.16-.12-.11-.1-.22-.24-.37-.33-.08-.04-.17-.1-.31-.01-.04.03-.08.07-.11.12l-.06.11-.06.11s-.03.08-.05.12c-.03.08-.07.17-.09.25-.05.15-.08.3-.12.45l-.18.09-.27-.26h0s-.14-.15-.14-.15c-.05-.05-.1-.1-.15-.15s-.1-.1-.15-.14l-.08-.07s-.03-.03-.05-.04l-.06-.04.03.02-.02-.02h-.02s0-.01,0-.01h0s0,0,0,0h-.01s-.01-.01-.02-.02c-.02,0-.03,0-.05,0-.04,0-.06,0-.09.01-.03,0-.04.02-.06.04-.04.03-.07.06-.09.11-.02.04-.04.1-.04.16,0,.04,0,.05.01.07v.05s.04.1.04.1l.05.2c.03.13.07.27.11.4l.1.32-.23.17c-.1.07-.19.15-.28.23-.09.08-.19.16-.27.25-.09.09-.18.17-.26.26l-.25.28-.23.29c-.08.1-.15.2-.21.31-.07.1-.14.21-.2.32l-.18.33-.16.34c-.06.11-.1.24-.14.35-.04.12-.09.23-.13.36l-.11.37c-.04.12-.06.25-.09.37-.03.12-.06.25-.08.38l-.05.29c-.37,0-.74,0-1.11.01-.2,0-.4.02-.6.05-.05,0-.1.02-.15.03-.05.02-.1.01-.16.04l-.08.04h-.02s0,.01,0,.01h0s0,0,0,0c-.02.02.03-.04-.04.04h0s0,0,0,0c0,0,0,0,0,.02,0,.03,0,.06.01.09.01.02.01.02.02.03.05.05.08.08.13.12.33.26.66.49.98.73.16.12.32.24.48.37.08.06.16.13.23.19l.11.1s.05.05.08.08l.04.7.08.72c-.07.34-.18.68-.16,1.06,0,.05,0,.1.01.14v.04s.01.03.01.04c0,.02.01.04.02.07.05.11.1.17.16.24.05.07.1.13.13.19.02.06.02.11-.02.17-.03.06-.09.11-.15.17-.06.06-.12.12-.18.19-.03.03-.06.07-.08.11-.03.04-.05.08-.07.12-.02.05-.05.08-.05.15l-.02.13c0,.05,0,.11.01.17,0,.05.03.1.05.15.04.09.1.17.17.23.03.03.07.06.1.09.04.03.07.05.11.07.03.02.06.04.1.05-.07.05-.14.11-.22.16-.12.08-.23.15-.35.23-.23.15-.48.29-.71.45-.12.08-.23.16-.34.26-.12.08-.21.2-.32.3-.05.05-.09.11-.14.17-.05.07-.08.11-.13.2l-.02.05s0,.07,0,.1c.01.06.04.1.07.13.06.06.13.1.19.13.26.12.53.17.8.21.27.04.54.08.81.1.54.05,1.09.08,1.63.08.27,0,.55,0,.82-.05.12,0,.28,0,.31.11.03.12-.01.28,0,.43,0,.04,0,.07.01.12v.03s.02.02.03.03c.02.02.03.03.05.04.07.04.14.05.21.05.07,0,.14,0,.21,0h.05s.04,0,.03,0c0,0,.01.04.01.07-.03.28-.17.55-.25.84,0,.01,0,.01,0,.03v.03s.01.05.03.07c.01.02.03.03.05.04l.05.02c.06.03.14.04.21.04.14,0,.28-.03.41-.07l.39-.14c.13-.04.27-.08.39-.02.12.07.15.23.19.37.03.14.07.29.09.43.06.29.09.59.18.87-.09-.28-.12-.58-.17-.87-.02-.15-.06-.29-.09-.44-.04-.14-.07-.31-.2-.39-.13-.07-.28-.02-.41.01l-.39.13c-.13.04-.26.07-.39.06-.06-.01-.13-.01-.19-.05-.07-.02-.11-.05-.09-.12.08-.28.22-.54.26-.85,0-.02,0-.04,0-.06,0-.02,0-.05-.04-.07-.03-.02-.03-.01-.06-.02h-.05c-.07,0-.13,0-.2,0-.06,0-.13-.01-.18-.05-.05-.03-.05-.09-.05-.16,0-.14.04-.28,0-.46-.02-.09-.11-.15-.18-.16-.07-.02-.15-.02-.22-.01-.27.04-.54.04-.81.04-.54,0-1.08-.04-1.62-.09-.27-.03-.54-.06-.8-.11-.26-.05-.53-.1-.77-.21-.06-.03-.11-.06-.15-.1-.02-.02-.03-.04-.03-.05,0,0,0,0,0-.01l.02-.05s.08-.11.12-.16c.04-.06.08-.12.13-.16.1-.1.19-.2.3-.28.11-.09.22-.17.33-.24.23-.16.47-.29.71-.44.12-.07.24-.15.35-.23.12-.08.23-.17.34-.25.01,0,.02-.02.03-.04.02-.04,0-.09-.04-.11h0c-.07-.04-.14-.07-.21-.11-.03-.02-.07-.04-.1-.07-.03-.02-.06-.05-.09-.07-.06-.05-.1-.11-.13-.18-.01-.03-.03-.07-.03-.1,0-.03,0-.06-.01-.1l.02-.13s.03-.06.04-.09c.01-.03.03-.07.06-.1.02-.03.04-.07.07-.09.05-.06.11-.12.17-.17.06-.06.13-.12.18-.21.06-.08.08-.23.03-.34-.04-.11-.1-.17-.16-.24-.05-.06-.1-.13-.13-.19,0,0-.01-.03-.02-.05,0,0,0-.03,0-.02v-.03s-.02-.08-.01-.12c-.01-.33.09-.67.17-1.02,0-.01,0-.02,0-.04h0s-.08-.73-.08-.73l-.04-.73h0s-.01-.05-.03-.07c-.04-.04-.06-.08-.11-.12l-.12-.1c-.08-.07-.16-.13-.24-.2-.16-.13-.32-.25-.49-.37-.32-.25-.66-.48-.97-.73,0,0-.01-.01-.02-.02.03,0,.07-.02.1-.02.05,0,.09-.02.14-.03.19-.03.38-.04.58-.05.39-.02.78-.01,1.18-.01.05,0,.09-.03.1-.09h0s.07-.37.07-.37c.02-.12.05-.25.08-.37.03-.12.06-.24.09-.36l.11-.35c.03-.12.09-.24.13-.35.05-.12.08-.23.14-.34l.16-.33.18-.32c.06-.11.13-.21.19-.31.07-.1.13-.21.21-.3l.22-.29.24-.27c.08-.09.17-.17.25-.25.08-.09.17-.16.26-.24.09-.07.18-.16.28-.23l.28-.21h0s.05-.08.04-.12l-.12-.39c-.04-.13-.08-.26-.11-.4l-.05-.2-.02-.1v-.05s-.02-.04-.02-.03c0,0,0-.02.01-.04,0-.02.02-.03.04-.04.01-.01.04-.02.03-.02,0,0,0,0,0,0,0,0,.01,0,.02,0h.01s0,0,0,0h.01s.03.03.03.03c0,0,.01.02.02.02l.03.02.07.07c.05.04.1.09.15.13.05.05.1.09.14.14l.13.15h0s.32.31.32.31c.02.02.06.03.09.01h0s.27-.14.27-.14h0s.04-.04.05-.07c.04-.16.07-.32.12-.48.02-.08.05-.15.08-.22.01-.04.03-.07.04-.11l.06-.11.06-.11s.03-.04.06-.06c.01,0,0,0,.01-.01,0,0,.02,0,.03,0h.01s.06.02.08.03c.12.07.22.19.34.31.06.06.13.12.22.16.05.02.1.03.15.02.03,0,.06-.02.08-.03l.05-.03c.08-.05.13-.09.2-.12.07-.03.13-.06.2-.07.07-.02.14-.02.21-.03.07,0,.15,0,.22,0l.23.02h.24s0,.01.01.01h0s1-.19,1-.19l1.01-.13h0s.02,0,.03-.01c.07-.06.14-.11.2-.22.01-.02.02-.04.03-.06,0-.01,0-.01.01-.04v-.03s.04-.13.04-.13c.04-.17.08-.34.13-.51l.03-.13.04-.12c.03-.08.06-.16.09-.24.03-.08.07-.14.12-.21.02-.03.05-.06.07-.08.03-.02.07-.06.09-.07.01,0,.02-.01.04-.02,0,0,0,0,0,0,0,0,0,0,.02,0h.01s0,0,0,0l.02.02.04.03s.05.05.07.08c.02.03.04.06.05.1.02.03.02.07.03.11.01.04.02.08.02.12.01.08.02.17.02.26,0,.1.02.18.04.27l.06.26c.02.09.04.17.06.26.02.09.06.17.09.26,0,.02.02.03.04.04h0s.02,0,.02,0c.02,0,.05-.01.06-.04l.22-.52c.07-.15.2-.3.34-.36.07-.03.15-.02.2.02.03.02.05.06.06.09.02.03.03.09.04.13.04.19.13.38.27.52.14.14.31.23.47.3.17.06.34.11.51.15.17.04.34.11.51.16.17.05.33.13.49.2.16.08.32.16.48.24l.23.13.12.07.13.05c.18.05.36.04.53-.02.17-.06.33-.14.49-.23.31-.19.6-.42.88-.64.29-.22.57-.46.89-.61-.33.15-.61.38-.9.6ZM19.7,4.23h0s0,0,0,0Z"/>
            <path class="cls-9" d="M33.54,15.81c-1.07-.65-2.33-1.1-3.72-1.55-.86-.27-1.66-.65-2.46-1.03.04-.1.07-.2.09-.31,1.67.03,3.35-.1,5.01-.13.05,0,.14-.13.06-.13-1.68-.03-3.36-.07-5.04-.08,0-.04,0-.07-.01-.11.43-.14.87-.25,1.17-.39.89-.4,1.78-.81,2.65-1.25.05-.02.08-.13,0-.1-1.2.56-2.44,1.13-3.69,1.53-.05.02-.11.03-.16.05-.02-.07-.04-.13-.07-.19,1.74-1.46,3.55-2.89,5.04-4.61.06-.07-.02-.12-.08-.06-.98,1-2.17,1.85-3.21,2.77-.56.49-1.18.92-1.77,1.38.07-.11.15-.22.22-.31.9-1.2,1.82-2.39,2.67-3.63.05-.08-.03-.09-.08-.04-.99,1.16-2.01,2.3-3,3.46-.04.05-.08.09-.12.14.17-.38.34-.77.52-1.15.5-1.07,1.16-2.04,1.65-3.12.04-.08-.07-.06-.09,0-.51.96-1.14,1.86-1.7,2.79-.08.13-.16.27-.23.4.17-.6.34-1.21.51-1.81.41-1.4.95-2.75,1.32-4.17.03-.1-.1-.03-.12.02-.79,2.26-1.78,4.43-2.45,6.74,0-.38-.02-.77,0-1.14.02-1.24.09-2.48.08-3.72,0-.07-.1,0-.11.05-.08,1.27-.21,2.54-.29,3.81-.03.49-.05.98-.07,1.46-.05,0-.11,0-.16,0-.09-.34-.19-.68-.26-.99-.31-1.33-.53-2.67-.91-3.98-.02-.06-.12.02-.1.07.27,1.23.42,2.48.6,3.74.04.25.08.51.13.76-.74-1.54-1.48-3.07-2.32-4.56-.03-.06-.16.05-.13.1.8,1.62,1.45,3.35,2.22,5-.46-.41-.93-.8-1.36-1.23-.92-.9-1.77-1.88-2.67-2.8-.04-.04-.12.05-.09.09.83.99,1.64,2.01,2.52,2.95.1.1.78.74,1.41,1.3-.02.02-.04.05-.07.08-1.44-1.13-3.06-2.05-4.51-3.1-.04-.03-.12.07-.09.1,1.34,1.13,2.73,2.2,4.12,3.27-.23-.09-.44-.17-.61-.26-.89-.49-1.91-.82-2.71-1.49-.05-.04-.15.06-.1.1.59.55,1.34.95,2.02,1.34.45.26,1.01.47,1.52.72-.03.09-.05.18-.06.28-1.65-.33-3.31-.62-4.94-1.04-.04,0-.1.08-.06.09,1.57.5,3.21.98,4.84,1.29-.73.1-1.48.32-2.17.44-1.39.24-2.77.52-4.16.78-.04,0-.08.1-.02.09,2.17-.3,4.33-.67,6.5-.97-.38.17-.76.33-1.14.5-.73.32-1.46.67-2.18,1.04-.47.24-1.14.8-1.68.8-.04,0-.11.09-.05.1.31.04.55-.12.85-.23.77-.31,1.54-.62,2.32-.91.72-.27,1.42-.55,2.13-.84.04.05.08.1.12.13-2.02,1.49-3.93,3.17-6.04,4.51-.05.03-.04.1.02.07,2.21-1.27,4.2-2.93,6.3-4.39-.22.24-.45.48-.66.73-.61.7-1.13,1.63-1.81,2.23-.05.04-.02.13.04.08.67-.52,1.19-1.32,1.77-1.95.18-.2.38-.39.58-.58-.04.09-.07.15-.09.19-.34.73-.66,1.47-1.01,2.19-.58,1.2-.96,2.5-1.56,3.68-.05.09.07.06.1.01.62-1.04,1.06-2.22,1.62-3.29.43-.81.92-1.64,1.36-2.48-.52,2.16-.87,4.41-1.21,6.58-.01.08.09.03.1-.02.52-2.42,1.09-4.83,1.66-7.24.02,0,.04,0,.06-.02.34,2.39.71,4.77.88,7.17,0,.07.1,0,.1-.04-.04-1.66-.2-3.3-.37-4.94-.07-.66-.14-1.32-.23-1.98-.01-.1-.03-.21-.04-.32.09.16.18.32.28.47.42.68.83,1.37,1.25,2.05.03.04.11-.04.09-.08-.31-.66-.65-1.31-.97-1.97-.11-.22-.24-.44-.37-.66.01,0,.03-.02.04-.03.26.32.54.62.79.95.61.8,1.25,1.72,1.99,2.37.04.03.12-.05.08-.08-.63-.65-1.12-1.51-1.65-2.25-.26-.36-.52-.72-.77-1.08.84.76,1.8,1.42,2.68,2.04.04.03.12-.06.09-.1-.73-.67-1.47-1.34-2.21-2,1.91.71,3.93,1.08,5.78,2,.06.03.17-.09.1-.14Z"/>
          </g>
          <g>
            <path class="cls-2" d="M14.93,26.49c-.21-.2-.47-.32-.72-.45-.14-.07-.29-.14-.43-.2-.12-.06-.18-.5-.23-.63-.05-.11-.17-.2-.25-.28-.22-.22.05-.67.18-.87.09-.13.21-.26.22-.43,0-.04-.04-.04-.06-.03-.29.12-.81.73-1.11.54-.22-.13-.4-.23-.64-.3-.23-.07-.46-.1-.52-.39-.04-.21-.23-.08-.28.04,0,.02-.07.16-.09.2,0,0,0,0,0,0-.04-.09-.06-.2-.08-.3-.03-.13,0-.32-.13-.39-.02,0-.04,0-.06.01-.09.07-.13.17-.17.28-.03.1-.05.21-.08.31,0,.04-.04.07-.08.1-.26.02-.52.06-.77.12h0c-.2,0-.34-.06-.51.07-.12.09-.21-.15-.34-.18-.02,0-.05.02-.07.04-.08.11-.12.26-.15.41-.03.02-.07.03-.1.05-.04-.04-.08-.08-.12-.11-.06-.08-.22-.22-.22-.22,0,0,0,0,0,0-.04-.03-.1.03-.09.08.03.15.07.3.12.45-.38.26-.69.62-.9,1.1-.11.25-.18.52-.22.79-.31,0-.72,0-.82.07-.03.02.52.38.75.6.01.01.02.02.03.03,0,.19.02.37.05.56-.04.16-.08.33-.06.46.03.13.23.19.05.36-.05.05-.13.12-.15.19-.05.18.09.28.23.34-.28.23-.69.37-.88.69-.14.24,1.3.3,1.57.26.27-.04.16.11.18.26.01.07.16.05.2.05.09,0-.06.31-.07.38,0,.02,0,.03.02.04.12.07.27,0,.39-.05.2-.07.21.03.25.24.03.13.04.26.08.39.01.04.06.03.09.01.19-.12.34-.28.48-.46.36.09.73.09,1.1.04.02.12.02.25.02.29.02.2.04.4.06.6.01.08.12-.01.13-.04.11-.22.16-.47.22-.71.03-.11.09-.2.16-.27.17-.05.34-.1.5-.16.15-.05.29-.12.43-.2.02,0,.05-.01.07-.02.18-.05.39-.14.51-.3.05-.07.08-.12.12-.19.04-.03.07-.07.1-.1.12.02.33.23.39.28.05.04.14-.06.12-.12-.05-.18-.11-.35-.16-.53.36.15.7.35,1.05.52.05.02.15-.06.12-.12-.1-.22-.32-.42-.5-.56-.13-.1-.25-.19-.35-.32-.01-.01-.02-.03-.02-.05.01-.02.02-.05.04-.07.04-.08.07-.17.1-.25.07-.14.12-.29.16-.43.1-.18.29-.39.25-.6,0-.02-.08-.09-.13-.14,0-.03,0-.06,0-.08.16-.05.35-.03.51-.05.04,0,.13-.09.08-.13-.15-.16-.36-.29-.55-.4.29-.02.58,0,.88.01.04,0,.15-.08.1-.13Z"/>
            <g>
              <path class="cls-4" d="M9.05,23.86h0s0,0,0,0Z"/>
              <path class="cls-5" d="M13.61,23.61s-.06.03-.09.05c-.06.04-.12.08-.17.12-.11.08-.23.17-.35.25-.12.07-.25.14-.38.13-.06,0-.12-.05-.18-.08l-.18-.1c-.06-.04-.13-.05-.19-.08-.07-.03-.13-.05-.2-.08-.13-.04-.27-.07-.36-.16-.05-.04-.08-.1-.09-.17-.02-.05-.01-.07-.05-.12-.03-.05-.1-.06-.14-.04-.08.03-.14.09-.18.17l-.05.11s-.02-.05-.02-.08l-.02-.1s-.01-.07-.01-.09c0-.06,0-.14-.03-.21-.01-.04-.04-.08-.07-.1-.02-.01-.02-.03-.06-.04,0,0-.04,0-.05,0-.01,0-.02,0-.03.02-.04.03-.05.04-.08.07-.02.03-.05.07-.06.1-.01.03-.03.07-.04.1-.01.03-.02.07-.03.1l-.05.19s-.01.06-.03.09c0,0-.02.02-.04.03l-.75.11h-.08s-.09-.01-.09-.01c-.06,0-.13,0-.19,0-.03,0-.07.02-.1.03-.02,0-.03.02-.04.02h-.02s-.01.02-.01.02l-.04.02s0,0,0,0c0,0-.01,0-.02-.01l-.03-.03s-.08-.09-.15-.13c-.04-.01-.07-.05-.15,0-.02.02-.04.03-.05.05l-.02.04s-.03.05-.05.09c-.01.03-.03.07-.04.1-.02.05-.03.1-.04.16l-.03.02-.09-.08h0s-.11-.11-.11-.11c-.03-.04-.1-.09-.15-.12l.03.02h0s-.01-.02-.01-.02h0s0,0,0,0c0,0,0,0-.01,0,0,0-.02,0-.03,0-.04,0-.06.01-.08.03-.02.01-.03.03-.05.05-.01.02-.02.05-.02.09,0,.02,0,.03,0,.03v.02s.02.04.02.04l.02.08.07.25-.18.14c-.08.05-.14.13-.2.2l-.1.1s-.06.08-.09.12c-.05.08-.12.15-.16.24l-.14.26-.02.03s0,.03-.01.04l-.02.07-.05.14-.05.14s-.02.1-.03.15l-.05.23c-.13,0-.26,0-.4,0-.08,0-.15,0-.23.02-.04,0-.08.01-.12.03l-.04.02h0s0,0,0,0h0s0,0,0,0c-.01.01.03-.03-.03.03h0s0,0,0,.02c0,.02,0,.05,0,.06,0,.01,0,.01.01.02.02.03.04.04.05.05.13.1.25.19.38.28l.18.14.09.07.04.04s.01.01.02.02l.04.52c-.01.06-.03.12-.04.19,0,.03-.01.07-.02.11,0,.04,0,.07,0,.11v.06s0,.01,0,.01c0,.03,0,.01,0,.02v.02s.06.08.07.1c.02.03.04.05.04.06,0,0,0,0,0,.01,0,0,0,.01,0,.02-.01.02-.03.03-.05.06-.02.02-.05.05-.07.07-.02.03-.05.06-.06.1,0,.02-.02.03-.02.07v.05c0,.05,0,.1.02.14.02.04.04.07.07.1.02.02.05.04.08.06-.05.04-.11.08-.17.12-.09.06-.18.11-.27.17-.09.06-.18.13-.25.22-.04.04-.07.09-.1.14-.01.02,0,.02-.01.03,0,0,0,.03,0,.05,0,.03.02.05.03.06.03.03.05.04.08.05.11.05.21.06.31.08.1.02.21.03.31.04.21.02.42.03.62.03.1,0,.21,0,.31-.02.06,0,.09,0,.1.03.01.03,0,.1,0,.16,0,.2.27.08.23.14-.01.1-.06.21-.09.32h0s0,.02,0,.03c0,0,0,.01,0,.02,0,0,.02.02.03.02h.02s.05.02.08.02c.05,0,.11-.01.16-.03l.15-.05s.1-.03.14-.01c.04.02.06.08.07.14.01.05.03.11.04.16.02.11.04.22.07.33-.02-.11-.05-.22-.06-.33,0-.06-.02-.11-.03-.17-.01-.05-.02-.12-.08-.15-.11-.04-.21.03-.31.05-.05.01-.1.02-.15.02-.02,0-.05,0-.07-.02h-.02s0-.01,0-.01c0,0,0,0,0-.01,0,0,0-.01,0,0h0c.03-.11.09-.21.1-.33,0-.02,0-.04-.02-.06-.02,0,0,0-.03,0h-.02s-.05,0-.07,0c-.02,0-.05,0-.06-.02,0,0-.01,0-.01-.02,0,0,0-.02,0-.03,0-.05.02-.1,0-.18-.03-.08-.13-.08-.17-.08-.11,0-.2.01-.31,0-.21,0-.41-.02-.62-.04-.1-.01-.2-.02-.3-.04-.1-.02-.2-.04-.29-.08-.02,0-.04-.02-.05-.03,0,0,0,0,0,0,0,0,0,0,0,0,.03-.04.06-.09.09-.12.07-.07.15-.14.24-.19.17-.12.36-.21.54-.35,0,0,.02-.02.02-.03.01-.03,0-.07-.03-.08h0c-.05-.02-.1-.05-.14-.09-.02-.02-.03-.04-.04-.06-.01-.02-.01-.04-.01-.05v-.05s.02-.02.02-.03c0-.02.03-.04.04-.06.02-.02.04-.04.06-.06.02-.02.05-.05.07-.09.01-.02.02-.05.03-.07,0-.03,0-.06-.01-.08-.02-.05-.04-.08-.06-.1-.02-.03-.03-.03-.04-.06v-.02s0,0,0,0h0s0-.05,0-.05c0-.03,0-.06,0-.09,0-.03,0-.06.01-.09.01-.06.03-.13.04-.19,0,0,0-.01,0-.02h0s-.04-.56-.04-.56h0s0-.04-.02-.05c-.02-.02-.02-.03-.04-.05l-.05-.04-.09-.08-.19-.14c-.1-.08-.21-.16-.31-.23,0,0,0,0,0,0,.07,0,.14-.01.22-.02.15,0,.3,0,.45,0,.03,0,.06-.02.07-.06h0s.06-.28.06-.28c.01-.05.02-.09.03-.14l.05-.14.05-.14.02-.07s0-.03.01-.03l.02-.03.13-.25c.04-.08.1-.15.15-.23.03-.04.05-.08.08-.11l.09-.1c.06-.06.12-.14.19-.19l.21-.17h0s.03-.06.03-.09l-.08-.3-.02-.08v-.04s-.01-.01-.01-.01h.01s.05.05.08.09l.1.1h0s.12.12.12.12c.02.02.05.02.07.01h0s.1-.05.1-.05h0s.03-.03.04-.05c.01-.06.03-.12.04-.18,0-.03.02-.05.03-.08,0-.02.02-.05.04-.08l.02-.04s0,0,.01-.01c0,0,.01,0,.02,0,.04.02.08.07.12.11l.04.03s.04.02.05.03c.03,0,.06,0,.09,0l.04-.02.03-.02h.02s.02-.03.03-.03c.02,0,.05-.02.07-.02.05-.01.1-.01.16,0h.09s.09.01.09.01h0s0,0,0,0l.76-.12h0s.01,0,.02,0c.03-.02.06-.04.09-.1.02-.03.02-.07.03-.1l.05-.19s.01-.06.03-.09c0-.03.02-.06.03-.09.01-.03.03-.04.04-.07.01-.02.05-.05.06-.06,0,0,0,0,0,0,0,0,.01.01.02.01.02.01.03.03.04.06.02.05.02.11.03.18,0,.04,0,.07.02.11l.02.1c.01.06.04.13.06.2,0,.01.02.03.03.03h0s.01,0,.01,0c.02,0,.03,0,.04-.03h0s.09-.21.09-.21c.02-.05.08-.11.12-.12.02,0,.04,0,.05,0,.01,0,.03.07.04.09.02.08.06.16.12.21.12.11.27.13.4.17.07.02.13.05.19.07.06.03.13.04.19.08l.19.1c.06.03.12.08.2.08.15.01.28-.07.39-.15.12-.08.23-.17.34-.26.06-.04.11-.09.17-.13.03-.02.06-.04.09-.05.02-.02.08-.02.08.02,0-.05-.06-.04-.08-.03ZM6.26,29.65s0,0,0,0c0,0,0,0,0,0ZM8.08,23.96h0s0,0,0,0ZM8.07,23.96h0s0,0,0,0c0,0,0,0,0,0ZM8.76,23.81s0,0,0,0c0,0,0,0,0,0,0,0,0,0,0,0ZM9.08,23.85h0s0,0,0,0ZM9.09,23.85h0,0ZM10.76,23.08s0,0,0,0c0,0-.01,0,0,0ZM10.76,23.08s0,0,0,0c0,0,0,0,0,0Z"/>
            </g>
            <path class="cls-8" d="M13.54,28.38c-.46-.28-1.01-.48-1.61-.67-.37-.12-.72-.28-1.07-.44.02-.04.03-.09.04-.13.72.01,1.45-.04,2.17-.06.02,0,.06-.05.03-.06-.73-.01-1.46-.03-2.18-.03,0-.02,0-.03,0-.05.19-.06.38-.11.51-.17.38-.17.77-.35,1.15-.54.02,0,.03-.06,0-.04-.52.24-1.06.49-1.6.66-.02,0-.05.01-.07.02,0-.03-.02-.06-.03-.08.75-.63,1.54-1.25,2.18-2,.03-.03-.01-.05-.03-.03-.42.43-.94.8-1.39,1.2-.24.21-.51.4-.77.6.03-.05.06-.09.1-.14.39-.52.79-1.03,1.15-1.57.02-.03-.01-.04-.03-.02-.43.5-.87,1-1.3,1.5-.02.02-.03.04-.05.06.07-.17.15-.33.22-.5.22-.46.5-.88.71-1.35.02-.04-.03-.03-.04,0-.22.42-.49.8-.73,1.21-.03.06-.07.12-.1.17.07-.26.15-.52.22-.78.18-.61.41-1.19.57-1.8.01-.04-.04-.01-.05,0-.34.98-.77,1.92-1.06,2.92,0-.17,0-.33,0-.5,0-.54.04-1.07.03-1.61,0-.03-.04,0-.05.02-.04.55-.09,1.1-.12,1.65-.01.21-.02.42-.03.63-.02,0-.05,0-.07,0-.04-.15-.08-.29-.11-.43-.13-.58-.23-1.16-.4-1.72,0-.03-.05,0-.04.03.12.53.18,1.08.26,1.62.02.11.04.22.06.33-.32-.67-.64-1.33-1-1.97-.01-.03-.07.02-.06.04.35.7.63,1.45.96,2.16-.2-.18-.4-.35-.59-.53-.4-.39-.77-.81-1.16-1.21-.02-.02-.05.02-.04.04.36.43.71.87,1.09,1.28.04.04.34.32.61.56-.01.01-.02.02-.03.03-.62-.49-1.32-.89-1.95-1.34-.02-.01-.05.03-.04.04.58.49,1.18.95,1.78,1.41-.1-.04-.19-.07-.26-.11-.39-.21-.83-.35-1.18-.64-.02-.02-.06.02-.04.04.25.24.58.41.88.58.2.11.44.2.66.31-.01.04-.02.08-.03.12-.71-.14-1.43-.27-2.14-.45-.02,0-.04.03-.02.04.68.22,1.39.42,2.1.56-.32.04-.64.14-.94.19-.6.1-1.2.22-1.8.34-.02,0-.04.04-.01.04.94-.13,1.87-.29,2.81-.42-.16.07-.33.14-.49.22-.32.14-.63.29-.94.45-.2.1-.49.35-.73.35-.02,0-.05.04-.02.04.14.02.24-.05.37-.1.33-.13.67-.27,1-.39.31-.11.62-.24.92-.37.02.02.03.04.05.06-.87.65-1.7,1.37-2.61,1.95-.02.01-.02.04,0,.03.95-.55,1.82-1.27,2.73-1.9-.1.1-.19.21-.29.32-.26.3-.49.71-.78.97-.02.02,0,.05.02.03.29-.22.51-.57.77-.84.08-.08.16-.17.25-.25-.02.04-.03.07-.04.08-.15.31-.29.64-.44.95-.25.52-.41,1.08-.67,1.59-.02.04.03.03.04,0,.27-.45.46-.96.7-1.43.18-.35.4-.71.59-1.07-.23.93-.38,1.91-.53,2.85,0,.04.04.01.04,0,.23-1.05.47-2.09.72-3.13,0,0,.02,0,.02,0,.15,1.03.31,2.06.38,3.11,0,.03.04,0,.04-.02-.02-.72-.09-1.43-.16-2.14-.03-.29-.06-.57-.1-.86,0-.05-.01-.09-.02-.14.04.07.08.14.12.2.18.29.36.59.54.89.01.02.05-.01.04-.03-.13-.29-.28-.57-.42-.85-.05-.1-.1-.19-.16-.29,0,0,.01,0,.02-.01.11.14.24.27.34.41.26.35.54.74.86,1.03.02.01.05-.02.04-.04-.27-.28-.48-.66-.72-.98-.11-.16-.22-.31-.33-.47.36.33.78.61,1.16.88.02.01.05-.03.04-.04-.32-.29-.64-.58-.96-.87.83.31,1.7.47,2.5.87.03.01.07-.04.04-.06Z"/>
          </g>
          <path class="cls-6" d="M36.72,26.3c.06-.08-.02-.13-.08-.07-.67.71-1.44,1.98-1.48,3.11-.25-.17-.55-.25-.86-.28.01-.02.02-.04.02-.05,0-.11,0-.22-.01-.33.08-.73.21-1.39.51-2.08.02-.04-.03-.03-.04-.01-.02.03-.04.07-.06.1-.02,0-.05.02-.06.04-.19.31-.36.65-.49,1.02,0,.04-.02.07-.02.1,0,0,0,.02,0,.02-.08.24-.14.5-.17.76-.01.03-.02.06-.03.08,0,0,0,.01-.01.02-.01.11-.02.21-.02.32-.03,0-.05,0-.08,0,0-.13-.01-.25-.02-.38-.02-.31.02-.63.06-.93,0-.06-.08-.01-.09.02-.14.33-.26.66-.29,1.02-.01.1-.03.2-.04.3-.15.02-.3.04-.44.07-.05-.17-.12-.34-.17-.51-.11-.32-.17-.65-.17-.99,0-.1-.14,0-.14.06-.02.46.06,1.04.25,1.49-.01,0-.03,0-.04,0-.94.21-1.83.8-2.51,1.57-.09-.09-.17-.18-.26-.28-.27-.32-.54-.64-.77-.98-.04-.06-.15.05-.11.11.22.36.48.69.73,1.02.08.11.16.21.25.32-.14.17-.27.36-.39.55-.09.15-.18.3-.26.46-.52-.27-1.09-.43-1.63-.59-.05-.02-.14.09-.08.11.57.18,1.11.38,1.63.65-.16.31-.29.63-.38.96-.05,0-.1-.01-.14-.02-.13-.03-.26-.06-.37-.13-.05-.03-.13.08-.08.11.15.1.37.17.56.19-.02.08-.04.17-.05.25-.52-.1-1.07.01-1.56.19-.06.02-.09.14,0,.11.48-.15,1.04-.24,1.54-.12-.04.39,0,.77.17,1.11-.51.12-1.01.47-1.39.82-.07.06,0,.13.06.07.44-.38.91-.58,1.43-.72.17.27.44.5.81.69,1.97.99,5-.93,5.68-3.03.31-.95.56-2.23-.15-3.01.11-.5.15-1.02.31-1.52.2-.66.56-1.25.97-1.77ZM35.49,31.43c-.11,2.34-2.65,4.21-4.66,3.98-.74-.08-1.4-.51-1.64-1.24.03-.03.06-.07.06-.09,0-.05.02-.09.02-.14.47.28,1.23-.18,1.64-.42,1.05-.6,1.92-1.56,2.51-2.68.11-.2.39-1.05.28-1.38,1.01.01,1.85.55,1.78,1.97Z"/>
          <path class="cls-6" d="M46.49,25.62c-.17.09-.37.05-.56.05,0,0,0,0,0,0,.13-.58.12-1.18-.12-1.63.07-.14.11-.29.2-.42.13-.19.29-.35.45-.5.09-.08.01-.17-.07-.09-.21.17-.4.36-.57.57-.04.06-.1.14-.15.23-.13-.15-.3-.28-.51-.36,0-.08.02-.15.04-.23.04-.15.13-.28.15-.43l.15-1.51c0-.08-.12-.01-.13.04-.09.58-.12,1.24-.35,1.77-.04.09-.08.19-.11.3-.02,0-.04-.01-.06-.01-.19-.03-.37-.03-.54,0-.01-.05-.03-.1-.04-.14-.1-.44-.24-.85-.26-1.31,0-.11-.17-.01-.17.07,0,.36.08.7.16,1.04.03.12.05.26.07.41-.51.21-.92.72-1.22,1.3-.04-.04-.09-.07-.13-.11-.07-.07-.14-.14-.2-.22-.02-.04-.1.03-.08.07.05.09.11.17.18.24.05.05.1.11.15.16-.09.18-.16.36-.23.55-.05.1-.09.2-.13.3-.15-.03-.36-.06-.44-.2-.03-.05-.14.04-.12.1.06.13.2.19.32.23.04.02.1.04.16.06-.06.17-.12.34-.17.51-.09,0-.19,0-.28.02-.27.03-.52.16-.79.18-.04,0-.12.12-.05.12.29,0,.56-.1.84-.1.08,0,.15.01.22.01-.08.36-.11.72-.05,1.07,0,.05.02.1.03.15-.14.06-.29.09-.43.1-.04,0-.1.11-.04.11.17,0,.35-.03.51-.1.03.08.08.16.13.23-.21.07-.43.12-.61.25-.36.24-.66.56-.96.88-.06.06,0,.12.05.07.29-.24.59-.44.88-.66.25-.19.58-.18.84-.34.06.04.12.08.18.11-.42.17-.84.58-1.03.96-.03.06.04.06.07.02.31-.49.78-.64,1.24-.89.2.04.41.03.6-.05.54-.21,1.04-.58,1.45-1.04.07.09.16.18.23.26.11.12.22.22.31.35.06.1.14.25.26.26.07,0,.19-.12.11-.18-.06-.04-.1-.28-.13-.35-.04-.11-.1-.21-.16-.31-.09-.14-.19-.27-.28-.4,0-.01-.01-.03-.02-.05.06-.09.12-.18.17-.28.15-.26.27-.56.37-.88.23-.06.47-.05.67-.21.07-.05.11-.24-.02-.17ZM45.39,25.69c-.04.28-.13.56-.25.84-.04-.04-.08-.09-.12-.14-.04-.05-.15.06-.11.1.05.06.1.13.17.17-.16.34-.38.66-.63.91-.07-.1-.13-.21-.16-.34-.01-.06-.12.02-.11.07.03.14.1.24.17.35-.11.1-.24.19-.36.27-.03-.07-.06-.14-.09-.21-.07-.16-.12-.33-.2-.48-.02-.03-.07.03-.06.05.03.18.09.35.14.51.02.07.04.14.06.21-.19.09-.39.14-.6.15-.4.01-.62-.24-.71-.63.07-.05.14-.11.2-.17,1.05-.41,1.83-1.86,1.75-3.08.05-.04.08-.1.1-.16.01-.05.02-.08.02-.11.23.03.45.15.62.33.3.33.26.91.19,1.33Z"/>
          <path class="cls-12" d="M5.63,33.19c-.09-.2-.21-.4-.34-.57-.43-.57-1.24-1.15-1.78-.43-.53.7.16,1.65.59,2.16.37.43,1.11.91,1.56.34.33-.42.25-.99-.03-1.49Z"/>
          <path class="cls-5" d="M13.75,5.63c-1.42,1.09-2.93,2.12-3.86,3.8-1.16,2.09-1.3,4.57-1.78,6.91-.29,1.39-.72,2.67-1.7,3.65-.8.8-1.67,1.48-2.52,2.22-.29.25-.66.58-.98.94-.51.44-.96.95-1.24,1.67-.52,1.32-.11,3.4.4,4.66.03.07.13-.02.13-.07-.07-1.19-.13-2.39.05-3.57.18-1.17.76-1.92,1.55-2.68,1.77-1.69,3.83-3.21,4.63-5.75.68-2.14.71-4.46,1.4-6.6.72-2.25,2.34-3.68,3.96-5.12.03-.03.01-.08-.03-.05Z"/>
          <path class="cls-7" d="M39.55,15.82c.02-.06.04-.12.06-.19,0,0,0-.02,0-.03.04-.14.09-.45-.02-.57-.02-.02-.03-.03-.05-.04-.08-.12-.2-.2-.37-.18-.31.04-.52.36-.57.68-.03.24.02.48.13.68.17.31.52.08.68-.11.04-.05.06-.1.09-.15,0-.01.01-.03.02-.04.01-.02.02-.05.03-.07Z"/>
          <path class="cls-7" d="M40.2,17.25s-.1-.05-.14-.04c-.12.04-.22.1-.3.2-.07.04-.15.11-.18.19-.09.2,0,.48.21.53.21.06.38-.16.45-.35.06-.17.04-.38-.05-.53Z"/>
          <path class="cls-7" d="M41.81,15.15s-.02-.02-.03-.03c0,0,0,0,0,0,0-.01,0-.03,0-.04,0-.07-.06-.09-.12-.06-.06.03-.1.08-.12.14-.05.05-.1.12-.12.17,0,.02-.01.04-.02.06-.05.14.09.22.2.16.07-.04.13-.08.18-.15.05-.07.09-.17.04-.25Z"/>
          <path class="cls-7" d="M10.98,17.39c-.2-.53-.77-.23-1.02.07-.3.37-.46,1.17-.24,1.63.11.22.33.24.52.14.24-.07.46-.32.58-.52.21-.35.31-.93.16-1.32Z"/>
          <path class="cls-7" d="M12.39,17.11s-.04,0-.06,0c-.04,0-.08.03-.09.07,0,.03,0,.12-.02.15-.06.1.07.13.13.07.06-.06.1-.12.1-.21,0-.03-.02-.06-.05-.07Z"/>
          <path class="cls-7" d="M12.24,19.56c-.03-.07-.07-.08-.14-.07-.15.01-.28.13-.36.28-.24.3-.37.84-.08,1.01.25.15.47-.27.53-.47.06-.2.15-.55.05-.75Z"/>
          <path class="cls-6" d="M11.95,35.41c-.4.21-.84.73-.82,1.24,0,.23.17.44.39.47.13.02.26,0,.38-.06.02,0,.05,0,.07,0,.42-.08.85-.63.89-1.09.05-.62-.47-.79-.91-.56Z"/>
          <path class="cls-6" d="M14.02,34.24s0-.04-.02-.06c-.13-.15-.39.12-.46.24-.08.13-.15.4.06.44.13.02.23-.1.3-.2.06-.08.13-.18.15-.28,0-.05,0-.1-.02-.13Z"/>
          <path class="cls-6" d="M13.1,33.01c-.23-.28-.6-.02-.77.19-.18.23-.31.54-.32.84,0,.15.04.25.12.3.03.05.08.09.17.08.11,0,.22-.07.32-.15.03-.02.06-.05.09-.08.1-.1.2-.22.26-.32.15-.23.34-.61.13-.86Z"/>
          <path class="cls-6" d="M37.67,36.73c-.2-.64-1.26-.35-1.62-.12-.31.2-.84.79-.71,1.23,0,.07,0,.14.04.21.23.63,1.01.37,1.4.13.42-.26,1.08-.84.89-1.45Z"/>
          <path class="cls-6" d="M39.27,34.74s-.03,0-.04,0c-.01-.06-.05-.1-.11-.1-.29-.02-.52.24-.65.5-.04.09-.07.23.04.28.25.12.53-.07.65-.31.02-.05.04-.11.03-.16.02,0,.04-.01.05-.02.07-.03.16-.21.03-.19Z"/>
        </g>
      </g>
    </g>
  </g>
</svg>