<svg width="32" height="32" viewBox="0 0 32 32" fill="none" xmlns="http://www.w3.org/2000/svg">
<g clip-path="url(#clip0_856_2938)">
<path d="M11.0716 25.9292C10.298 25.9206 9.53167 25.7787 8.80627 25.5098C8.27656 25.314 7.7973 25.0023 7.40353 24.5975C6.9976 24.2045 6.68543 23.7251 6.4902 23.1949C6.22152 22.4695 6.07984 21.7033 6.07137 20.9298C6.01196 19.6439 6 19.2582 6 16C6 12.7418 6.01314 12.3575 6.07078 11.0706C6.08028 10.2974 6.22213 9.53156 6.4902 8.80627C6.68638 8.27647 6.99811 7.79702 7.40275 7.40275C7.79602 6.99718 8.27551 6.6853 8.80569 6.4902C9.53108 6.2213 10.2974 6.07942 11.071 6.07078C12.3573 6.01196 12.7435 6 16 6C19.2565 6 19.6425 6.01314 20.9294 6.07078C21.7028 6.08021 22.4688 6.22207 23.1943 6.4902C23.7243 6.68556 24.2036 6.99733 24.5971 7.40255C25.0024 7.79613 25.3143 8.27561 25.5098 8.80569C25.7788 9.53107 25.9207 10.2974 25.9294 11.071C25.9882 12.3578 26.0002 12.7431 26.0002 16.0004C26.0002 19.2576 25.9882 19.6429 25.9294 20.9298C25.9201 21.7033 25.7781 22.4694 25.5098 23.1949C25.3068 23.721 24.9959 24.1988 24.5971 24.5975C24.1983 24.9962 23.7205 25.307 23.1943 25.5098C22.4689 25.7788 21.7026 25.9207 20.929 25.9294C19.6433 25.9882 19.2569 26.0002 15.9996 26.0002C12.7424 26.0002 12.3571 25.9888 11.0714 25.9294" fill="url(#paint0_radial_856_2938)"/>
<path d="M11.0716 25.9292C10.298 25.9206 9.53167 25.7787 8.80627 25.5098C8.27656 25.314 7.7973 25.0023 7.40353 24.5975C6.9976 24.2045 6.68543 23.7251 6.4902 23.1949C6.22152 22.4695 6.07984 21.7033 6.07137 20.9298C6.01196 19.6439 6 19.2582 6 16C6 12.7418 6.01314 12.3575 6.07078 11.0706C6.08028 10.2974 6.22213 9.53156 6.4902 8.80627C6.68638 8.27647 6.99811 7.79702 7.40275 7.40275C7.79602 6.99718 8.27551 6.6853 8.80569 6.4902C9.53108 6.2213 10.2974 6.07942 11.071 6.07078C12.3573 6.01196 12.7435 6 16 6C19.2565 6 19.6425 6.01314 20.9294 6.07078C21.7028 6.08021 22.4688 6.22207 23.1943 6.4902C23.7243 6.68556 24.2036 6.99733 24.5971 7.40255C25.0024 7.79613 25.3143 8.27561 25.5098 8.80569C25.7788 9.53107 25.9207 10.2974 25.9294 11.071C25.9882 12.3578 26.0002 12.7431 26.0002 16.0004C26.0002 19.2576 25.9882 19.6429 25.9294 20.9298C25.9201 21.7033 25.7781 22.4694 25.5098 23.1949C25.3068 23.721 24.9959 24.1988 24.5971 24.5975C24.1983 24.9962 23.7205 25.307 23.1943 25.5098C22.4689 25.7788 21.7026 25.9207 20.929 25.9294C19.6433 25.9882 19.2569 26.0002 15.9996 26.0002C12.7424 26.0002 12.3571 25.9888 11.0714 25.9294" fill="url(#paint1_radial_856_2938)"/>
<path d="M13.5445 16.0424C13.5446 15.5526 13.6899 15.0737 13.9621 14.6665C14.2342 14.2592 14.6211 13.9418 15.0737 13.7544C15.5262 13.5669 16.0242 13.518 16.5047 13.6136C16.9851 13.7092 17.4264 13.9451 17.7727 14.2915C18.119 14.6379 18.3548 15.0793 18.4503 15.5597C18.5459 16.0402 18.4967 16.5382 18.3092 16.9907C18.1217 17.4432 17.8042 17.83 17.3969 18.1021C16.9895 18.3742 16.5107 18.5193 16.0208 18.5193C15.364 18.5192 14.7341 18.2581 14.2697 17.7937C13.8053 17.3292 13.5445 16.6992 13.5445 16.0424ZM12.2055 16.0424C12.2055 16.797 12.4293 17.5346 12.8485 18.1621C13.2677 18.7895 13.8636 19.2785 14.5608 19.5673C15.2579 19.856 16.0251 19.9316 16.7651 19.7844C17.5052 19.6372 18.1851 19.2738 18.7186 18.7402C19.2522 18.2066 19.6156 17.5268 19.7628 16.7867C19.91 16.0466 19.8345 15.2795 19.5457 14.5823C19.2569 13.8852 18.7679 13.2893 18.1405 12.8701C17.5131 12.4509 16.7754 12.2271 16.0208 12.2271C15.5198 12.2271 15.0236 12.3257 14.5607 12.5175C14.0978 12.7092 13.6772 12.9902 13.3229 13.3445C12.9687 13.6988 12.6876 14.1194 12.4959 14.5823C12.3042 15.0452 12.2055 15.5414 12.2055 16.0424ZM19.0955 12.0759C19.0954 12.2523 19.1477 12.4247 19.2456 12.5713C19.3435 12.718 19.4827 12.8323 19.6455 12.8999C19.8084 12.9674 19.9877 12.9852 20.1606 12.9508C20.3336 12.9165 20.4925 12.8317 20.6173 12.707C20.742 12.5824 20.827 12.4236 20.8615 12.2506C20.8959 12.0777 20.8784 11.8984 20.8109 11.7355C20.7435 11.5726 20.6293 11.4333 20.4827 11.3352C20.3362 11.2372 20.1638 11.1848 19.9875 11.1848C19.7511 11.1849 19.5245 11.2788 19.3573 11.4459C19.1901 11.613 19.0961 11.8396 19.0959 12.0759M13.0194 22.0904C12.5483 22.0853 12.0815 21.999 11.6396 21.8355C11.3192 21.712 11.0281 21.5228 10.7852 21.2799C10.5423 21.0371 10.3529 20.7462 10.2292 20.4257C10.0657 19.9839 9.97945 19.5171 9.97435 19.0459C9.93827 18.2628 9.93121 18.0275 9.93121 16.0434C9.93121 14.0593 9.93906 13.8246 9.97435 13.0406C9.98007 12.5695 10.0663 12.1029 10.2292 11.6608C10.3528 11.3403 10.5421 11.0491 10.785 10.8062C11.0279 10.5633 11.3191 10.374 11.6396 10.2504C12.0815 10.0869 12.5483 10.0006 13.0194 9.99554C13.8026 9.95946 14.0379 9.9524 16.0212 9.9524C18.0045 9.9524 18.24 9.96005 19.024 9.99574C19.4951 10.0015 19.9617 10.0877 20.4038 10.2506C20.7243 10.3742 21.0155 10.5635 21.2584 10.8064C21.5013 11.0493 21.6906 11.3405 21.8142 11.661C21.9777 12.1029 22.0639 12.5697 22.0691 13.0408C22.1051 13.8251 22.1122 14.0593 22.1122 16.0436C22.1122 18.0279 22.1049 18.2624 22.0691 19.0463C22.0636 19.5174 21.9773 19.9841 21.8142 20.4261C21.6905 20.7465 21.5011 21.0375 21.2582 21.2803C21.0153 21.5231 20.7242 21.7124 20.4038 21.8359C19.9619 21.9995 19.4951 22.0857 19.024 22.0908C18.2408 22.1269 18.0055 22.134 16.0212 22.134C14.0369 22.134 13.8024 22.1267 13.0194 22.0908M12.9579 8.6577C12.3414 8.66982 11.7314 8.7865 11.154 9.00279C10.6603 9.19365 10.212 9.48555 9.8378 9.85978C9.46358 10.234 9.17167 10.6823 8.98082 11.1759C8.76456 11.7534 8.64787 12.3634 8.63572 12.9799C8.59906 13.772 8.59082 14.0253 8.59082 16.0432C8.59082 18.061 8.59925 18.3142 8.63572 19.1065C8.64787 19.723 8.76456 20.333 8.98082 20.9104C9.17168 21.4041 9.46359 21.8523 9.83782 22.2266C10.212 22.6008 10.6603 22.8927 11.154 23.0836C11.7314 23.2998 12.3414 23.4165 12.9579 23.4287C13.7504 23.4648 14.0034 23.4736 16.0212 23.4736C18.0391 23.4736 18.2922 23.4651 19.0845 23.4287C19.701 23.4165 20.311 23.2998 20.8885 23.0836C21.3821 22.8927 21.8304 22.6008 22.2046 22.2266C22.5788 21.8523 22.8707 21.4041 23.0616 20.9104C23.2781 20.3331 23.3948 19.7231 23.4067 19.1065C23.4428 18.3138 23.451 18.061 23.451 16.0432C23.451 14.0253 23.4426 13.7722 23.4067 12.9799C23.3946 12.3633 23.2779 11.7534 23.0616 11.1759C22.8707 10.6824 22.5789 10.2342 22.2048 9.85995C21.8307 9.48573 21.3825 9.19378 20.8891 9.00279C20.3117 8.78636 19.7017 8.66967 19.0851 8.6577C18.2928 8.62142 18.0396 8.61279 16.0222 8.61279C14.0047 8.61279 13.751 8.62123 12.9583 8.6577" fill="white"/>
</g>
<defs>
<radialGradient id="paint0_radial_856_2938" cx="0" cy="0" r="1" gradientUnits="userSpaceOnUse" gradientTransform="translate(7.29431 25.562) scale(25.3925)">
<stop offset="0.09" stop-color="#FA8F21"/>
<stop offset="0.78" stop-color="#D82D7E"/>
</radialGradient>
<radialGradient id="paint1_radial_856_2938" cx="0" cy="0" r="1" gradientUnits="userSpaceOnUse" gradientTransform="translate(19.8533 24.9196) scale(22.3457)">
<stop offset="0.64" stop-color="#8C3AAA" stop-opacity="0"/>
<stop offset="1" stop-color="#8C3AAA"/>
</radialGradient>
<clipPath id="clip0_856_2938">
<rect width="20" height="20" fill="white" transform="translate(6 6)"/>
</clipPath>
</defs>
</svg>
