<svg width="32" height="32" viewBox="0 0 32 32" fill="none" xmlns="http://www.w3.org/2000/svg">
<path fill-rule="evenodd" clip-rule="evenodd" d="M12.6667 9.74984C11.8932 9.74984 11.1513 10.0571 10.6044 10.6041C10.0574 11.1511 9.75008 11.893 9.75008 12.6665V19.3332C9.75008 20.1067 10.0574 20.8486 10.6044 21.3956C11.1513 21.9425 11.8932 22.2498 12.6667 22.2498H19.3334C20.107 22.2498 20.8488 21.9425 21.3958 21.3956C21.9428 20.8486 22.2501 20.1067 22.2501 19.3332V12.6665C22.2501 11.893 21.9428 11.1511 21.3958 10.6041C20.8488 10.0571 20.107 9.74984 19.3334 9.74984H12.6667ZM10.0151 10.0149C10.7184 9.31159 11.6722 8.9165 12.6667 8.9165H19.3334C20.328 8.9165 21.2818 9.31159 21.9851 10.0149C22.6883 10.7181 23.0834 11.6719 23.0834 12.6665V19.3332C23.0834 20.3277 22.6883 21.2816 21.9851 21.9848C21.2818 22.6881 20.328 23.0832 19.3334 23.0832H12.6667C11.6722 23.0832 10.7184 22.6881 10.0151 21.9848C9.31184 21.2816 8.91675 20.3277 8.91675 19.3332V12.6665C8.91675 11.6719 9.31184 10.7181 10.0151 10.0149ZM19.7501 11.8332C19.9802 11.8332 20.1667 12.0197 20.1667 12.2498V12.2582C20.1667 12.4883 19.9802 12.6748 19.7501 12.6748C19.52 12.6748 19.3334 12.4883 19.3334 12.2582V12.2498C19.3334 12.0197 19.52 11.8332 19.7501 11.8332ZM13.9377 13.9374C14.4847 13.3905 15.2265 13.0832 16.0001 13.0832C16.7736 13.0832 17.5155 13.3905 18.0625 13.9374C18.6095 14.4844 18.9167 15.2263 18.9167 15.9998C18.9167 16.7734 18.6095 17.5153 18.0625 18.0622C17.5155 18.6092 16.7736 18.9165 16.0001 18.9165C15.2265 18.9165 14.4847 18.6092 13.9377 18.0622C13.3907 17.5153 13.0834 16.7734 13.0834 15.9998C13.0834 15.2263 13.3907 14.4844 13.9377 13.9374ZM16.0001 13.9165C15.4475 13.9165 14.9176 14.136 14.5269 14.5267C14.1362 14.9174 13.9167 15.4473 13.9167 15.9998C13.9167 16.5524 14.1362 17.0823 14.5269 17.473C14.9176 17.8637 15.4475 18.0832 16.0001 18.0832C16.5526 18.0832 17.0825 17.8637 17.4732 17.473C17.8639 17.0823 18.0834 16.5524 18.0834 15.9998C18.0834 15.4473 17.8639 14.9174 17.4732 14.5267C17.0825 14.136 16.5526 13.9165 16.0001 13.9165Z" fill="white"/>
</svg>
