<svg width="32" height="32" viewBox="0 0 32 32" fill="none" xmlns="http://www.w3.org/2000/svg">
<g clip-path="url(#clip0_856_2775)">
<path d="M16 8C11.589 8 8 11.589 8 16C8 20.411 11.589 24 16 24C20.411 24 24 20.411 24 16C24 11.589 20.411 8 16 8ZM22.997 16.06C21.3367 15.615 19.5958 15.5609 17.911 15.902C17.6851 15.3386 17.441 14.7826 17.179 14.235C18.6907 13.5273 20.0745 12.5737 21.274 11.413C22.3864 12.6822 22.9998 14.3123 23 16C23 16.02 22.997 16.039 22.997 16.06ZM20.567 10.707C19.448 11.7923 18.1564 12.6841 16.745 13.346C15.9943 11.9114 15.1211 10.5443 14.135 9.26C14.742 9.08925 15.3694 9.00178 16 9C17.6784 8.99974 19.3003 9.60596 20.567 10.707ZM13.147 9.614C14.1576 10.9004 15.0496 12.2757 15.812 13.723C13.6915 14.5373 11.4055 14.8266 9.149 14.566C9.37819 13.484 9.85979 12.4714 10.5546 11.6109C11.2493 10.7503 12.1376 10.0661 13.147 9.614ZM9 16C9 15.85 9.013 15.703 9.023 15.556C9.615 15.626 10.207 15.672 10.797 15.672C12.679 15.672 14.528 15.304 16.261 14.629C16.501 15.129 16.727 15.636 16.936 16.15C14.4284 16.9005 12.2626 18.5049 10.814 20.685C9.64764 19.4033 9.00087 17.7329 9 16ZM11.545 21.395C12.8751 19.3066 14.919 17.773 17.296 17.08C17.931 18.8274 18.384 20.6356 18.648 22.476C17.4775 22.9581 16.1979 23.1122 14.9464 22.9217C13.695 22.7313 12.519 22.2035 11.545 21.395ZM19.586 22C19.3138 20.2452 18.8758 18.5201 18.278 16.848C19.8181 16.5616 21.4036 16.6362 22.91 17.066C22.7521 18.082 22.3724 19.0507 21.7979 19.9035C21.2234 20.7562 20.4682 21.472 19.586 22Z" fill="white"/>
</g>
<defs>
<clipPath id="clip0_856_2775">
<rect width="16" height="16" fill="white" transform="translate(8 8)"/>
</clipPath>
</defs>
</svg>
