<svg width="32" height="32" viewBox="0 0 32 32" fill="none" xmlns="http://www.w3.org/2000/svg">
<g clip-path="url(#clip0_856_2943)">
<path d="M16 25.3076C21.1777 25.3076 25.375 21.1103 25.375 15.9326C25.375 10.7549 21.1777 6.55762 16 6.55762C10.8223 6.55762 6.625 10.7549 6.625 15.9326C6.625 21.1103 10.8223 25.3076 16 25.3076Z" fill="#EC407A"/>
<path d="M16 6C10.4863 6 6 10.4863 6 16C6 21.5138 10.4863 26 16 26C21.5138 26 26 21.5138 26 16C26 10.4863 21.5138 6 16 6ZM24.7463 16.075C22.6708 15.5187 20.4947 15.4511 18.3888 15.8775C18.1064 15.1732 17.8012 14.4783 17.4738 13.7938C19.3633 12.9091 21.0931 11.7171 22.5925 10.2663C23.9831 11.8527 24.7498 13.8904 24.75 16C24.75 16.025 24.7463 16.0488 24.7463 16.075ZM21.7088 9.38375C20.31 10.7404 18.6955 11.8552 16.9312 12.6825C15.9929 10.8892 14.9013 9.18035 13.6688 7.575C14.4275 7.36156 15.2118 7.25223 16 7.25C18.0979 7.24967 20.1253 8.00745 21.7088 9.38375ZM12.4337 8.0175C13.697 9.62545 14.812 11.3446 15.765 13.1537C13.1144 14.1717 10.2569 14.5332 7.43625 14.2075C7.72274 12.855 8.32474 11.5893 9.19321 10.5136C10.0617 9.43792 11.172 8.58264 12.4337 8.0175ZM7.25 16C7.25 15.8125 7.26625 15.6287 7.27875 15.445C8.01875 15.5325 8.75875 15.59 9.49625 15.59C11.8488 15.59 14.16 15.13 16.3263 14.2863C16.6262 14.9113 16.9087 15.545 17.17 16.1875C14.0355 17.1256 11.3282 19.1311 9.5175 21.8563C8.05955 20.2542 7.25109 18.1662 7.25 16ZM10.4313 22.7438C12.0938 20.1333 14.6488 18.2163 17.62 17.35C18.4137 19.5343 18.98 21.7945 19.31 24.095C17.8469 24.6976 16.2473 24.8902 14.683 24.6522C13.1187 24.4141 11.6488 23.7543 10.4313 22.7438ZM20.4825 23.5C20.1423 21.3065 19.5948 19.1502 18.8475 17.06C20.7726 16.702 22.7545 16.7953 24.6375 17.3325C24.4401 18.6025 23.9655 19.8134 23.2474 20.8793C22.5293 21.9452 21.5853 22.84 20.4825 23.5Z" fill="#C2185B"/>
</g>
<defs>
<clipPath id="clip0_856_2943">
<rect width="20" height="20" fill="white" transform="translate(6 6)"/>
</clipPath>
</defs>
</svg>
