<svg width="32" height="32" viewBox="0 0 32 32" fill="none" xmlns="http://www.w3.org/2000/svg">
<path fill-rule="evenodd" clip-rule="evenodd" d="M7.66675 21.8333V11.0003H12.7592C13.3104 10.9935 13.8568 11.1077 14.3631 11.3355C14.7537 11.5025 15.0939 11.7766 15.348 12.1287C15.602 12.4809 15.7605 12.8982 15.8066 13.3366C15.8847 13.8318 15.8433 14.3396 15.6863 14.8139C15.5123 15.2661 15.1885 15.6379 14.7741 15.8615L14.5736 15.9768H14.6638C15.0413 16.1223 15.3745 16.3713 15.6284 16.6975C15.8824 17.0237 16.0478 17.4153 16.1074 17.8312C16.2487 18.5393 16.1605 19.2765 15.8567 19.9265C15.654 20.3834 15.3451 20.78 14.9581 21.0801C14.5711 21.3802 14.1185 21.5743 13.6413 21.6447C13.2041 21.7221 12.7615 21.7606 12.3181 21.76H7.66675V21.8333ZM10.0626 19.9475H12.2981C12.5203 19.9442 12.7417 19.9197 12.9597 19.8742C13.2053 19.8428 13.4349 19.7304 13.6152 19.5533C13.7955 19.3762 13.917 19.1436 13.9621 18.8893C13.9888 18.6877 13.9888 18.4833 13.9621 18.2817C13.954 18.0462 13.8765 17.8192 13.7401 17.6316C13.6037 17.4441 13.4151 17.3052 13.2003 17.234C12.9588 17.1445 12.7046 17.0984 12.4484 17.0978H10.0626V19.9475ZM10.0626 15.2644H12.3181C12.6655 15.2769 13.0103 15.1976 13.3205 15.0339C13.427 14.9774 13.5206 14.8977 13.595 14.8C13.6694 14.7024 13.7228 14.5892 13.7516 14.4681C13.7926 14.2537 13.7926 14.0329 13.7516 13.8186C13.7374 13.6282 13.6656 13.4474 13.5467 13.3024C13.4278 13.1574 13.2678 13.0557 13.09 13.0118C12.7629 12.9211 12.4259 12.8753 12.0875 12.8756H10.0826L10.0626 15.2644ZM24.3274 18.1874H18.9142V18.5227C18.9392 18.7402 18.9967 18.9523 19.0846 19.1513C19.1963 19.395 19.3635 19.6065 19.5714 19.7673C19.7793 19.928 20.0218 20.033 20.2775 20.0732C20.5751 20.1373 20.8821 20.1373 21.1797 20.0732C21.3931 20.0309 21.5944 19.938 21.7681 19.8018C21.9419 19.6656 22.0835 19.4897 22.1822 19.2875C22.1905 19.2673 22.2046 19.2505 22.2226 19.2392C22.2406 19.2279 22.2615 19.2228 22.2824 19.2246H24.2472C24.2472 19.3294 24.2472 19.4341 24.1771 19.5284C24.057 19.9193 23.855 20.2773 23.5856 20.5761C23.0454 21.2149 22.3001 21.6248 21.4905 21.7286C20.8459 21.8395 20.186 21.8038 19.5558 21.6238C18.9014 21.4427 18.3059 21.0808 17.8316 20.5761C17.46 20.1542 17.2098 19.6313 17.1098 19.0674C16.8959 18.0681 16.9374 17.0274 17.2301 16.0501C17.3984 15.4129 17.7415 14.8412 18.2172 14.4055C18.6928 13.9699 19.2801 13.6893 19.9066 13.5985C20.7312 13.4286 21.5853 13.516 22.3626 13.85C23.0696 14.1623 23.6409 14.7371 23.9665 15.4634C24.1818 15.9463 24.2979 16.4709 24.3074 17.0035V18.1664C24.3374 18.1455 24.3374 18.1664 24.3274 18.1874ZM22.3225 16.8464V16.6263C22.2894 16.3472 22.1841 16.0827 22.0182 15.8612C21.8522 15.6397 21.6316 15.4696 21.3802 15.3691C21.1029 15.2566 20.8042 15.2136 20.5081 15.2434C20.2248 15.2485 19.9493 15.3407 19.7157 15.5084C19.4822 15.676 19.3011 15.9118 19.1949 16.1863C19.1311 16.3466 19.0775 16.5111 19.0345 16.6787C19.031 16.745 19.031 16.8115 19.0345 16.8778L22.3225 16.8464ZM18.5433 12.6975V11.4403H22.7135V12.6871L18.5433 12.6975Z" fill="white"/>
</svg>
