<svg width="32" height="32" viewBox="0 0 32 32" fill="none" xmlns="http://www.w3.org/2000/svg">
<g clip-path="url(#clip0_856_2947)">
<path d="M21.5109 6H10.4891C8.00983 6 6 8.00983 6 10.4891V21.5109C6 23.9902 8.00983 26 10.4891 26H21.5109C23.9902 26 26 23.9902 26 21.5109V10.4891C26 8.00983 23.9902 6 21.5109 6Z" fill="#2A5AFC"/>
<path fill-rule="evenodd" clip-rule="evenodd" d="M10.4753 19.5852V12.4221H13.9946C14.3755 12.4176 14.7531 12.4931 15.103 12.6437C15.3729 12.7542 15.608 12.9354 15.7836 13.1682C15.9592 13.4011 16.0687 13.677 16.1006 13.9669C16.1545 14.2944 16.1259 14.6301 16.0174 14.9437C15.8972 15.2428 15.6734 15.4886 15.387 15.6365L15.2485 15.7127H15.3108C15.5717 15.8089 15.8019 15.9735 15.9774 16.1892C16.1529 16.4049 16.2672 16.6638 16.3084 16.9389C16.4061 17.4071 16.3451 17.8946 16.1352 18.3244C15.9951 18.6265 15.7816 18.8887 15.5142 19.0871C15.2468 19.2856 14.9339 19.4139 14.6042 19.4605C14.3021 19.5116 13.9962 19.5371 13.6898 19.5367H10.4753V19.5852ZM12.131 18.3382H13.6759C13.8295 18.3361 13.9825 18.3198 14.1331 18.2897C14.3028 18.269 14.4615 18.1947 14.5861 18.0776C14.7107 17.9605 14.7947 17.8067 14.8259 17.6385C14.8443 17.5052 14.8443 17.37 14.8259 17.2367C14.8203 17.0811 14.7667 16.9309 14.6724 16.8069C14.5782 16.6829 14.4479 16.591 14.2994 16.544C14.1325 16.4848 13.9568 16.4544 13.7798 16.4539H12.131V18.3382ZM12.131 15.2416H13.6898C13.9298 15.2499 14.1681 15.1975 14.3825 15.0892C14.4561 15.0519 14.5208 14.9991 14.5722 14.9346C14.6236 14.87 14.6605 14.7952 14.6804 14.7151C14.7088 14.5733 14.7088 14.4274 14.6804 14.2856C14.6706 14.1597 14.621 14.0402 14.5388 13.9443C14.4566 13.8484 14.3461 13.7811 14.2232 13.7522C13.9972 13.6921 13.7643 13.6619 13.5304 13.6621H12.1449L12.131 15.2416ZM21.989 17.1744H18.2481V17.3961C18.2654 17.5399 18.3051 17.6802 18.3659 17.8117C18.4431 17.9729 18.5586 18.1128 18.7023 18.2191C18.846 18.3253 19.0135 18.3948 19.1903 18.4214C19.3959 18.4637 19.6081 18.4637 19.8138 18.4214C19.9612 18.3934 20.1003 18.332 20.2204 18.2419C20.3405 18.1519 20.4383 18.0355 20.5065 17.9018C20.5123 17.8885 20.522 17.8773 20.5345 17.8699C20.5469 17.8624 20.5613 17.859 20.5758 17.8602H21.9336C21.9336 17.9295 21.9336 17.9988 21.8851 18.0611C21.8022 18.3196 21.6625 18.5563 21.4764 18.7539C21.1031 19.1763 20.588 19.4473 20.0285 19.5159C19.583 19.5893 19.127 19.5657 18.6915 19.4467C18.2393 19.3269 17.8277 19.0876 17.4999 18.7539C17.2432 18.4749 17.0703 18.1291 17.0011 17.7563C16.8533 17.0955 16.882 16.4074 17.0843 15.7612C17.2006 15.3398 17.4377 14.9618 17.7664 14.6737C18.0951 14.3856 18.501 14.2001 18.934 14.1401C19.5038 14.0277 20.094 14.0855 20.6312 14.3064C21.1198 14.5129 21.5146 14.8929 21.7396 15.3732C21.8884 15.6925 21.9686 16.0394 21.9752 16.3916V17.1605C21.996 17.1467 21.996 17.1605 21.989 17.1744ZM20.6035 16.2877V16.1422C20.5806 15.9576 20.5079 15.7827 20.3932 15.6362C20.2784 15.4898 20.1261 15.3773 19.9523 15.3109C19.7607 15.2365 19.5542 15.208 19.3496 15.2277C19.1538 15.2311 18.9634 15.2921 18.802 15.4029C18.6407 15.5138 18.5155 15.6697 18.4421 15.8512C18.398 15.9572 18.361 16.066 18.3312 16.1768C18.3289 16.2207 18.3289 16.2646 18.3312 16.3084L20.6035 16.2877ZM17.9918 13.5443V12.713H20.8737V13.5374L17.9918 13.5443Z" fill="white"/>
</g>
<defs>
<clipPath id="clip0_856_2947">
<rect width="20" height="20" fill="white" transform="translate(6 6)"/>
</clipPath>
</defs>
</svg>
