<svg width="32" height="32" viewBox="0 0 32 32" fill="none" xmlns="http://www.w3.org/2000/svg">
<g clip-path="url(#clip0_856_2953)">
<path d="M23 6H9C7.34315 6 6 7.34315 6 9V23C6 24.6569 7.34315 26 9 26H23C24.6569 26 26 24.6569 26 23V9C26 7.34315 24.6569 6 23 6Z" fill="#0077B5"/>
<path d="M11.5469 12.8359C12.3451 12.8359 12.9922 12.1888 12.9922 11.3906C12.9922 10.5924 12.3451 9.94531 11.5469 9.94531C10.7487 9.94531 10.1016 10.5924 10.1016 11.3906C10.1016 12.1888 10.7487 12.8359 11.5469 12.8359Z" fill="white"/>
<path d="M15.5312 13.5781V21.3125V13.5781ZM11.5469 13.5781V21.3125V13.5781Z" fill="white"/>
<path fill-rule="evenodd" clip-rule="evenodd" d="M10.2578 21.3125V13.5781H12.8359V21.3125H10.2578ZM14.2422 21.3125V13.5781H16.8203V21.3125H14.2422Z" fill="white"/>
<path d="M16.7812 17.0156C16.7812 16.2344 17.2891 15.4531 18.1875 15.4531C19.125 15.4531 19.4766 16.1562 19.4766 17.2109V21.3125H22.0547V16.8984C22.0547 14.5156 20.8047 13.4219 19.0859 13.4219C17.7578 13.4219 17.0938 14.1641 16.7812 14.6719" fill="white"/>
</g>
<defs>
<clipPath id="clip0_856_2953">
<rect width="20" height="20" fill="white" transform="translate(6 6)"/>
</clipPath>
</defs>
</svg>
