<svg width="32" height="32" viewBox="0 0 32 32" fill="none" xmlns="http://www.w3.org/2000/svg">
<path d="M7.66675 12.875H11.3938V24.3333H7.66675V12.875ZM21.5459 13.0094C21.5063 12.9969 21.4688 12.9833 21.4272 12.9719C21.3771 12.9606 21.3268 12.9508 21.2761 12.9427C21.056 12.8977 20.832 12.875 20.6074 12.875C18.4345 12.875 17.0563 14.4552 16.6022 15.0656V12.875H12.8751V24.3333H16.6022V18.0833C16.6022 18.0833 19.4188 14.1604 20.6074 17.0417V24.3333H24.3334V16.601C24.3319 15.7783 24.0574 14.9793 23.5529 14.3293C23.0484 13.6793 22.3426 13.2151 21.5459 13.0094Z" fill="white"/>
<path d="M9.48966 11.3123C10.4964 11.3123 11.3126 10.4962 11.3126 9.48942C11.3126 8.48265 10.4964 7.6665 9.48966 7.6665C8.4829 7.6665 7.66675 8.48265 7.66675 9.48942C7.66675 10.4962 8.4829 11.3123 9.48966 11.3123Z" fill="white"/>
</svg>
