<svg width="24" height="24" viewBox="0 0 24 24" fill="none" xmlns="http://www.w3.org/2000/svg">
<path d="M0 6C0 2.68629 2.68629 0 6 0H18C21.3137 0 24 2.68629 24 6V18C24 21.3137 21.3137 24 18 24H6C2.68629 24 0 21.3137 0 18V6Z" fill="#19161B"/>
<path d="M15.8355 8.00698C15.9632 8.02073 16.0888 8.05481 16.2077 8.1094C16.3608 8.1794 16.5003 8.28154 16.6186 8.40965C16.7371 8.53769 16.8317 8.69005 16.8975 8.8581C16.9656 9.03302 17.0004 9.21971 17 9.41129C17 9.54791 16.9815 9.68648 16.9452 9.82482L16.9031 9.96293C16.8501 10.1169 16.7743 10.2724 16.6811 10.4261C16.5331 10.6699 16.3331 10.9196 16.0897 11.1678C15.6878 11.5774 15.2916 11.8594 15.2701 11.8746L15.1696 11.9453C15.0792 12.009 14.9664 12.0172 14.8704 11.9693L14.8304 11.9453L14.7306 11.8746V11.8739C14.6873 11.8436 14.3013 11.5652 13.911 11.1671V11.1678C13.6676 10.9196 13.4669 10.6699 13.3189 10.4261C13.2255 10.2721 13.1508 10.1162 13.0976 9.96293C13.0339 9.7789 13 9.59347 13 9.41129C13 9.21989 13.035 9.0332 13.1032 8.8581C13.1688 8.68996 13.2635 8.53756 13.3821 8.40965L13.4748 8.3181C13.5711 8.23217 13.6779 8.16207 13.793 8.1094C13.9521 8.03639 14.1208 8 14.2938 8C14.5342 8.00003 14.7693 8.07262 14.9737 8.21026C14.9826 8.21625 14.9916 8.22267 15.0003 8.22888C15.0091 8.22267 15.0181 8.21625 15.027 8.21026C15.2314 8.07262 15.4665 8.00003 15.7069 8L15.8355 8.00698ZM15.0144 8.66957C15.0047 8.67041 14.9953 8.67045 14.9856 8.66957C14.9903 8.67473 14.9958 8.67904 15.0003 8.68431C15.0048 8.67917 15.0098 8.67461 15.0144 8.66957ZM13.6799 9.41129C13.6799 9.58905 13.7522 9.79182 13.8836 10.0079C14.0135 10.2215 14.1905 10.4306 14.3724 10.6162C14.5535 10.8009 14.7355 10.9581 14.8725 11.0693C14.9217 11.1092 14.9653 11.1425 15.0003 11.1694C15.0354 11.1425 15.079 11.1092 15.1282 11.0693C15.2652 10.9581 15.4472 10.8009 15.6283 10.6162C15.8102 10.4306 15.9872 10.2215 16.1171 10.0079C16.2485 9.79182 16.3208 9.58905 16.3208 9.41129C16.3208 9.05042 16.0494 8.75103 15.7069 8.75103C15.4671 8.75109 15.2608 8.8988 15.1598 9.11181C15.1288 9.17728 15.0673 9.2181 15.0003 9.2181C14.9334 9.2181 14.8719 9.17728 14.8409 9.11181C14.7399 8.8988 14.5336 8.75109 14.2938 8.75103C13.9513 8.75103 13.6799 9.05042 13.6799 9.41129Z" fill="white"/>
<path d="M9.83547 8.00698C9.96319 8.02073 10.0888 8.05481 10.2077 8.1094C10.3608 8.1794 10.5003 8.28154 10.6186 8.40965C10.7371 8.53769 10.8317 8.69005 10.8975 8.8581C10.9656 9.03302 11.0004 9.21971 11 9.41129C11 9.54791 10.9815 9.68648 10.9452 9.82482L10.9031 9.96293C10.8501 10.1169 10.7743 10.2724 10.6811 10.4261C10.5331 10.6699 10.3331 10.9196 10.0897 11.1678C9.68783 11.5774 9.29162 11.8594 9.27006 11.8746L9.16962 11.9453C9.07922 12.009 8.96637 12.0172 8.87041 11.9693L8.83038 11.9453L8.73064 11.8746V11.8739C8.68731 11.8436 8.30126 11.5652 7.91097 11.1671V11.1678C7.66758 10.9196 7.46689 10.6699 7.31888 10.4261C7.22548 10.2721 7.15078 10.1162 7.09763 9.96293C7.03393 9.7789 7 9.59347 7 9.41129C7 9.21989 7.03504 9.0332 7.10325 8.8581C7.16881 8.68996 7.26351 8.53756 7.38209 8.40965L7.4748 8.3181C7.57106 8.23217 7.67785 8.16207 7.79298 8.1094C7.95209 8.03639 8.1208 8 8.29377 8C8.53424 8.00003 8.76928 8.07262 8.97366 8.21026C8.98255 8.21625 8.99161 8.22267 9.00035 8.22888C9.00909 8.22267 9.01815 8.21625 9.02704 8.21026C9.23141 8.07262 9.46645 8.00003 9.70693 8L9.83547 8.00698ZM9.0144 8.66957C9.00471 8.67041 8.99529 8.67045 8.9856 8.66957C8.99029 8.67473 8.99575 8.67904 9.00035 8.68431C9.00483 8.67917 9.00982 8.67461 9.0144 8.66957ZM7.67989 9.41129C7.67989 9.58905 7.75216 9.79182 7.88358 10.0079C8.0135 10.2215 8.19048 10.4306 8.37243 10.6162C8.55353 10.8009 8.73553 10.9581 8.87252 11.0693C8.9217 11.1092 8.96528 11.1425 9.00035 11.1694C9.03542 11.1425 9.079 11.1092 9.12818 11.0693C9.26517 10.9581 9.44717 10.8009 9.62827 10.6162C9.81022 10.4306 9.9872 10.2215 10.1171 10.0079C10.2485 9.79182 10.3208 9.58905 10.3208 9.41129C10.3208 9.05042 10.0494 8.75103 9.70693 8.75103C9.46706 8.75109 9.2608 8.8988 9.15979 9.11181C9.12876 9.17728 9.06725 9.2181 9.00035 9.2181C8.93345 9.2181 8.87194 9.17728 8.84091 9.11181C8.7399 8.8988 8.53364 8.75109 8.29377 8.75103C7.95132 8.75103 7.6799 9.05042 7.67989 9.41129Z" fill="white"/>
<circle cx="12" cy="12" r="7.5" stroke="white"/>
<path d="M16.3546 13C16.7461 13 17.0708 13.3565 16.9866 13.7811C16.9226 14.1027 16.8193 14.4183 16.678 14.7216C16.4235 15.2675 16.0504 15.7638 15.5802 16.1816C15.11 16.5995 14.5518 16.9311 13.9375 17.1572C13.3232 17.3833 12.6649 17.5 12 17.5L11.7508 17.4945C11.2539 17.4727 10.7633 17.3863 10.2949 17.2374L10.0625 17.1572C9.52492 16.9593 9.03006 16.6809 8.59978 16.3344L8.41978 16.1816C8.00846 15.8161 7.67114 15.3911 7.42286 14.9248L7.32198 14.7216C7.21605 14.4942 7.13145 14.2602 7.0688 14.0217L7.01341 13.7811C6.92919 13.3565 7.25386 13 7.64539 13C8.03695 13 8.34525 13.3599 8.46033 13.7756C8.50406 13.9337 8.56104 14.0893 8.63143 14.2404C8.81459 14.6332 9.08335 14.9899 9.42165 15.2906C9.76017 15.5915 10.1622 15.831 10.6045 15.9938C10.9362 16.1159 11.286 16.1933 11.642 16.2245L12 16.2399C12.3592 16.2399 12.7157 16.1927 13.0582 16.1003L13.3955 15.9938C13.7825 15.8513 14.1381 15.6499 14.4478 15.4005L14.5783 15.2906C14.8744 15.0275 15.1167 14.7211 15.2954 14.3854L15.3686 14.2404C15.439 14.0893 15.4959 13.9337 15.5397 13.7756C15.6548 13.3599 15.9631 13 16.3546 13Z" fill="white"/>
</svg>
