<svg width="16" height="16" viewBox="0 0 16 16" fill="none" xmlns="http://www.w3.org/2000/svg">
<path d="M4.85945 3.27174C6.94919 3.09009 9.05079 3.09008 11.1405 3.27174L12.1474 3.35926C12.8176 3.41753 13.3917 3.81731 13.6891 4.38916C13.7271 4.46231 13.6986 4.55089 13.6285 4.59429L9.45119 7.18027C8.55533 7.73487 7.42559 7.74647 6.51847 7.21047L2.31325 4.72555C2.24531 4.68541 2.21413 4.60277 2.24475 4.53003C2.51685 3.88365 3.12861 3.4222 3.85263 3.35927L4.85945 3.27174Z" fill="white"/>
<path d="M2.24134 5.84461C2.13736 5.78317 2.00469 5.84929 1.99257 5.96945C1.82342 7.64655 1.86436 9.33949 2.11539 11.0089C2.24774 11.889 2.96601 12.5637 3.85264 12.6408L4.85946 12.7283C6.9492 12.91 9.0508 12.91 11.1405 12.7283L12.1474 12.6408C13.034 12.5637 13.7523 11.889 13.8846 11.0089C14.143 9.29089 14.1788 7.54782 13.9921 5.82287C13.979 5.70186 13.8441 5.63696 13.7406 5.70103L9.9776 8.03055C8.76547 8.78089 7.23707 8.79662 6.00975 8.07142L2.24134 5.84461Z" fill="white"/>
</svg>
