<svg width="25" height="25" viewBox="0 0 25 25" fill="none" xmlns="http://www.w3.org/2000/svg">
<mask id="mask0_2915_7" style="mask-type:alpha" maskUnits="userSpaceOnUse" x="0" y="0" width="25" height="25">
<rect x="0.414307" y="0.580078" width="24" height="24" fill="#D9D9D9"/>
</mask>
<g mask="url(#mask0_2915_7)">
<path d="M19.4143 19.5801H8.41431C7.86431 19.5801 7.39347 19.3842 7.00181 18.9926C6.61014 18.6009 6.41431 18.1301 6.41431 17.5801V3.58008C6.41431 3.03008 6.61014 2.55924 7.00181 2.16758C7.39347 1.77591 7.86431 1.58008 8.41431 1.58008H15.4143L21.4143 7.58008V17.5801C21.4143 18.1301 21.2185 18.6009 20.8268 18.9926C20.4351 19.3842 19.9643 19.5801 19.4143 19.5801ZM14.4143 8.58008V3.58008H8.41431V17.5801H19.4143V8.58008H14.4143ZM4.41431 23.5801C3.86431 23.5801 3.39347 23.3842 3.00181 22.9926C2.61014 22.6009 2.41431 22.1301 2.41431 21.5801V7.58008H4.41431V21.5801H15.4143V23.5801H4.41431Z" fill="white"/>
</g>
</svg>
