<svg width="16" height="16" viewBox="0 0 16 16" fill="none" xmlns="http://www.w3.org/2000/svg">
<g clip-path="url(#clip0_920_2797)">
<path fill-rule="evenodd" clip-rule="evenodd" d="M12.0889 2.88879H9.24445C8.6889 2.88879 8.22223 3.35546 8.22223 3.91102V7.55546C8.22223 7.64435 8.26667 7.71102 8.33334 7.75546C8.37778 7.77768 8.40001 7.77768 8.44445 7.77768C8.4889 7.77768 8.53334 7.75546 8.57778 7.73324L9.66667 6.95546C9.84445 6.84435 10.0445 6.77768 10.2445 6.77768H12.0889C12.6667 6.77768 13.1111 6.31102 13.1111 5.75546V3.91102C13.1111 3.35546 12.6445 2.88879 12.0889 2.88879ZM11.6667 4.55546H9.66667C9.53334 4.55546 9.44445 4.46657 9.44445 4.33324C9.44445 4.19991 9.53334 4.11102 9.66667 4.11102H11.6889C11.8222 4.11102 11.9111 4.19991 11.9111 4.33324C11.9111 4.46657 11.8 4.55546 11.6667 4.55546ZM9.66667 5.55546H10.6667C10.8 5.55546 10.8889 5.46657 10.8889 5.33324C10.8889 5.1999 10.8 5.11102 10.6667 5.11102H9.66667C9.53334 5.11102 9.44445 5.1999 9.44445 5.33324C9.44445 5.46657 9.53334 5.55546 9.66667 5.55546Z" fill="white"/>
</g>
<path d="M3.33344 6.57364C4.61104 9.35622 6.8844 11.5686 9.71073 12.7679L10.1638 12.9698C11.2003 13.4316 12.4189 13.0808 13.0511 12.1384L13.6431 11.256C13.8356 10.969 13.777 10.5826 13.5081 10.3656L11.5002 8.74576C11.2053 8.50782 10.7716 8.56329 10.546 8.86769L9.92486 9.70589C8.331 8.91962 7.03693 7.62562 6.25071 6.03174L7.08886 5.4106C7.39333 5.18498 7.44873 4.7513 7.2108 4.45638L5.5909 2.44842C5.374 2.17957 4.98766 2.12092 4.70075 2.3133L3.81219 2.9091C2.86396 3.5449 2.51504 4.77347 2.98753 5.81277L3.33292 6.57252L3.33344 6.57364Z" fill="white"/>
<defs>
<clipPath id="clip0_920_2797">
<rect width="5.33333" height="5.33333" fill="white" transform="translate(8 2.66663)"/>
</clipPath>
</defs>
</svg>
